SplineFontDB: 3.0
FontName: Gotham-Book
FullName: Gotham-Book
FamilyName: Gotham
Weight: Book
Copyright: HTF Gotham\\252 Copr. 2000 The Hoefler Type Foundry, Inc. Info: www.typography.com
Version: 001.000
ItalicAngle: 0
UnderlinePosition: -143
UnderlineWidth: 20
Ascent: 800
Descent: 200
InvalidEm: 0
sfntRevision: 0x00010000
LayerCount: 2
Layer: 0 1 "Back" 1
Layer: 1 1 "Fore" 0
XUID: [1021 992 457111896 1286425]
StyleMap: 0x0040
FSType: 0
OS2Version: 0
OS2_WeightWidthSlopeOnly: 0
OS2_UseTypoMetrics: 0
CreationTime: 1137916844
ModificationTime: 1500925015
PfmFamily: 17
TTFWeight: 400
TTFWidth: 5
LineGap: 200
VLineGap: 0
Panose: 2 0 5 4 5 0 0 2 0 4
OS2TypoAscent: 769
OS2TypoAOffset: 0
OS2TypoDescent: -231
OS2TypoDOffset: 0
OS2TypoLinegap: 200
OS2WinAscent: 926
OS2WinAOffset: 0
OS2WinDescent: 270
OS2WinDOffset: 0
HheadAscent: 769
HheadAOffset: 0
HheadDescent: -231
HheadDOffset: 0
OS2SubXSize: 204
OS2SubYSize: 204
OS2SubXOff: 0
OS2SubYOff: 286
OS2SupXSize: 204
OS2SupYSize: 204
OS2SupXOff: 0
OS2SupYOff: 286
OS2StrikeYSize: 50
OS2StrikeYPos: 250
OS2CapHeight: 700
OS2XHeight: 516
OS2Vendor: 'pyrs'
OS2UnicodeRanges: 80000027.00000000.00000000.00000000
Lookup: 258 0 0 "'kern' Horizontal Kerning lookup 0" { "'kern' Horizontal Kerning lookup 0 subtable"  } ['kern' ('DFLT' <'dflt' > 'grek' <'dflt' > 'latn' <'dflt' > ) ]
MarkAttachClasses: 1
DEI: 91125
TtTable: prep
PUSHW_1
 0
CALL
SVTCA[y-axis]
PUSHW_3
 1
 2
 2
CALL
SVTCA[x-axis]
PUSHW_3
 3
 2
 2
CALL
PUSHW_7
 3
 70
 53
 42
 32
 21
 8
CALL
PUSHW_7
 4
 60
 53
 42
 32
 21
 8
CALL
PUSHW_7
 1
 88
 69
 53
 40
 21
 8
CALL
PUSHW_7
 2
 79
 69
 53
 32
 21
 8
CALL
SVTCA[y-axis]
PUSHW_3
 5
 4
 7
CALL
PUSHW_1
 0
DUP
RCVT
RDTG
ROUND[Black]
RTG
WCVTP
EndTTInstrs
TtTable: fpgm
PUSHW_1
 0
FDEF
MPPEM
PUSHW_1
 9
LT
IF
PUSHB_2
 1
 1
INSTCTRL
EIF
PUSHW_1
 511
SCANCTRL
PUSHW_1
 68
SCVTCI
PUSHW_2
 9
 3
SDS
SDB
ENDF
PUSHW_1
 1
FDEF
DUP
DUP
RCVT
ROUND[Black]
WCVTP
PUSHB_1
 1
ADD
ENDF
PUSHW_1
 2
FDEF
PUSHW_1
 1
LOOPCALL
POP
ENDF
PUSHW_1
 3
FDEF
DUP

StartChar: exclam
Encoding: 33 33 4
Width: 271
Flags: W
LayerCount: 2
Fore
SplineSet
91 700 m 1,0,-1
 91 643 l 1,1,-1
 114 198 l 1,2,-1
 157 198 l 1,3,-1
 181 643 l 1,4,-1
 181 700 l 1,5,-1
 91 700 l 1,0,-1
182 0 m 1,6,-1
 182 105 l 1,7,-1
 90 105 l 1,8,-1
 90 0 l 1,9,-1
 182 0 l 1,6,-1
EndSplineSet
EndChar

StartChar: quotedbl
Encoding: 34 34 5
Width: 440
Flags: W
LayerCount: 2
Fore
SplineSet
260 428 m 1,0,-1
 302 428 l 1,1,-1
 383 695 l 1,2,-1
 383 700 l 1,3,-1
 291 700 l 1,4,-1
 260 428 l 1,0,-1
65 428 m 1,5,-1
 107 428 l 1,6,-1
 188 695 l 1,7,-1
 188 700 l 1,8,-1
 95 700 l 1,9,-1
 65 428 l 1,5,-1
EndSplineSet
EndChar

StartChar: numbersign
Encoding: 35 35 6
Width: 700
Flags: W
LayerCount: 2
Fore
SplineSet
654 458 m 1,0,-1
 654 527 l 1,1,-1
 546 527 l 1,2,-1
 575 700 l 1,3,-1
 505 700 l 1,4,-1
 475 527 l 1,5,-1
 285 527 l 1,6,-1
 314 700 l 1,7,-1
 244 700 l 1,8,-1
 214 527 l 1,9,-1
 84 527 l 1,10,-1
 84 458 l 1,11,-1
 203 458 l 1,12,-1
 166 246 l 1,13,-1
 45 246 l 1,14,-1
 45 177 l 1,15,-1
 154 177 l 1,16,-1
 124 0 l 1,17,-1
 194 0 l 1,18,-1
 225 177 l 1,19,-1
 415 177 l 1,20,-1
 385 0 l 1,21,-1
 455 0 l 1,22,-1
 486 177 l 1,23,-1
 615 177 l 1,24,-1
 615 246 l 1,25,-1
 497 246 l 1,26,-1
 534 458 l 1,27,-1
 654 458 l 1,0,-1
463 458 m 1,28,-1
 427 246 l 1,29,-1
 237 246 l 1,30,-1
 273 458 l 1,31,-1
 463 458 l 1,28,-1
EndSplineSet
EndChar

StartChar: dollar
Encoding: 36 36 7
Width: 636
Flags: W
LayerCount: 2
Fore
SplineSet
569 189 m 0,0,1
 569 265 569 265 518 311.5 c 128,-1,2
 467 358 467 358 353 384 c 1,3,-1
 353 630 l 1,4,5
 393 623 393 623 430.5 606 c 128,-1,6
 468 589 468 589 504 558 c 1,7,-1
 547 618 l 1,8,9
 503 652 503 652 458 672.5 c 128,-1,10
 413 693 413 693 356 698 c 1,11,-1
 356 758 l 1,12,-1
 292 758 l 1,13,-1
 292 700 l 1,14,15
 246 698 246 698 207.5 683 c 128,-1,16
 169 668 169 668 141 643.5 c 128,-1,17
 113 619 113 619 97.5 586.5 c 128,-1,18
 82 554 82 554 82 515 c 0,19,20
 82 436 82 436 133 391 c 128,-1,21
 184 346 184 346 295 320 c 1,22,-1
 295 70 l 1,23,24
 238 76 238 76 192 100 c 128,-1,25
 146 124 146 124 101 165 c 1,26,-1
 56 105 l 1,27,28
 109 60 109 60 167 34 c 128,-1,29
 225 8 225 8 292 2 c 1,30,-1
 292 -98 l 1,31,-1
 356 -98 l 1,32,-1
 356 0 l 1,33,34
 403 3 403 3 442.5 17.5 c 128,-1,35
 482 32 482 32 510 57 c 128,-1,36
 538 82 538 82 553.5 115 c 128,-1,37
 569 148 569 148 569 189 c 0,0,1
295 398 m 1,38,39
 254 408 254 408 227.5 420.5 c 128,-1,40
 201 433 201 433 186 448 c 128,-1,41
 171 463 171 463 165 481 c 128,-1,42
 159 499 159 499 159 520 c 0,43,44
 159 543 159 543 168.5 563 c 128,-1,45
 178 583 178 583 195.5 598 c 128,-1,46
 213 613 213 613 238 622.5 c 128,-1,47
 263 632 263 632 295 633 c 1,48,-1
 295 398 l 1,38,39
492 184 m 0,49,50
 492 134 492 134 454.5 102 c 128,-1,51
 417 70 417 70 353 67 c 1,52,-1
 353 306 l 1,53,54
 395 296 395 296 421.5 284 c 128,-1,55
 448 272 448 272 464 257 c 128,-1,56
 480 242 480 242 486 224 c 128,-1,57
 492 206 492 206 492 184 c 0,49,50
EndSplineSet
EndChar

StartChar: percent
Encoding: 37 37 8
Width: 834
Flags: W
LayerCount: 2
Fore
SplineSet
369 530 m 256,0,1
 369 566 369 566 357.5 598 c 128,-1,2
 346 630 346 630 325.5 654.5 c 128,-1,3
 305 679 305 679 276 693.5 c 128,-1,4
 247 708 247 708 212 708 c 0,5,6
 176 708 176 708 146.5 693.5 c 128,-1,7
 117 679 117 679 96 654 c 128,-1,8
 75 629 75 629 63.5 596.5 c 128,-1,9
 52 564 52 564 52 528 c 256,10,11
 52 492 52 492 63.5 460 c 128,-1,12
 75 428 75 428 95.5 403.5 c 128,-1,13
 116 379 116 379 145 364.5 c 128,-1,14
 174 350 174 350 210 350 c 256,15,16
 246 350 246 350 275 364.5 c 128,-1,17
 304 379 304 379 325 404 c 128,-1,18
 346 429 346 429 357.5 461.5 c 128,-1,19
 369 494 369 494 369 530 c 256,0,1
709 700 m 1,20,-1
 638 700 l 1,21,-1
 124 0 l 1,22,-1
 196 0 l 1,23,-1
 709 700 l 1,20,-1
781 172 m 256,24,25
 781 208 781 208 770 240 c 128,-1,26
 759 272 759 272 738.5 296.5 c 128,-1,27
 718 321 718 321 689 335.5 c 128,-1,28
 660 350 660 350 624 350 c 256,29,30
 588 350 588 350 559 335.5 c 128,-1,31
 530 321 530 321 509 296 c 128,-1,32
 488 271 488 271 476.5 238.5 c 128,-1,33
 465 206 465 206 465 170 c 256,34,35
 465 134 465 134 476.5 102 c 128,-1,36
 488 70 488 70 508.5 45.5 c 128,-1,37
 529 21 529 21 558 6.5 c 128,-1,38
 587 -8 587 -8 622 -8 c 0,39,40
 658 -8 658 -8 687.5 6.5 c 128,-1,41
 717 21 717 21 737.5 46 c 128,-1,42
 758 71 758 71 769.5 103.5 c 128,-1,43
 781 136 781 136 781 172 c 256,24,25
303 528 m 0,44,45
 303 502 303 502 296.5 480 c 128,-1,46
 290 458 290 458 278 441.5 c 128,-1,47
 266 425 266 425 249 415.5 c 128,-1,48
 232 406 232 406 212 406 c 256,49,50
 192 406 192 406 175.5 415.5 c 128,-1,51
 159 425 159 425 146 441.5 c 128,-1,52
 133 458 133 458 126 480.5 c 128,-1,53
 119 503 119 503 119 530 c 0,54,55
 119 555 119 555 125.5 577.5 c 128,-1,56
 132 600 132 600 144 616.5 c 128,-1,57
 156 633 156 633 172.5 642.5 c 128,-1,58
 189 652 189 652 210 652 c 0,59,60
 229 652 229 652 246 642.5 c 128,-1,61
 263 633 263 633 275.5 616.5 c 128,-1,62
 288 600 288 600 295.5 577.5 c 128,-1,63
 303 555 303 555 303 528 c 0,44,45
715 170 m 0,64,65
 715 144 715 144 708.5 122 c 128,-1,66
 702 100 702 100 690 83.5 c 128,-1,67
 678 67 678 67 661.5 57.5 c 128,-1,68
 645 48 645 48 624 48 c 0,69,70
 604 48 604 48 587.5 57.5 c 128,-1,71
 571 67 571 67 558 83.5 c 128,-1,72
 545 100 545 100 538 122.5 c 128,-1,73
 531 145 531 145 531 172 c 0,74,75
 531 197 531 197 537.5 219.5 c 128,-1,76
 544 242 544 242 556 258.5 c 128,-1,77
 568 275 568 275 585 284.5 c 128,-1,78
 602 294 602 294 622 294 c 0,79,80
 641 294 641 294 658 284.5 c 128,-1,81
 675 275 675 275 688 258.5 c 128,-1,82
 701 242 701 242 708 219.5 c 128,-1,83
 715 197 715 197 715 170 c 0,64,65
EndSplineSet
EndChar

StartChar: ampersand
Encoding: 38 38 9
Width: 696
Flags: W
LayerCount: 2
Fore
SplineSet
664 32 m 1,0,-1
 542 157 l 1,1,2
 571 195 571 195 595.5 239 c 128,-1,3
 620 283 620 283 643 333 c 1,4,-1
 578 363 l 1,5,6
 559 319 559 319 538 280 c 128,-1,7
 517 241 517 241 494 207 c 1,8,-1
 334 370 l 1,9,10
 411 397 411 397 455 440.5 c 128,-1,11
 499 484 499 484 499 553 c 0,12,13
 499 586 499 586 486 615 c 128,-1,14
 473 644 473 644 450.5 665.5 c 128,-1,15
 428 687 428 687 397 699.5 c 128,-1,16
 366 712 366 712 329 712 c 0,17,18
 287 712 287 712 253 699 c 128,-1,19
 219 686 219 686 195 663.5 c 128,-1,20
 171 641 171 641 157.5 610.5 c 128,-1,21
 144 580 144 580 144 545 c 0,22,23
 144 503 144 503 161 467.5 c 128,-1,24
 178 432 178 432 214 390 c 1,25,26
 133 358 133 358 89 308 c 128,-1,27
 45 258 45 258 45 187 c 0,28,29
 45 143 45 143 61.5 106.5 c 128,-1,30
 78 70 78 70 107.5 44 c 128,-1,31
 137 18 137 18 177.5 4 c 128,-1,32
 218 -10 218 -10 265 -10 c 0,33,34
 334 -10 334 -10 390 18.5 c 128,-1,35
 446 47 446 47 494 99 c 1,36,-1
 604 -14 l 1,37,-1
 664 32 l 1,0,-1
425 549 m 0,38,39
 425 502 425 502 391 470 c 128,-1,40
 357 438 357 438 290 415 c 1,41,42
 270 436 270 436 256.5 453.5 c 128,-1,43
 243 471 243 471 235 486 c 128,-1,44
 227 501 227 501 223.5 515 c 128,-1,45
 220 529 220 529 220 545 c 0,46,47
 220 589 220 589 249 618 c 128,-1,48
 278 647 278 647 326 647 c 0,49,50
 369 647 369 647 397 619.5 c 128,-1,51
 425 592 425 592 425 549 c 0,38,39
446 148 m 1,52,53
 408 106 408 106 364.5 81.5 c 128,-1,54
 321 57 321 57 271 57 c 0,55,56
 239 57 239 57 212 67 c 128,-1,57
 185 77 185 77 165.5 95 c 128,-1,58
 146 113 146 113 135.5 137 c 128,-1,59
 125 161 125 161 125 190 c 0,60,61
 125 235 125 235 157 275 c 128,-1,62
 189 315 189 315 259 341 c 1,63,-1
 446 148 l 1,52,53
EndSplineSet
EndChar

StartChar: quotesingle
Encoding: 39 39 10
Width: 245
Flags: W
LayerCount: 2
Fore
SplineSet
65 428 m 1,0,-1
 108 428 l 1,1,-1
 189 695 l 1,2,-1
 189 700 l 1,3,-1
 95 700 l 1,4,-1
 65 428 l 1,0,-1
EndSplineSet
EndChar

StartChar: parenleft
Encoding: 40 40 11
Width: 434
Flags: W
LayerCount: 2
Fore
SplineSet
378 664 m 1,0,-1
 345 715 l 1,1,2
 211 640 211 640 139.5 533 c 128,-1,3
 68 426 68 426 68 287 c 256,4,5
 68 148 68 148 139.5 41 c 128,-1,6
 211 -66 211 -66 345 -141 c 1,7,-1
 378 -90 l 1,8,9
 263 -17 263 -17 204.5 74.5 c 128,-1,10
 146 166 146 166 146 287 c 256,11,12
 146 408 146 408 204.5 499.5 c 128,-1,13
 263 591 263 591 378 664 c 1,0,-1
EndSplineSet
EndChar

StartChar: parenright
Encoding: 41 41 12
Width: 434
Flags: W
LayerCount: 2
Fore
SplineSet
56 664 m 1,0,1
 171 591 171 591 229.5 499.5 c 128,-1,2
 288 408 288 408 288 287 c 256,3,4
 288 166 288 166 229.5 74.5 c 128,-1,5
 171 -17 171 -17 56 -90 c 1,6,-1
 89 -141 l 1,7,8
 223 -66 223 -66 294.5 41 c 128,-1,9
 366 148 366 148 366 287 c 256,10,11
 366 426 366 426 294.5 533 c 128,-1,12
 223 640 223 640 89 715 c 1,13,-1
 56 664 l 1,0,1
EndSplineSet
EndChar

StartChar: asterisk
Encoding: 42 42 13
Width: 430
Flags: W
LayerCount: 2
Fore
SplineSet
361 496 m 1,0,-1
 245 549 l 1,1,-1
 361 603 l 1,2,-1
 334 649 l 1,3,-1
 231 577 l 1,4,-1
 241 702 l 1,5,-1
 189 702 l 1,6,-1
 199 577 l 1,7,-1
 96 649 l 1,8,-1
 69 603 l 1,9,-1
 185 549 l 1,10,-1
 69 496 l 1,11,-1
 96 449 l 1,12,-1
 199 522 l 1,13,-1
 189 397 l 1,14,-1
 241 397 l 1,15,-1
 231 522 l 1,16,-1
 334 449 l 1,17,-1
 361 496 l 1,0,-1
EndSplineSet
EndChar

StartChar: plus
Encoding: 43 43 14
Width: 640
Flags: W
LayerCount: 2
Fore
SplineSet
283 388 m 1,0,-1
 75 388 l 1,1,-1
 75 316 l 1,2,-1
 283 316 l 1,3,-1
 283 110 l 1,4,-1
 357 110 l 1,5,-1
 357 316 l 1,6,-1
 565 316 l 1,7,-1
 565 388 l 1,8,-1
 357 388 l 1,9,-1
 357 594 l 1,10,-1
 283 594 l 1,11,-1
 283 388 l 1,0,-1
EndSplineSet
EndChar

StartChar: comma
Encoding: 44 44 15
Width: 245
Flags: W
LayerCount: 2
Fore
SplineSet
46 -87 m 1,0,-1
 58 -122 l 1,1,2
 115 -109 115 -109 142 -77.5 c 128,-1,3
 169 -46 169 -46 169 15 c 2,4,-1
 169 105 l 1,5,-1
 77 105 l 1,6,-1
 77 0 l 1,7,-1
 113 0 l 1,8,9
 116 -32 116 -32 100 -52.5 c 128,-1,10
 84 -73 84 -73 46 -87 c 1,0,-1
EndSplineSet
EndChar

StartChar: hyphen
Encoding: 45 45 16
Width: 408
Flags: W
LayerCount: 2
Fore
SplineSet
343 260 m 1,0,-1
 343 341 l 1,1,-1
 65 341 l 1,2,-1
 65 260 l 1,3,-1
 343 260 l 1,0,-1
EndSplineSet
EndChar

StartChar: period
Encoding: 46 46 17
Width: 245
Flags: W
LayerCount: 2
Fore
SplineSet
169 0 m 1,0,-1
 169 105 l 1,1,-1
 77 105 l 1,2,-1
 77 0 l 1,3,-1
 169 0 l 1,0,-1
EndSplineSet
EndChar

StartChar: slash
Encoding: 47 47 18
Width: 508
Flags: W
LayerCount: 2
Fore
SplineSet
443 798 m 1,0,-1
 -21 -128 l 1,1,-1
 50 -128 l 1,2,-1
 514 798 l 1,3,-1
 443 798 l 1,0,-1
EndSplineSet
EndChar

StartChar: zero
Encoding: 48 48 19
Width: 715
Flags: W
LayerCount: 2
Fore
SplineSet
653 351 m 256,0,1
 653 425 653 425 632.5 490.5 c 128,-1,2
 612 556 612 556 573.5 605.5 c 128,-1,3
 535 655 535 655 480.5 683.5 c 128,-1,4
 426 712 426 712 359 712 c 0,5,6
 291 712 291 712 236 683 c 128,-1,7
 181 654 181 654 142.5 604.5 c 128,-1,8
 104 555 104 555 83 489 c 128,-1,9
 62 423 62 423 62 349 c 256,10,11
 62 275 62 275 82.5 209.5 c 128,-1,12
 103 144 103 144 141.5 94.5 c 128,-1,13
 180 45 180 45 234.5 16.5 c 128,-1,14
 289 -12 289 -12 357 -12 c 0,15,16
 424 -12 424 -12 479 17 c 128,-1,17
 534 46 534 46 572.5 95.5 c 128,-1,18
 611 145 611 145 632 211 c 128,-1,19
 653 277 653 277 653 351 c 256,0,1
571 349 m 256,20,21
 571 291 571 291 556.5 238.5 c 128,-1,22
 542 186 542 186 514.5 146.5 c 128,-1,23
 487 107 487 107 447.5 83.5 c 128,-1,24
 408 60 408 60 359 60 c 256,25,26
 310 60 310 60 270 83.5 c 128,-1,27
 230 107 230 107 202 147 c 128,-1,28
 174 187 174 187 159 240 c 128,-1,29
 144 293 144 293 144 351 c 256,30,31
 144 409 144 409 159 461.5 c 128,-1,32
 174 514 174 514 201.5 553.5 c 128,-1,33
 229 593 229 593 268.5 616.5 c 128,-1,34
 308 640 308 640 357 640 c 256,35,36
 406 640 406 640 445.5 616 c 128,-1,37
 485 592 485 592 513 552 c 128,-1,38
 541 512 541 512 556 459.5 c 128,-1,39
 571 407 571 407 571 349 c 256,20,21
EndSplineSet
EndChar

StartChar: one
Encoding: 49 49 20
Width: 358
Flags: W
LayerCount: 2
Fore
SplineSet
28 646 m 1,0,-1
 47 582 l 1,1,-1
 179 623 l 1,2,-1
 179 0 l 1,3,-1
 257 0 l 1,4,-1
 257 705 l 1,5,-1
 199 705 l 1,6,-1
 28 646 l 1,0,-1
EndSplineSet
EndChar

StartChar: two
Encoding: 50 50 21
Width: 599
Flags: W
LayerCount: 2
Fore
SplineSet
307 639 m 0,0,1
 335 639 335 639 361 629.5 c 128,-1,2
 387 620 387 620 406 602.5 c 128,-1,3
 425 585 425 585 436.5 560.5 c 128,-1,4
 448 536 448 536 448 505 c 0,5,6
 448 479 448 479 440.5 454.5 c 128,-1,7
 433 430 433 430 415.5 404.5 c 128,-1,8
 398 379 398 379 370 350 c 128,-1,9
 342 321 342 321 302 285 c 2,10,-1
 48 61 l 1,11,-1
 48 0 l 1,12,-1
 537 0 l 1,13,-1
 537 72 l 1,14,-1
 166 72 l 1,15,-1
 353 238 l 2,16,17
 399 278 399 278 432 311.5 c 128,-1,18
 465 345 465 345 487 376.5 c 128,-1,19
 509 408 509 408 519.5 440 c 128,-1,20
 530 472 530 472 530 511 c 0,21,22
 530 554 530 554 514 590.5 c 128,-1,23
 498 627 498 627 469 653.5 c 128,-1,24
 440 680 440 680 400.5 695 c 128,-1,25
 361 710 361 710 313 710 c 0,26,27
 267 710 267 710 230.5 700 c 128,-1,28
 194 690 194 690 164.5 671 c 128,-1,29
 135 652 135 652 110 624 c 128,-1,30
 85 596 85 596 61 561 c 1,31,-1
 119 519 l 1,32,33
 161 578 161 578 204 608.5 c 128,-1,34
 247 639 247 639 307 639 c 0,0,1
EndSplineSet
EndChar

StartChar: three
Encoding: 51 51 22
Width: 613
Flags: W
LayerCount: 2
Fore
SplineSet
429 629 m 1,0,-1
 208 380 l 1,1,-1
 224 333 l 1,2,-1
 269 333 l 2,3,4
 356 333 356 333 410.5 298 c 128,-1,5
 465 263 465 263 465 197 c 0,6,7
 465 166 465 166 453 140.5 c 128,-1,8
 441 115 441 115 420.5 97 c 128,-1,9
 400 79 400 79 372 69.5 c 128,-1,10
 344 60 344 60 312 60 c 0,11,12
 247 60 247 60 197.5 87 c 128,-1,13
 148 114 148 114 107 164 c 1,14,-1
 50 113 l 1,15,16
 93 57 93 57 158 22.5 c 128,-1,17
 223 -12 223 -12 311 -12 c 0,18,19
 360 -12 360 -12 402.5 3.5 c 128,-1,20
 445 19 445 19 476.5 47 c 128,-1,21
 508 75 508 75 526.5 114 c 128,-1,22
 545 153 545 153 545 200 c 0,23,24
 545 248 545 248 526 284 c 128,-1,25
 507 320 507 320 475.5 344 c 128,-1,26
 444 368 444 368 402 381 c 128,-1,27
 360 394 360 394 314 398 c 1,28,-1
 534 642 l 1,29,-1
 534 700 l 1,30,-1
 87 700 l 1,31,-1
 87 629 l 1,32,-1
 429 629 l 1,0,-1
EndSplineSet
EndChar

StartChar: four
Encoding: 52 52 23
Width: 671
Flags: W
LayerCount: 2
Fore
SplineSet
439 705 m 1,0,-1
 43 223 l 1,1,-1
 63 166 l 1,2,-1
 432 166 l 1,3,-1
 432 0 l 1,4,-1
 508 0 l 1,5,-1
 508 166 l 1,6,-1
 617 166 l 1,7,-1
 617 232 l 1,8,-1
 508 232 l 1,9,-1
 508 705 l 1,10,-1
 439 705 l 1,0,-1
432 232 m 1,11,-1
 138 232 l 1,12,-1
 432 593 l 1,13,-1
 432 232 l 1,11,-1
EndSplineSet
EndChar

StartChar: five
Encoding: 53 53 24
Width: 612
Flags: W
LayerCount: 2
Fore
SplineSet
99 359 m 1,0,-1
 152 324 l 1,1,2
 183 341 183 341 218.5 352.5 c 128,-1,3
 254 364 254 364 299 364 c 0,4,5
 338 364 338 364 370 353 c 128,-1,6
 402 342 402 342 425 322.5 c 128,-1,7
 448 303 448 303 460.5 276 c 128,-1,8
 473 249 473 249 473 216 c 0,9,10
 473 182 473 182 460.5 153.5 c 128,-1,11
 448 125 448 125 426 104 c 128,-1,12
 404 83 404 83 372.5 71.5 c 128,-1,13
 341 60 341 60 304 60 c 0,14,15
 250 60 250 60 200.5 85.5 c 128,-1,16
 151 111 151 111 105 156 c 1,17,-1
 53 99 l 1,18,19
 101 51 101 51 164.5 19.5 c 128,-1,20
 228 -12 228 -12 303 -12 c 0,21,22
 358 -12 358 -12 404 4.5 c 128,-1,23
 450 21 450 21 483 51.5 c 128,-1,24
 516 82 516 82 534.5 124.5 c 128,-1,25
 553 167 553 167 553 219 c 0,26,27
 553 269 553 269 534.5 309 c 128,-1,28
 516 349 516 349 483 376.5 c 128,-1,29
 450 404 450 404 406 419 c 128,-1,30
 362 434 362 434 311 434 c 0,31,32
 267 434 267 434 235.5 425.5 c 128,-1,33
 204 417 204 417 173 403 c 1,34,-1
 188 627 l 1,35,-1
 522 627 l 1,36,-1
 522 700 l 1,37,-1
 119 700 l 1,38,-1
 99 359 l 1,0,-1
EndSplineSet
EndChar

StartChar: six
Encoding: 54 54 25
Width: 647
Flags: W
LayerCount: 2
Fore
SplineSet
559 632 m 1,0,1
 513 670 513 670 464 691 c 128,-1,2
 415 712 415 712 352 712 c 0,3,4
 283 712 283 712 229 682.5 c 128,-1,5
 175 653 175 653 137.5 601.5 c 128,-1,6
 100 550 100 550 80.5 480.5 c 128,-1,7
 61 411 61 411 61 331 c 0,8,9
 61 277 61 277 67 235.5 c 128,-1,10
 73 194 73 194 84 162 c 128,-1,11
 95 130 95 130 111.5 105 c 128,-1,12
 128 80 128 80 149 59 c 0,13,14
 182 26 182 26 228.5 7 c 128,-1,15
 275 -12 275 -12 333 -12 c 0,16,17
 386 -12 386 -12 432 5.5 c 128,-1,18
 478 23 478 23 511.5 54 c 128,-1,19
 545 85 545 85 564.5 128 c 128,-1,20
 584 171 584 171 584 222 c 0,21,22
 584 271 584 271 564.5 311 c 128,-1,23
 545 351 545 351 512 379.5 c 128,-1,24
 479 408 479 408 435 423 c 128,-1,25
 391 438 391 438 342 438 c 0,26,27
 304 438 304 438 273.5 429 c 128,-1,28
 243 420 243 420 218.5 405.5 c 128,-1,29
 194 391 194 391 175.5 371.5 c 128,-1,30
 157 352 157 352 143 331 c 1,31,32
 143 399 143 399 157 455.5 c 128,-1,33
 171 512 171 512 197.5 553 c 128,-1,34
 224 594 224 594 262 617 c 128,-1,35
 300 640 300 640 348 640 c 256,36,37
 396 640 396 640 435 622 c 128,-1,38
 474 604 474 604 513 571 c 1,39,-1
 559 632 l 1,0,1
503 219 m 0,40,41
 503 185 503 185 491 155.5 c 128,-1,42
 479 126 479 126 457 104.5 c 128,-1,43
 435 83 435 83 404 70.5 c 128,-1,44
 373 58 373 58 334 58 c 256,45,46
 295 58 295 58 262.5 70 c 128,-1,47
 230 82 230 82 206.5 103 c 128,-1,48
 183 124 183 124 170 153 c 128,-1,49
 157 182 157 182 157 216 c 0,50,51
 157 246 157 246 169.5 273.5 c 128,-1,52
 182 301 182 301 205 322.5 c 128,-1,53
 228 344 228 344 260.5 357 c 128,-1,54
 293 370 293 370 332 370 c 0,55,56
 370 370 370 370 401.5 358.5 c 128,-1,57
 433 347 433 347 455.5 327 c 128,-1,58
 478 307 478 307 490.5 279.5 c 128,-1,59
 503 252 503 252 503 219 c 0,40,41
EndSplineSet
EndChar

StartChar: seven
Encoding: 55 55 26
Width: 596
Flags: W
LayerCount: 2
Fore
SplineSet
68 628 m 1,0,-1
 453 628 l 1,1,-1
 137 0 l 1,2,-1
 225 0 l 1,3,-1
 543 641 l 1,4,-1
 543 700 l 1,5,-1
 68 700 l 1,6,-1
 68 628 l 1,0,-1
EndSplineSet
EndChar

StartChar: eight
Encoding: 56 56 27
Width: 630
Flags: W
LayerCount: 2
Fore
SplineSet
578 190 m 0,0,1
 578 253 578 253 537.5 296 c 128,-1,2
 497 339 497 339 434 362 c 1,3,4
 458 373 458 373 480 388.5 c 128,-1,5
 502 404 502 404 518.5 423.5 c 128,-1,6
 535 443 535 443 544.5 468 c 128,-1,7
 554 493 554 493 554 524 c 0,8,9
 554 565 554 565 534.5 599 c 128,-1,10
 515 633 515 633 482.5 658 c 128,-1,11
 450 683 450 683 406.5 696.5 c 128,-1,12
 363 710 363 710 315 710 c 256,13,14
 267 710 267 710 223.5 696.5 c 128,-1,15
 180 683 180 683 147.5 658 c 128,-1,16
 115 633 115 633 95.5 599 c 128,-1,17
 76 565 76 565 76 524 c 0,18,19
 76 493 76 493 85.5 468 c 128,-1,20
 95 443 95 443 111.5 423.5 c 128,-1,21
 128 404 128 404 150 388.5 c 128,-1,22
 172 373 172 373 196 362 c 1,23,24
 133 339 133 339 92.5 295.5 c 128,-1,25
 52 252 52 252 52 189 c 0,26,27
 52 145 52 145 72 108 c 128,-1,28
 92 71 92 71 127.5 45 c 128,-1,29
 163 19 163 19 211 4.5 c 128,-1,30
 259 -10 259 -10 315 -10 c 256,31,32
 371 -10 371 -10 419 4.5 c 128,-1,33
 467 19 467 19 502.5 45 c 128,-1,34
 538 71 538 71 558 108 c 128,-1,35
 578 145 578 145 578 190 c 0,0,1
475 519 m 0,36,37
 475 490 475 490 462.5 466.5 c 128,-1,38
 450 443 450 443 428.5 426 c 128,-1,39
 407 409 407 409 377.5 399.5 c 128,-1,40
 348 390 348 390 315 390 c 256,41,42
 282 390 282 390 252.5 399.5 c 128,-1,43
 223 409 223 409 201.5 426 c 128,-1,44
 180 443 180 443 167.5 466.5 c 128,-1,45
 155 490 155 490 155 519 c 0,46,47
 155 546 155 546 167 568 c 128,-1,48
 179 590 179 590 200.5 606.5 c 128,-1,49
 222 623 222 623 251.5 632 c 128,-1,50
 281 641 281 641 315 641 c 256,51,52
 349 641 349 641 378.5 632 c 128,-1,53
 408 623 408 623 429.5 606.5 c 128,-1,54
 451 590 451 590 463 567.5 c 128,-1,55
 475 545 475 545 475 519 c 0,36,37
498 191 m 0,56,57
 498 164 498 164 485.5 140 c 128,-1,58
 473 116 473 116 449.5 98 c 128,-1,59
 426 80 426 80 392 69.5 c 128,-1,60
 358 59 358 59 315 59 c 256,61,62
 272 59 272 59 238 69.5 c 128,-1,63
 204 80 204 80 180.5 98 c 128,-1,64
 157 116 157 116 144.5 140 c 128,-1,65
 132 164 132 164 132 191 c 0,66,67
 132 221 132 221 146 245.5 c 128,-1,68
 160 270 160 270 185 287.5 c 128,-1,69
 210 305 210 305 243.5 315 c 128,-1,70
 277 325 277 325 315 325 c 256,71,72
 353 325 353 325 386.5 315 c 128,-1,73
 420 305 420 305 444.5 287.5 c 128,-1,74
 469 270 469 270 483.5 245.5 c 128,-1,75
 498 221 498 221 498 191 c 0,56,57
EndSplineSet
EndChar

StartChar: nine
Encoding: 57 57 28
Width: 647
Flags: W
LayerCount: 2
Fore
SplineSet
586 368 m 0,0,1
 586 421 586 421 580 462.5 c 128,-1,2
 574 504 574 504 563 536.5 c 128,-1,3
 552 569 552 569 536 594 c 128,-1,4
 520 619 520 619 499 640 c 0,5,6
 465 674 465 674 420 693 c 128,-1,7
 375 712 375 712 315 712 c 0,8,9
 259 712 259 712 212.5 693.5 c 128,-1,10
 166 675 166 675 133 642.5 c 128,-1,11
 100 610 100 610 81.5 566.5 c 128,-1,12
 63 523 63 523 63 473 c 0,13,14
 63 425 63 425 81 385 c 128,-1,15
 99 345 99 345 131 316 c 128,-1,16
 163 287 163 287 208 271 c 128,-1,17
 253 255 253 255 307 255 c 0,18,19
 380 255 380 255 428 288 c 128,-1,20
 476 321 476 321 505 367 c 1,21,22
 506 300 506 300 491.5 243.5 c 128,-1,23
 477 187 477 187 449.5 146.5 c 128,-1,24
 422 106 422 106 383 83 c 128,-1,25
 344 60 344 60 297 60 c 256,26,27
 250 60 250 60 209 78.5 c 128,-1,28
 168 97 168 97 125 135 c 1,29,-1
 79 74 l 1,30,31
 124 37 124 37 175 12.5 c 128,-1,32
 226 -12 226 -12 295 -12 c 0,33,34
 360 -12 360 -12 413.5 16 c 128,-1,35
 467 44 467 44 505.5 94.5 c 128,-1,36
 544 145 544 145 565 214.5 c 128,-1,37
 586 284 586 284 586 368 c 0,0,1
490 482 m 0,38,39
 490 452 490 452 478 423 c 128,-1,40
 466 394 466 394 443.5 372 c 128,-1,41
 421 350 421 350 388.5 336.5 c 128,-1,42
 356 323 356 323 316 323 c 0,43,44
 278 323 278 323 246 334.5 c 128,-1,45
 214 346 214 346 191.5 366.5 c 128,-1,46
 169 387 169 387 156.5 415 c 128,-1,47
 144 443 144 443 144 477 c 0,48,49
 144 510 144 510 155.5 540 c 128,-1,50
 167 570 167 570 188.5 592.5 c 128,-1,51
 210 615 210 615 241.5 628.5 c 128,-1,52
 273 642 273 642 312 642 c 256,53,54
 351 642 351 642 384 629.5 c 128,-1,55
 417 617 417 617 440.5 595.5 c 128,-1,56
 464 574 464 574 477 545 c 128,-1,57
 490 516 490 516 490 482 c 0,38,39
EndSplineSet
EndChar

StartChar: colon
Encoding: 58 58 29
Width: 255
Flags: W
LayerCount: 2
Fore
SplineSet
174 412 m 1,0,-1
 174 517 l 1,1,-1
 82 517 l 1,2,-1
 82 412 l 1,3,-1
 174 412 l 1,0,-1
174 0 m 1,4,-1
 174 105 l 1,5,-1
 82 105 l 1,6,-1
 82 0 l 1,7,-1
 174 0 l 1,4,-1
EndSplineSet
EndChar

StartChar: semicolon
Encoding: 59 59 30
Width: 255
Flags: W
LayerCount: 2
Fore
SplineSet
174 412 m 1,0,-1
 174 517 l 1,1,-1
 82 517 l 1,2,-1
 82 412 l 1,3,-1
 174 412 l 1,0,-1
51 -87 m 1,4,-1
 63 -122 l 1,5,6
 120 -109 120 -109 147 -77.5 c 128,-1,7
 174 -46 174 -46 174 15 c 2,8,-1
 174 105 l 1,9,-1
 82 105 l 1,10,-1
 82 0 l 1,11,-1
 118 0 l 1,12,13
 121 -32 121 -32 105 -52.5 c 128,-1,14
 89 -73 89 -73 51 -87 c 1,4,-1
EndSplineSet
EndChar

StartChar: less
Encoding: 60 60 31
Width: 640
Flags: W
LayerCount: 2
Fore
SplineSet
72 385 m 1,0,-1
 72 319 l 1,1,-1
 541 86 l 1,2,-1
 541 164 l 1,3,-1
 156 353 l 1,4,-1
 541 541 l 1,5,-1
 541 618 l 1,6,-1
 72 385 l 1,0,-1
EndSplineSet
EndChar

StartChar: equal
Encoding: 61 61 32
Width: 640
Flags: W
LayerCount: 2
Fore
SplineSet
90 506 m 1,0,-1
 90 432 l 1,1,-1
 550 432 l 1,2,-1
 550 506 l 1,3,-1
 90 506 l 1,0,-1
90 272 m 1,4,-1
 90 198 l 1,5,-1
 550 198 l 1,6,-1
 550 272 l 1,7,-1
 90 272 l 1,4,-1
EndSplineSet
EndChar

StartChar: greater
Encoding: 62 62 33
Width: 640
Flags: W
LayerCount: 2
Fore
SplineSet
568 319 m 1,0,-1
 568 385 l 1,1,-1
 99 618 l 1,2,-1
 99 540 l 1,3,-1
 484 351 l 1,4,-1
 99 163 l 1,5,-1
 99 86 l 1,6,-1
 568 319 l 1,0,-1
EndSplineSet
EndChar

StartChar: question
Encoding: 63 63 34
Width: 537
Flags: W
LayerCount: 2
Fore
SplineSet
210 365 m 1,0,-1
 205 360 l 1,1,-1
 220 198 l 1,2,-1
 271 198 l 1,3,-1
 281 306 l 1,4,5
 324 312 324 312 361.5 327 c 128,-1,6
 399 342 399 342 427.5 367 c 128,-1,7
 456 392 456 392 472.5 427.5 c 128,-1,8
 489 463 489 463 489 510 c 0,9,10
 489 553 489 553 473 589.5 c 128,-1,11
 457 626 457 626 427.5 652.5 c 128,-1,12
 398 679 398 679 357 694 c 128,-1,13
 316 709 316 709 265 709 c 0,14,15
 185 709 185 709 129 677 c 128,-1,16
 73 645 73 645 30 593 c 1,17,-1
 81 544 l 1,18,19
 119 589 119 589 163 613.5 c 128,-1,20
 207 638 207 638 263 638 c 0,21,22
 297 638 297 638 324 628 c 128,-1,23
 351 618 351 618 370 600 c 128,-1,24
 389 582 389 582 399 558 c 128,-1,25
 409 534 409 534 409 507 c 0,26,27
 409 443 409 443 358.5 405 c 128,-1,28
 308 367 308 367 210 365 c 1,0,-1
291 0 m 1,29,-1
 291 105 l 1,30,-1
 199 105 l 1,31,-1
 199 0 l 1,32,-1
 291 0 l 1,29,-1
EndSplineSet
EndChar

StartChar: at
Encoding: 64 64 35
Width: 980
Flags: W
LayerCount: 2
Fore
SplineSet
927 316 m 0,0,1
 927 394 927 394 893.5 466 c 128,-1,2
 860 538 860 538 801 592.5 c 128,-1,3
 742 647 742 647 662.5 679.5 c 128,-1,4
 583 712 583 712 491 712 c 256,5,6
 399 712 399 712 319 677 c 128,-1,7
 239 642 239 642 180 582.5 c 128,-1,8
 121 523 121 523 87 443.5 c 128,-1,9
 53 364 53 364 53 274 c 256,10,11
 53 184 53 184 86.5 105 c 128,-1,12
 120 26 120 26 180 -33.5 c 128,-1,13
 240 -93 240 -93 321.5 -127.5 c 128,-1,14
 403 -162 403 -162 499 -162 c 0,15,16
 577 -162 577 -162 641.5 -142 c 128,-1,17
 706 -122 706 -122 764 -87 c 1,18,-1
 748 -60 l 1,19,20
 690 -94 690 -94 632 -111 c 128,-1,21
 574 -128 574 -128 499 -128 c 0,22,23
 409 -128 409 -128 333.5 -96.5 c 128,-1,24
 258 -65 258 -65 204 -10.5 c 128,-1,25
 150 44 150 44 119.5 117 c 128,-1,26
 89 190 89 190 89 274 c 0,27,28
 89 357 89 357 119.5 430.5 c 128,-1,29
 150 504 150 504 204 559 c 128,-1,30
 258 614 258 614 331.5 646 c 128,-1,31
 405 678 405 678 491 678 c 256,32,33
 577 678 577 678 650 647.5 c 128,-1,34
 723 617 723 617 776.5 566 c 128,-1,35
 830 515 830 515 860.5 450 c 128,-1,36
 891 385 891 385 891 316 c 0,37,38
 891 263 891 263 879 224 c 128,-1,39
 867 185 867 185 847.5 159.5 c 128,-1,40
 828 134 828 134 803 122 c 128,-1,41
 778 110 778 110 751 110 c 0,42,43
 710 110 710 110 688 131.5 c 128,-1,44
 666 153 666 153 666 191 c 0,45,46
 666 199 666 199 667.5 215 c 128,-1,47
 669 231 669 231 673 252 c 2,48,-1
 713 479 l 1,49,-1
 646 488 l 1,50,-1
 633 419 l 1,51,52
 624 435 624 435 611 450 c 128,-1,53
 598 465 598 465 580 476.5 c 128,-1,54
 562 488 562 488 539 495 c 128,-1,55
 516 502 516 502 487 502 c 0,56,57
 445 502 445 502 403.5 483 c 128,-1,58
 362 464 362 464 329 430.5 c 128,-1,59
 296 397 296 397 276 351.5 c 128,-1,60
 256 306 256 306 256 253 c 0,61,62
 256 212 256 212 270 178.5 c 128,-1,63
 284 145 284 145 308.5 121 c 128,-1,64
 333 97 333 97 365.5 84 c 128,-1,65
 398 71 398 71 435 71 c 0,66,67
 491 71 491 71 531 95.5 c 128,-1,68
 571 120 571 120 600 155 c 1,69,70
 614 117 614 117 649.5 94 c 128,-1,71
 685 71 685 71 740 71 c 0,72,73
 774 71 774 71 808 85.5 c 128,-1,74
 842 100 842 100 868 130 c 128,-1,75
 894 160 894 160 910.5 206 c 128,-1,76
 927 252 927 252 927 316 c 0,0,1
614 313 m 0,77,78
 614 278 614 278 600.5 245.5 c 128,-1,79
 587 213 587 213 564.5 188 c 128,-1,80
 542 163 542 163 512 148 c 128,-1,81
 482 133 482 133 450 133 c 0,82,83
 396 133 396 133 362 165.5 c 128,-1,84
 328 198 328 198 328 258 c 0,85,86
 328 297 328 297 342 330 c 128,-1,87
 356 363 356 363 378.5 387.5 c 128,-1,88
 401 412 401 412 430.5 426 c 128,-1,89
 460 440 460 440 492 440 c 0,90,91
 518 440 518 440 540.5 430.5 c 128,-1,92
 563 421 563 421 579.5 404 c 128,-1,93
 596 387 596 387 605 363.5 c 128,-1,94
 614 340 614 340 614 313 c 0,77,78
EndSplineSet
EndChar

StartChar: A
Encoding: 65 65 36
Width: 790
Flags: W
LayerCount: 2
Fore
SplineSet
432 705 m 1,0,-1
 358 705 l 1,1,-1
 39 0 l 1,2,-1
 120 0 l 1,3,-1
 203 185 l 1,4,-1
 584 185 l 1,5,-1
 666 0 l 1,6,-1
 751 0 l 1,7,-1
 432 705 l 1,0,-1
553 256 m 1,8,-1
 234 256 l 1,9,-1
 394 613 l 1,10,-1
 553 256 l 1,8,-1
EndSplineSet
EndChar

StartChar: B
Encoding: 66 66 37
Width: 722
Flags: W
LayerCount: 2
Fore
SplineSet
397 700 m 2,0,-1
 99 700 l 1,1,-1
 99 0 l 1,2,-1
 410 0 l 2,3,4
 467 0 467 0 514 13 c 128,-1,5
 561 26 561 26 594.5 50.5 c 128,-1,6
 628 75 628 75 646 111 c 128,-1,7
 664 147 664 147 664 192 c 0,8,9
 664 228 664 228 652 256 c 128,-1,10
 640 284 640 284 620 304 c 128,-1,11
 600 324 600 324 572.5 338.5 c 128,-1,12
 545 353 545 353 514 362 c 1,13,14
 535 371 535 371 554.5 384.5 c 128,-1,15
 574 398 574 398 590 418 c 128,-1,16
 606 438 606 438 615.5 464 c 128,-1,17
 625 490 625 490 625 525 c 0,18,19
 625 565 625 565 609 597.5 c 128,-1,20
 593 630 593 630 563 652.5 c 128,-1,21
 533 675 533 675 491 687.5 c 128,-1,22
 449 700 449 700 397 700 c 2,0,-1
384 388 m 2,23,-1
 177 388 l 1,24,-1
 177 629 l 1,25,-1
 390 629 l 2,26,27
 465 629 465 629 505 598 c 128,-1,28
 545 567 545 567 545 514 c 0,29,30
 545 452 545 452 500 420 c 128,-1,31
 455 388 455 388 384 388 c 2,23,-1
412 71 m 2,32,-1
 177 71 l 1,33,-1
 177 318 l 1,34,-1
 398 318 l 2,35,36
 490 318 490 318 537 286.5 c 128,-1,37
 584 255 584 255 584 197 c 0,38,39
 584 137 584 137 538 104 c 128,-1,40
 492 71 492 71 412 71 c 2,32,-1
EndSplineSet
EndChar

StartChar: C
Encoding: 67 67 38
Width: 738
Flags: W
LayerCount: 2
Fore
SplineSet
699 111 m 1,0,-1
 647 162 l 1,1,2
 597 114 597 114 545 87.5 c 128,-1,3
 493 61 493 61 421 61 c 0,4,5
 363 61 363 61 313.5 83.5 c 128,-1,6
 264 106 264 106 227.5 145 c 128,-1,7
 191 184 191 184 170.5 237 c 128,-1,8
 150 290 150 290 150 351 c 256,9,10
 150 412 150 412 170.5 464.5 c 128,-1,11
 191 517 191 517 227.5 556 c 128,-1,12
 264 595 264 595 313.5 617 c 128,-1,13
 363 639 363 639 421 639 c 0,14,15
 493 639 493 639 544.5 612 c 128,-1,16
 596 585 596 585 641 543 c 1,17,-1
 695 601 l 1,18,19
 669 626 669 626 641 646.5 c 128,-1,20
 613 667 613 667 580 681.5 c 128,-1,21
 547 696 547 696 508.5 704 c 128,-1,22
 470 712 470 712 422 712 c 0,23,24
 345 712 345 712 280 683.5 c 128,-1,25
 215 655 215 655 168 605.5 c 128,-1,26
 121 556 121 556 94.5 490 c 128,-1,27
 68 424 68 424 68 349 c 0,28,29
 68 273 68 273 94.5 207 c 128,-1,30
 121 141 121 141 168 92.5 c 128,-1,31
 215 44 215 44 279 16 c 128,-1,32
 343 -12 343 -12 419 -12 c 0,33,34
 467 -12 467 -12 506 -3 c 128,-1,35
 545 6 545 6 579 22 c 128,-1,36
 613 38 613 38 642.5 60.5 c 128,-1,37
 672 83 672 83 699 111 c 1,0,-1
EndSplineSet
EndChar

StartChar: D
Encoding: 68 68 39
Width: 782
Flags: W
LayerCount: 2
Fore
SplineSet
714 351 m 256,0,1
 714 425 714 425 687 489 c 128,-1,2
 660 553 660 553 610.5 600 c 128,-1,3
 561 647 561 647 492.5 673.5 c 128,-1,4
 424 700 424 700 342 700 c 2,5,-1
 99 700 l 1,6,-1
 99 0 l 1,7,-1
 342 0 l 2,8,9
 424 0 424 0 492.5 27 c 128,-1,10
 561 54 561 54 610.5 101 c 128,-1,11
 660 148 660 148 687 212.5 c 128,-1,12
 714 277 714 277 714 351 c 256,0,1
632 349 m 0,13,14
 632 290 632 290 611.5 240 c 128,-1,15
 591 190 591 190 553.5 152.5 c 128,-1,16
 516 115 516 115 462 94 c 128,-1,17
 408 73 408 73 342 73 c 2,18,-1
 178 73 l 1,19,-1
 178 627 l 1,20,-1
 342 627 l 2,21,22
 408 627 408 627 462 605.5 c 128,-1,23
 516 584 516 584 553.5 546.5 c 128,-1,24
 591 509 591 509 611.5 458 c 128,-1,25
 632 407 632 407 632 349 c 0,13,14
EndSplineSet
EndChar

StartChar: E
Encoding: 69 69 40
Width: 670
Flags: W
LayerCount: 2
Fore
SplineSet
605 700 m 1,0,-1
 99 700 l 1,1,-1
 99 0 l 1,2,-1
 610 0 l 1,3,-1
 610 72 l 1,4,-1
 178 72 l 1,5,-1
 178 317 l 1,6,-1
 560 317 l 1,7,-1
 560 389 l 1,8,-1
 178 389 l 1,9,-1
 178 628 l 1,10,-1
 605 628 l 1,11,-1
 605 700 l 1,0,-1
EndSplineSet
EndChar

StartChar: F
Encoding: 70 70 41
Width: 656
Flags: W
LayerCount: 2
Fore
SplineSet
602 700 m 1,0,-1
 99 700 l 1,1,-1
 99 0 l 1,2,-1
 178 0 l 1,3,-1
 178 305 l 1,4,-1
 557 305 l 1,5,-1
 557 377 l 1,6,-1
 178 377 l 1,7,-1
 178 627 l 1,8,-1
 602 627 l 1,9,-1
 602 700 l 1,0,-1
EndSplineSet
EndChar

StartChar: G
Encoding: 71 71 42
Width: 784
Flags: W
LayerCount: 2
Fore
SplineSet
705 95 m 1,0,-1
 705 374 l 1,1,-1
 416 374 l 1,2,-1
 416 303 l 1,3,-1
 629 303 l 1,4,-1
 629 129 l 1,5,6
 593 100 593 100 540 79.5 c 128,-1,7
 487 59 487 59 427 59 c 0,8,9
 363 59 363 59 312 81 c 128,-1,10
 261 103 261 103 225 142 c 128,-1,11
 189 181 189 181 169.5 234.5 c 128,-1,12
 150 288 150 288 150 351 c 0,13,14
 150 410 150 410 170 462.5 c 128,-1,15
 190 515 190 515 225 554 c 128,-1,16
 260 593 260 593 309 616 c 128,-1,17
 358 639 358 639 416 639 c 0,18,19
 453 639 453 639 483.5 633 c 128,-1,20
 514 627 514 627 539.5 616.5 c 128,-1,21
 565 606 565 606 587 591.5 c 128,-1,22
 609 577 609 577 629 559 c 1,23,-1
 680 619 l 1,24,25
 654 641 654 641 626.5 658.5 c 128,-1,26
 599 676 599 676 567.5 688 c 128,-1,27
 536 700 536 700 499.5 706 c 128,-1,28
 463 712 463 712 419 712 c 0,29,30
 340 712 340 712 275.5 682.5 c 128,-1,31
 211 653 211 653 165 603 c 128,-1,32
 119 553 119 553 93.5 487 c 128,-1,33
 68 421 68 421 68 349 c 0,34,35
 68 274 68 274 92.5 208 c 128,-1,36
 117 142 117 142 163.5 93 c 128,-1,37
 210 44 210 44 275.5 16 c 128,-1,38
 341 -12 341 -12 424 -12 c 0,39,40
 513 -12 513 -12 584.5 19.5 c 128,-1,41
 656 51 656 51 705 95 c 1,0,-1
EndSplineSet
EndChar

StartChar: H
Encoding: 72 72 43
Width: 760
Flags: W
LayerCount: 2
Fore
SplineSet
582 315 m 1,0,-1
 582 0 l 1,1,-1
 661 0 l 1,2,-1
 661 700 l 1,3,-1
 582 700 l 1,4,-1
 582 389 l 1,5,-1
 178 389 l 1,6,-1
 178 700 l 1,7,-1
 99 700 l 1,8,-1
 99 0 l 1,9,-1
 178 0 l 1,10,-1
 178 315 l 1,11,-1
 582 315 l 1,0,-1
EndSplineSet
EndChar

StartChar: I
Encoding: 73 73 44
Width: 291
Flags: W
LayerCount: 2
Fore
SplineSet
106 700 m 1,0,-1
 106 0 l 1,1,-1
 185 0 l 1,2,-1
 185 700 l 1,3,-1
 106 700 l 1,0,-1
EndSplineSet
EndChar

StartChar: J
Encoding: 74 74 45
Width: 553
Flags: W
LayerCount: 2
Fore
SplineSet
465 232 m 2,0,-1
 465 700 l 1,1,-1
 385 700 l 1,2,-1
 385 231 l 2,3,4
 385 148 385 148 346 105.5 c 128,-1,5
 307 63 307 63 248 63 c 0,6,7
 193 63 193 63 156.5 88.5 c 128,-1,8
 120 114 120 114 88 163 c 1,9,-1
 31 114 l 1,10,11
 64 60 64 60 116 25 c 128,-1,12
 168 -10 168 -10 247 -10 c 0,13,14
 294 -10 294 -10 334 5 c 128,-1,15
 374 20 374 20 403 50.5 c 128,-1,16
 432 81 432 81 448.5 126.5 c 128,-1,17
 465 172 465 172 465 232 c 2,0,-1
EndSplineSet
EndChar

StartChar: K
Encoding: 75 75 46
Width: 719
Flags: W
LayerCount: 2
Fore
SplineSet
382 394 m 1,0,-1
 682 700 l 1,1,-1
 580 700 l 1,2,-1
 178 282 l 1,3,-1
 178 700 l 1,4,-1
 99 700 l 1,5,-1
 99 0 l 1,6,-1
 178 0 l 1,7,-1
 178 188 l 1,8,-1
 327 339 l 1,9,-1
 596 0 l 1,10,-1
 695 0 l 1,11,-1
 382 394 l 1,0,-1
EndSplineSet
EndChar

StartChar: L
Encoding: 76 76 47
Width: 619
Flags: W
LayerCount: 2
Fore
SplineSet
99 0 m 1,0,-1
 572 0 l 1,1,-1
 572 73 l 1,2,-1
 178 73 l 1,3,-1
 178 700 l 1,4,-1
 99 700 l 1,5,-1
 99 0 l 1,0,-1
EndSplineSet
EndChar

StartChar: M
Encoding: 77 77 48
Width: 868
Flags: W
LayerCount: 2
Fore
SplineSet
690 567 m 1,0,-1
 690 0 l 1,1,-1
 769 0 l 1,2,-1
 769 700 l 1,3,-1
 689 700 l 1,4,-1
 434 318 l 1,5,-1
 179 700 l 1,6,-1
 99 700 l 1,7,-1
 99 0 l 1,8,-1
 176 0 l 1,9,-1
 176 566 l 1,10,-1
 431 192 l 1,11,-1
 435 192 l 1,12,-1
 690 567 l 1,0,-1
EndSplineSet
EndChar

StartChar: N
Encoding: 78 78 49
Width: 790
Flags: W
LayerCount: 2
Fore
SplineSet
614 139 m 1,0,-1
 173 700 l 1,1,-1
 99 700 l 1,2,-1
 99 0 l 1,3,-1
 176 0 l 1,4,-1
 176 574 l 1,5,-1
 628 0 l 1,6,-1
 691 0 l 1,7,-1
 691 700 l 1,8,-1
 614 700 l 1,9,-1
 614 139 l 1,0,-1
EndSplineSet
EndChar

StartChar: O
Encoding: 79 79 50
Width: 850
Flags: W
LayerCount: 2
Fore
SplineSet
782 351 m 256,0,1
 782 424 782 424 756.5 489.5 c 128,-1,2
 731 555 731 555 684 604.5 c 128,-1,3
 637 654 637 654 571.5 683 c 128,-1,4
 506 712 506 712 426 712 c 256,5,6
 346 712 346 712 280 682.5 c 128,-1,7
 214 653 214 653 167 603 c 128,-1,8
 120 553 120 553 94 487.5 c 128,-1,9
 68 422 68 422 68 349 c 256,10,11
 68 276 68 276 93.5 210.5 c 128,-1,12
 119 145 119 145 166 95.5 c 128,-1,13
 213 46 213 46 278.5 17 c 128,-1,14
 344 -12 344 -12 424 -12 c 256,15,16
 504 -12 504 -12 570 17.5 c 128,-1,17
 636 47 636 47 683 97 c 128,-1,18
 730 147 730 147 756 212.5 c 128,-1,19
 782 278 782 278 782 351 c 256,0,1
700 349 m 256,20,21
 700 289 700 289 679.5 236.5 c 128,-1,22
 659 184 659 184 623 145 c 128,-1,23
 587 106 587 106 536.5 83.5 c 128,-1,24
 486 61 486 61 426 61 c 256,25,26
 366 61 366 61 315.5 84 c 128,-1,27
 265 107 265 107 228 146 c 128,-1,28
 191 185 191 185 170.5 238 c 128,-1,29
 150 291 150 291 150 351 c 256,30,31
 150 411 150 411 170.5 463.5 c 128,-1,32
 191 516 191 516 227 555 c 128,-1,33
 263 594 263 594 313.5 616.5 c 128,-1,34
 364 639 364 639 424 639 c 256,35,36
 484 639 484 639 534.5 616 c 128,-1,37
 585 593 585 593 622 554 c 128,-1,38
 659 515 659 515 679.5 462 c 128,-1,39
 700 409 700 409 700 349 c 256,20,21
EndSplineSet
EndChar

StartChar: P
Encoding: 80 80 51
Width: 668
Flags: W
LayerCount: 2
Fore
SplineSet
623 477 m 0,0,1
 623 529 623 529 604.5 570.5 c 128,-1,2
 586 612 586 612 551.5 640.5 c 128,-1,3
 517 669 517 669 468.5 684.5 c 128,-1,4
 420 700 420 700 361 700 c 2,5,-1
 99 700 l 1,6,-1
 99 0 l 1,7,-1
 178 0 l 1,8,-1
 178 247 l 1,9,-1
 348 247 l 2,10,11
 404 247 404 247 454 261.5 c 128,-1,12
 504 276 504 276 541.5 305 c 128,-1,13
 579 334 579 334 601 377 c 128,-1,14
 623 420 623 420 623 477 c 0,0,1
543 474 m 0,15,16
 543 439 543 439 529.5 410.5 c 128,-1,17
 516 382 516 382 490.5 361.5 c 128,-1,18
 465 341 465 341 429.5 330 c 128,-1,19
 394 319 394 319 351 319 c 2,20,-1
 178 319 l 1,21,-1
 178 627 l 1,22,-1
 355 627 l 2,23,24
 440 627 440 627 491.5 588.5 c 128,-1,25
 543 550 543 550 543 474 c 0,15,16
EndSplineSet
EndChar

StartChar: Q
Encoding: 81 81 52
Width: 850
Flags: W
LayerCount: 2
Fore
SplineSet
698 115 m 1,0,1
 739 163 739 163 760.5 224 c 128,-1,2
 782 285 782 285 782 351 c 0,3,4
 782 424 782 424 756.5 489.5 c 128,-1,5
 731 555 731 555 684 604.5 c 128,-1,6
 637 654 637 654 571.5 683 c 128,-1,7
 506 712 506 712 426 712 c 256,8,9
 346 712 346 712 280 682.5 c 128,-1,10
 214 653 214 653 167 603 c 128,-1,11
 120 553 120 553 94 487.5 c 128,-1,12
 68 422 68 422 68 349 c 256,13,14
 68 276 68 276 93.5 210.5 c 128,-1,15
 119 145 119 145 166 95.5 c 128,-1,16
 213 46 213 46 278.5 17 c 128,-1,17
 344 -12 344 -12 424 -12 c 0,18,19
 490 -12 490 -12 545 8 c 128,-1,20
 600 28 600 28 645 63 c 1,21,-1
 737 -21 l 1,22,-1
 791 38 l 1,23,-1
 698 115 l 1,0,1
587 114 m 1,24,25
 555 89 555 89 514 75 c 128,-1,26
 473 61 473 61 426 61 c 0,27,28
 366 61 366 61 315.5 84 c 128,-1,29
 265 107 265 107 228 146 c 128,-1,30
 191 185 191 185 170.5 238 c 128,-1,31
 150 291 150 291 150 351 c 256,32,33
 150 411 150 411 170.5 463.5 c 128,-1,34
 191 516 191 516 227 555 c 128,-1,35
 263 594 263 594 313.5 616.5 c 128,-1,36
 364 639 364 639 424 639 c 256,37,38
 484 639 484 639 534.5 616 c 128,-1,39
 585 593 585 593 622 554 c 128,-1,40
 659 515 659 515 679.5 462 c 128,-1,41
 700 409 700 409 700 349 c 0,42,43
 700 297 700 297 684 250.5 c 128,-1,44
 668 204 668 204 639 167 c 1,45,-1
 510 284 l 1,46,-1
 457 225 l 1,47,-1
 587 114 l 1,24,25
EndSplineSet
EndChar

StartChar: R
Encoding: 82 82 53
Width: 723
Flags: W
LayerCount: 2
Fore
SplineSet
678 0 m 1,0,-1
 463 286 l 1,1,2
 504 293 504 293 539 310 c 128,-1,3
 574 327 574 327 599.5 352.5 c 128,-1,4
 625 378 625 378 639 412.5 c 128,-1,5
 653 447 653 447 653 491 c 0,6,7
 653 538 653 538 635 576.5 c 128,-1,8
 617 615 617 615 584 642.5 c 128,-1,9
 551 670 551 670 504.5 685 c 128,-1,10
 458 700 458 700 400 700 c 2,11,-1
 99 700 l 1,12,-1
 99 0 l 1,13,-1
 178 0 l 1,14,-1
 178 272 l 1,15,-1
 378 272 l 1,16,-1
 581 0 l 1,17,-1
 678 0 l 1,0,-1
573 488 m 0,18,19
 573 454 573 454 559.5 427 c 128,-1,20
 546 400 546 400 522 381.5 c 128,-1,21
 498 363 498 363 465 353 c 128,-1,22
 432 343 432 343 393 343 c 2,23,-1
 178 343 l 1,24,-1
 178 627 l 1,25,-1
 394 627 l 2,26,27
 479 627 479 627 526 590.5 c 128,-1,28
 573 554 573 554 573 488 c 0,18,19
EndSplineSet
EndChar

StartChar: S
Encoding: 83 83 54
Width: 640
Flags: W
LayerCount: 2
Fore
SplineSet
160 525 m 0,0,1
 160 549 160 549 170.5 570 c 128,-1,2
 181 591 181 591 200.5 606 c 128,-1,3
 220 621 220 621 247.5 630 c 128,-1,4
 275 639 275 639 309 639 c 0,5,6
 363 639 363 639 412.5 621 c 128,-1,7
 462 603 462 603 511 563 c 1,8,-1
 557 624 l 1,9,10
 503 667 503 667 445.5 688.5 c 128,-1,11
 388 710 388 710 311 710 c 0,12,13
 261 710 261 710 219 695.5 c 128,-1,14
 177 681 177 681 146 655.5 c 128,-1,15
 115 630 115 630 98 595 c 128,-1,16
 81 560 81 560 81 518 c 0,17,18
 81 474 81 474 95 442 c 128,-1,19
 109 410 109 410 138 386 c 128,-1,20
 167 362 167 362 211.5 345 c 128,-1,21
 256 328 256 328 316 315 c 0,22,23
 371 303 371 303 406.5 290 c 128,-1,24
 442 277 442 277 462 261 c 128,-1,25
 482 245 482 245 490 225.5 c 128,-1,26
 498 206 498 206 498 181 c 0,27,28
 498 127 498 127 455.5 94 c 128,-1,29
 413 61 413 61 342 61 c 0,30,31
 269 61 269 61 213 85.5 c 128,-1,32
 157 110 157 110 102 160 c 1,33,-1
 53 102 l 1,34,35
 116 45 116 45 185.5 17.5 c 128,-1,36
 255 -10 255 -10 339 -10 c 0,37,38
 391 -10 391 -10 435 4 c 128,-1,39
 479 18 479 18 510.5 44 c 128,-1,40
 542 70 542 70 560 107 c 128,-1,41
 578 144 578 144 578 189 c 0,42,43
 578 270 578 270 522.5 316 c 128,-1,44
 467 362 467 362 350 388 c 0,45,46
 292 400 292 400 255 413.5 c 128,-1,47
 218 427 218 427 197 443.5 c 128,-1,48
 176 460 176 460 168 480 c 128,-1,49
 160 500 160 500 160 525 c 0,0,1
EndSplineSet
EndChar

StartChar: T
Encoding: 84 84 55
Width: 648
Flags: W
LayerCount: 2
Fore
SplineSet
364 627 m 1,0,-1
 599 627 l 1,1,-1
 599 700 l 1,2,-1
 49 700 l 1,3,-1
 49 627 l 1,4,-1
 284 627 l 1,5,-1
 284 0 l 1,6,-1
 364 0 l 1,7,-1
 364 627 l 1,0,-1
EndSplineSet
EndChar

StartChar: U
Encoding: 85 85 56
Width: 759
Flags: W
LayerCount: 2
Fore
SplineSet
671 700 m 1,0,-1
 592 700 l 1,1,-1
 592 293 l 2,2,3
 592 178 592 178 535 120 c 128,-1,4
 478 62 478 62 381 62 c 0,5,6
 280 62 280 62 223.5 123 c 128,-1,7
 167 184 167 184 167 298 c 2,8,-1
 167 700 l 1,9,-1
 88 700 l 1,10,-1
 88 293 l 2,11,12
 88 219 88 219 109 162 c 128,-1,13
 130 105 130 105 168.5 66.5 c 128,-1,14
 207 28 207 28 260.5 8.5 c 128,-1,15
 314 -11 314 -11 379 -11 c 0,16,17
 445 -11 445 -11 498.5 8.5 c 128,-1,18
 552 28 552 28 590.5 67 c 128,-1,19
 629 106 629 106 650 164 c 128,-1,20
 671 222 671 222 671 299 c 2,21,-1
 671 700 l 1,0,-1
EndSplineSet
EndChar

StartChar: V
Encoding: 86 86 57
Width: 750
Flags: W
LayerCount: 2
Fore
SplineSet
376 97 m 1,0,-1
 127 700 l 1,1,-1
 39 700 l 1,2,-1
 340 -5 l 1,3,-1
 410 -5 l 1,4,-1
 711 700 l 1,5,-1
 626 700 l 1,6,-1
 376 97 l 1,0,-1
EndSplineSet
EndChar

StartChar: W
Encoding: 87 87 58
Width: 1107
Flags: W
LayerCount: 2
Fore
SplineSet
331 117 m 1,0,-1
 131 700 l 1,1,-1
 45 700 l 1,2,-1
 295 -5 l 1,3,-1
 361 -5 l 1,4,-1
 554 563 l 1,5,-1
 746 -5 l 1,6,-1
 813 -5 l 1,7,-1
 1063 700 l 1,8,-1
 980 700 l 1,9,-1
 780 117 l 1,10,-1
 588 702 l 1,11,-1
 523 702 l 1,12,-1
 331 117 l 1,0,-1
EndSplineSet
EndChar

StartChar: X
Encoding: 88 88 59
Width: 725
Flags: W
LayerCount: 2
Fore
SplineSet
679 0 m 1,0,-1
 410 358 l 1,1,-1
 669 700 l 1,2,-1
 577 700 l 1,3,-1
 364 414 l 1,4,-1
 149 700 l 1,5,-1
 56 700 l 1,6,-1
 315 357 l 1,7,-1
 46 0 l 1,8,-1
 137 0 l 1,9,-1
 361 301 l 1,10,-1
 585 0 l 1,11,-1
 679 0 l 1,0,-1
EndSplineSet
EndChar

StartChar: Y
Encoding: 89 89 60
Width: 716
Flags: W
LayerCount: 2
Fore
SplineSet
398 278 m 1,0,-1
 689 700 l 1,1,-1
 597 700 l 1,2,-1
 359 350 l 1,3,-1
 123 700 l 1,4,-1
 27 700 l 1,5,-1
 318 277 l 1,6,-1
 318 0 l 1,7,-1
 398 0 l 1,8,-1
 398 278 l 1,0,-1
EndSplineSet
EndChar

StartChar: Z
Encoding: 90 90 61
Width: 693
Flags: W
LayerCount: 2
Fore
SplineSet
520 629 m 1,0,-1
 67 53 l 1,1,-1
 67 0 l 1,2,-1
 628 0 l 1,3,-1
 628 71 l 1,4,-1
 174 71 l 1,5,-1
 628 647 l 1,6,-1
 628 700 l 1,7,-1
 82 700 l 1,8,-1
 82 629 l 1,9,-1
 520 629 l 1,0,-1
EndSplineSet
EndChar

StartChar: bracketleft
Encoding: 91 91 62
Width: 439
Flags: W
LayerCount: 2
Fore
SplineSet
380 700 m 1,0,-1
 94 700 l 1,1,-1
 94 -130 l 1,2,-1
 380 -130 l 1,3,-1
 380 -70 l 1,4,-1
 167 -70 l 1,5,-1
 167 640 l 1,6,-1
 380 640 l 1,7,-1
 380 700 l 1,0,-1
EndSplineSet
EndChar

StartChar: backslash
Encoding: 92 92 63
Width: 508
Flags: W
LayerCount: 2
Fore
SplineSet
65 798 m 1,0,-1
 -6 798 l 1,1,-1
 458 -128 l 1,2,-1
 529 -128 l 1,3,-1
 65 798 l 1,0,-1
EndSplineSet
EndChar

StartChar: bracketright
Encoding: 93 93 64
Width: 439
Flags: W
LayerCount: 2
Fore
SplineSet
59 700 m 1,0,-1
 59 640 l 1,1,-1
 273 640 l 1,2,-1
 273 -70 l 1,3,-1
 59 -70 l 1,4,-1
 59 -130 l 1,5,-1
 345 -130 l 1,6,-1
 345 700 l 1,7,-1
 59 700 l 1,0,-1
EndSplineSet
EndChar

StartChar: asciicircum
Encoding: 94 94 65
Width: 500
Flags: W
LayerCount: 2
Fore
SplineSet
249 647 m 1,0,-1
 367 493 l 1,1,-1
 435 493 l 1,2,-1
 280 702 l 1,3,-1
 220 702 l 1,4,-1
 65 493 l 1,5,-1
 131 493 l 1,6,-1
 249 647 l 1,0,-1
EndSplineSet
EndChar

StartChar: underscore
Encoding: 95 95 66
Width: 600
Flags: W
LayerCount: 2
Fore
SplineSet
-2 -97 m 1,0,-1
 -2 -160 l 1,1,-1
 602 -160 l 1,2,-1
 602 -97 l 1,3,-1
 -2 -97 l 1,0,-1
EndSplineSet
EndChar

StartChar: grave
Encoding: 96 96 67
Width: 500
Flags: W
LayerCount: 2
Fore
SplineSet
257 595 m 1,0,-1
 319 595 l 1,1,-1
 224 740 l 1,2,-1
 144 703 l 1,3,-1
 257 595 l 1,0,-1
EndSplineSet
EndChar

StartChar: a
Encoding: 97 97 68
Width: 579
Flags: W
LayerCount: 2
Fore
SplineSet
273 456 m 0,0,1
 346 456 346 456 386.5 420.5 c 128,-1,2
 427 385 427 385 427 315 c 2,3,-1
 427 297 l 1,4,5
 392 307 392 307 355 313 c 128,-1,6
 318 319 318 319 268 319 c 0,7,8
 219 319 219 319 178.5 308 c 128,-1,9
 138 297 138 297 108.5 276 c 128,-1,10
 79 255 79 255 63 223.5 c 128,-1,11
 47 192 47 192 47 151 c 256,12,13
 47 110 47 110 63.5 80 c 128,-1,14
 80 50 80 50 107.5 29.5 c 128,-1,15
 135 9 135 9 169.5 -1 c 128,-1,16
 204 -11 204 -11 240 -11 c 0,17,18
 309 -11 309 -11 354.5 16 c 128,-1,19
 400 43 400 43 427 78 c 1,20,-1
 427 0 l 1,21,-1
 501 0 l 1,22,-1
 501 316 l 2,23,24
 501 419 501 419 444 471.5 c 128,-1,25
 387 524 387 524 281 524 c 0,26,27
 224 524 224 524 180 512.5 c 128,-1,28
 136 501 136 501 93 481 c 1,29,-1
 116 418 l 1,30,31
 152 435 152 435 189.5 445.5 c 128,-1,32
 227 456 227 456 273 456 c 0,0,1
276 262 m 0,33,34
 324 262 324 262 361.5 255 c 128,-1,35
 399 248 399 248 428 240 c 1,36,-1
 428 190 l 2,37,38
 428 159 428 159 414.5 133.5 c 128,-1,39
 401 108 401 108 377.5 89.5 c 128,-1,40
 354 71 354 71 322.5 60.5 c 128,-1,41
 291 50 291 50 255 50 c 0,42,43
 229 50 229 50 205.5 57 c 128,-1,44
 182 64 182 64 164 77.5 c 128,-1,45
 146 91 146 91 135.5 110 c 128,-1,46
 125 129 125 129 125 154 c 0,47,48
 125 204 125 204 164 233 c 128,-1,49
 203 262 203 262 276 262 c 0,33,34
EndSplineSet
EndChar

StartChar: b
Encoding: 98 98 69
Width: 664
Flags: W
LayerCount: 2
Fore
SplineSet
608 259 m 256,0,1
 608 323 608 323 587 373 c 128,-1,2
 566 423 566 423 531 457.5 c 128,-1,3
 496 492 496 492 451.5 510 c 128,-1,4
 407 528 407 528 361 528 c 0,5,6
 325 528 325 528 295.5 518.5 c 128,-1,7
 266 509 266 509 242 493.5 c 128,-1,8
 218 478 218 478 198.5 457 c 128,-1,9
 179 436 179 436 163 413 c 1,10,-1
 163 730 l 1,11,-1
 86 730 l 1,12,-1
 86 0 l 1,13,-1
 163 0 l 1,14,-1
 163 99 l 1,15,16
 178 77 178 77 197.5 57 c 128,-1,17
 217 37 217 37 241 22 c 128,-1,18
 265 7 265 7 295 -2 c 128,-1,19
 325 -11 325 -11 361 -11 c 0,20,21
 408 -11 408 -11 452.5 7.5 c 128,-1,22
 497 26 497 26 531.5 60.5 c 128,-1,23
 566 95 566 95 587 145 c 128,-1,24
 608 195 608 195 608 259 c 256,0,1
529 258 m 0,25,26
 529 211 529 211 514.5 173.5 c 128,-1,27
 500 136 500 136 475.5 110.5 c 128,-1,28
 451 85 451 85 417.5 71.5 c 128,-1,29
 384 58 384 58 347 58 c 0,30,31
 311 58 311 58 277.5 72.5 c 128,-1,32
 244 87 244 87 217.5 113 c 128,-1,33
 191 139 191 139 175.5 176.5 c 128,-1,34
 160 214 160 214 160 259 c 256,35,36
 160 304 160 304 175.5 341 c 128,-1,37
 191 378 191 378 217.5 404 c 128,-1,38
 244 430 244 430 277.5 444.5 c 128,-1,39
 311 459 311 459 347 459 c 0,40,41
 384 459 384 459 417 445 c 128,-1,42
 450 431 450 431 475 404.5 c 128,-1,43
 500 378 500 378 514.5 341 c 128,-1,44
 529 304 529 304 529 258 c 0,25,26
EndSplineSet
EndChar

StartChar: c
Encoding: 99 99 70
Width: 571
Flags: W
LayerCount: 2
Fore
SplineSet
530 88 m 1,0,-1
 481 134 l 1,1,2
 450 101 450 101 411.5 79 c 128,-1,3
 373 57 373 57 323 57 c 0,4,5
 282 57 282 57 247.5 72.5 c 128,-1,6
 213 88 213 88 187.5 115.5 c 128,-1,7
 162 143 162 143 147.5 180 c 128,-1,8
 133 217 133 217 133 259 c 256,9,10
 133 301 133 301 147 337.5 c 128,-1,11
 161 374 161 374 186 401.5 c 128,-1,12
 211 429 211 429 245 444.5 c 128,-1,13
 279 460 279 460 318 460 c 0,14,15
 371 460 371 460 407.5 437 c 128,-1,16
 444 414 444 414 475 382 c 1,17,-1
 526 436 l 1,18,19
 508 455 508 455 487 472 c 128,-1,20
 466 489 466 489 441 501.5 c 128,-1,21
 416 514 416 514 386 521 c 128,-1,22
 356 528 356 528 319 528 c 0,23,24
 262 528 262 528 213.5 506.5 c 128,-1,25
 165 485 165 485 129.5 448 c 128,-1,26
 94 411 94 411 74 361.5 c 128,-1,27
 54 312 54 312 54 257 c 256,28,29
 54 202 54 202 74 153 c 128,-1,30
 94 104 94 104 129.5 67.5 c 128,-1,31
 165 31 165 31 213.5 9.5 c 128,-1,32
 262 -12 262 -12 319 -12 c 0,33,34
 392 -12 392 -12 441.5 16 c 128,-1,35
 491 44 491 44 530 88 c 1,0,-1
EndSplineSet
EndChar

StartChar: d
Encoding: 100 100 71
Width: 664
Flags: W
LayerCount: 2
Fore
SplineSet
578 0 m 1,0,-1
 578 730 l 1,1,-1
 501 730 l 1,2,-1
 501 418 l 1,3,4
 486 440 486 440 466.5 460 c 128,-1,5
 447 480 447 480 423 495 c 128,-1,6
 399 510 399 510 369 519 c 128,-1,7
 339 528 339 528 303 528 c 0,8,9
 256 528 256 528 212 509.5 c 128,-1,10
 168 491 168 491 133 456.5 c 128,-1,11
 98 422 98 422 77 372 c 128,-1,12
 56 322 56 322 56 258 c 256,13,14
 56 194 56 194 77 144 c 128,-1,15
 98 94 98 94 133 59.5 c 128,-1,16
 168 25 168 25 212 7 c 128,-1,17
 256 -11 256 -11 303 -11 c 0,18,19
 339 -11 339 -11 368.5 -2 c 128,-1,20
 398 7 398 7 422 23 c 128,-1,21
 446 39 446 39 465.5 60 c 128,-1,22
 485 81 485 81 501 104 c 1,23,-1
 501 0 l 1,24,-1
 578 0 l 1,0,-1
504 259 m 256,25,26
 504 214 504 214 488.5 176.5 c 128,-1,27
 473 139 473 139 446.5 113 c 128,-1,28
 420 87 420 87 386.5 72.5 c 128,-1,29
 353 58 353 58 317 58 c 0,30,31
 280 58 280 58 247 72 c 128,-1,32
 214 86 214 86 189 112.5 c 128,-1,33
 164 139 164 139 149.5 176 c 128,-1,34
 135 213 135 213 135 259 c 0,35,36
 135 306 135 306 149.5 343.5 c 128,-1,37
 164 381 164 381 188.5 406.5 c 128,-1,38
 213 432 213 432 246 445.5 c 128,-1,39
 279 459 279 459 317 459 c 0,40,41
 353 459 353 459 386.5 444.5 c 128,-1,42
 420 430 420 430 446.5 404 c 128,-1,43
 473 378 473 378 488.5 341 c 128,-1,44
 504 304 504 304 504 259 c 256,25,26
EndSplineSet
EndChar

StartChar: e
Encoding: 101 101 72
Width: 592
Flags: W
LayerCount: 2
Fore
SplineSet
132 230 m 1,0,-1
 542 230 l 1,1,2
 543 237 543 237 543 243 c 256,3,4
 543 249 543 249 543 254 c 0,5,6
 543 311 543 311 527 361 c 128,-1,7
 511 411 511 411 480 448 c 128,-1,8
 449 485 449 485 404 506.5 c 128,-1,9
 359 528 359 528 302 528 c 0,10,11
 248 528 248 528 202.5 507 c 128,-1,12
 157 486 157 486 124 449.5 c 128,-1,13
 91 413 91 413 72.5 363.5 c 128,-1,14
 54 314 54 314 54 258 c 0,15,16
 54 198 54 198 74.5 148 c 128,-1,17
 95 98 95 98 130 62.5 c 128,-1,18
 165 27 165 27 212 7.5 c 128,-1,19
 259 -12 259 -12 312 -12 c 0,20,21
 386 -12 386 -12 436 14.5 c 128,-1,22
 486 41 486 41 525 85 c 1,23,-1
 477 128 l 1,24,25
 445 95 445 95 406.5 75 c 128,-1,26
 368 55 368 55 314 55 c 0,27,28
 280 55 280 55 249 66.5 c 128,-1,29
 218 78 218 78 193 100.5 c 128,-1,30
 168 123 168 123 152 155.5 c 128,-1,31
 136 188 136 188 132 230 c 1,0,-1
132 287 m 1,32,33
 136 325 136 325 150 357 c 128,-1,34
 164 389 164 389 186 412.5 c 128,-1,35
 208 436 208 436 237 449.5 c 128,-1,36
 266 463 266 463 300 463 c 0,37,38
 339 463 339 463 368.5 448.5 c 128,-1,39
 398 434 398 434 418.5 410 c 128,-1,40
 439 386 439 386 450.5 354 c 128,-1,41
 462 322 462 322 465 287 c 1,42,-1
 132 287 l 1,32,33
EndSplineSet
EndChar

StartChar: f
Encoding: 102 102 73
Width: 367
Flags: W
LayerCount: 2
Fore
SplineSet
191 515 m 1,0,-1
 191 557 l 2,1,2
 191 667 191 667 281 667 c 0,3,4
 301 667 301 667 318 663.5 c 128,-1,5
 335 660 335 660 356 654 c 1,6,-1
 356 721 l 1,7,8
 337 728 337 728 317.5 731 c 128,-1,9
 298 734 298 734 271 734 c 0,10,11
 196 734 196 734 155.5 690 c 128,-1,12
 115 646 115 646 115 561 c 2,13,-1
 115 516 l 1,14,-1
 44 516 l 1,15,-1
 44 449 l 1,16,-1
 115 449 l 1,17,-1
 115 0 l 1,18,-1
 192 0 l 1,19,-1
 192 449 l 1,20,-1
 355 449 l 1,21,-1
 355 515 l 1,22,-1
 191 515 l 1,0,-1
EndSplineSet
EndChar

StartChar: g
Encoding: 103 103 74
Width: 664
Flags: W
LayerCount: 2
Fore
SplineSet
578 90 m 2,0,-1
 578 517 l 1,1,-1
 501 517 l 1,2,-1
 501 424 l 1,3,4
 485 445 485 445 465 464 c 128,-1,5
 445 483 445 483 420.5 497 c 128,-1,6
 396 511 396 511 365.5 519.5 c 128,-1,7
 335 528 335 528 299 528 c 0,8,9
 253 528 253 528 209 511 c 128,-1,10
 165 494 165 494 131 462.5 c 128,-1,11
 97 431 97 431 76.5 385.5 c 128,-1,12
 56 340 56 340 56 283 c 256,13,14
 56 226 56 226 76.5 181 c 128,-1,15
 97 136 97 136 131 104.5 c 128,-1,16
 165 73 165 73 208.5 56.5 c 128,-1,17
 252 40 252 40 299 40 c 0,18,19
 370 40 370 40 419 72 c 128,-1,20
 468 104 468 104 502 149 c 1,21,-1
 502 88 l 2,22,23
 502 -3 502 -3 451 -49.5 c 128,-1,24
 400 -96 400 -96 314 -96 c 0,25,26
 258 -96 258 -96 209 -79 c 128,-1,27
 160 -62 160 -62 115 -30 c 1,28,-1
 80 -90 l 1,29,30
 132 -126 132 -126 191 -144 c 128,-1,31
 250 -162 250 -162 315 -162 c 0,32,33
 375 -162 375 -162 423.5 -146 c 128,-1,34
 472 -130 472 -130 506.5 -98.5 c 128,-1,35
 541 -67 541 -67 559.5 -20 c 128,-1,36
 578 27 578 27 578 90 c 2,0,-1
504 284 m 256,37,38
 504 244 504 244 488 211.5 c 128,-1,39
 472 179 472 179 445.5 156 c 128,-1,40
 419 133 419 133 385 120.5 c 128,-1,41
 351 108 351 108 314 108 c 0,42,43
 278 108 278 108 245.5 120.5 c 128,-1,44
 213 133 213 133 188.5 156.5 c 128,-1,45
 164 180 164 180 149.5 212.5 c 128,-1,46
 135 245 135 245 135 285 c 256,47,48
 135 325 135 325 149 357.5 c 128,-1,49
 163 390 163 390 187.5 413 c 128,-1,50
 212 436 212 436 244.5 448 c 128,-1,51
 277 460 277 460 314 460 c 256,52,53
 351 460 351 460 385 447.5 c 128,-1,54
 419 435 419 435 445.5 412 c 128,-1,55
 472 389 472 389 488 356.5 c 128,-1,56
 504 324 504 324 504 284 c 256,37,38
EndSplineSet
EndChar

StartChar: h
Encoding: 104 104 75
Width: 616
Flags: W
LayerCount: 2
Fore
SplineSet
163 296 m 2,0,1
 163 332 163 332 174.5 362 c 128,-1,2
 186 392 186 392 207 413.5 c 128,-1,3
 228 435 228 435 256.5 446.5 c 128,-1,4
 285 458 285 458 318 458 c 0,5,6
 387 458 387 458 424 416 c 128,-1,7
 461 374 461 374 461 302 c 2,8,-1
 461 0 l 1,9,-1
 538 0 l 1,10,-1
 538 321 l 2,11,12
 538 367 538 367 524.5 405 c 128,-1,13
 511 443 511 443 485.5 470.5 c 128,-1,14
 460 498 460 498 423.5 513 c 128,-1,15
 387 528 387 528 340 528 c 0,16,17
 273 528 273 528 231 498.5 c 128,-1,18
 189 469 189 469 163 427 c 1,19,-1
 163 730 l 1,20,-1
 86 730 l 1,21,-1
 86 0 l 1,22,-1
 163 0 l 1,23,-1
 163 296 l 2,0,1
EndSplineSet
EndChar

StartChar: i
Encoding: 105 105 76
Width: 263
Flags: W
LayerCount: 2
Fore
SplineSet
176 630 m 1,0,-1
 176 715 l 1,1,-1
 88 715 l 1,2,-1
 88 630 l 1,3,-1
 176 630 l 1,0,-1
170 0 m 1,4,-1
 170 517 l 1,5,-1
 93 517 l 1,6,-1
 93 0 l 1,7,-1
 170 0 l 1,4,-1
EndSplineSet
EndChar

StartChar: j
Encoding: 106 106 77
Width: 263
Flags: W
LayerCount: 2
Fore
SplineSet
176 630 m 1,0,-1
 176 715 l 1,1,-1
 88 715 l 1,2,-1
 88 630 l 1,3,-1
 176 630 l 1,0,-1
93 517 m 1,4,-1
 93 -29 l 2,5,6
 93 -65 93 -65 76.5 -81.5 c 128,-1,7
 60 -98 60 -98 34 -98 c 0,8,9
 26 -98 26 -98 15.5 -97.5 c 128,-1,10
 5 -97 5 -97 -4 -95 c 1,11,-1
 -4 -158 l 1,12,13
 9 -161 9 -161 19.5 -162 c 128,-1,14
 30 -163 30 -163 44 -163 c 0,15,16
 103 -163 103 -163 136.5 -131 c 128,-1,17
 170 -99 170 -99 170 -30 c 2,18,-1
 170 517 l 1,19,-1
 93 517 l 1,4,-1
EndSplineSet
EndChar

StartChar: k
Encoding: 107 107 78
Width: 569
Flags: W
LayerCount: 2
Fore
SplineSet
321 295 m 1,0,-1
 538 517 l 1,1,-1
 442 517 l 1,2,-1
 163 226 l 1,3,-1
 163 730 l 1,4,-1
 86 730 l 1,5,-1
 86 0 l 1,6,-1
 163 0 l 1,7,-1
 163 135 l 1,8,-1
 268 241 l 1,9,-1
 453 0 l 1,10,-1
 545 0 l 1,11,-1
 321 295 l 1,0,-1
EndSplineSet
EndChar

StartChar: l
Encoding: 108 108 79
Width: 263
Flags: W
LayerCount: 2
Fore
SplineSet
170 0 m 1,0,-1
 170 730 l 1,1,-1
 93 730 l 1,2,-1
 93 0 l 1,3,-1
 170 0 l 1,0,-1
EndSplineSet
EndChar

StartChar: m
Encoding: 109 109 80
Width: 951
Flags: W
LayerCount: 2
Fore
SplineSet
496 425 m 1,0,1
 475 469 475 469 434 498.5 c 128,-1,2
 393 528 393 528 330 528 c 0,3,4
 297 528 297 528 272 520 c 128,-1,5
 247 512 247 512 227 498.5 c 128,-1,6
 207 485 207 485 191.5 467 c 128,-1,7
 176 449 176 449 163 430 c 1,8,-1
 163 517 l 1,9,-1
 86 517 l 1,10,-1
 86 0 l 1,11,-1
 163 0 l 1,12,-1
 163 295 l 2,13,14
 163 331 163 331 174 360.5 c 128,-1,15
 185 390 185 390 204.5 412 c 128,-1,16
 224 434 224 434 250 446 c 128,-1,17
 276 458 276 458 307 458 c 0,18,19
 369 458 369 458 404.5 417.5 c 128,-1,20
 440 377 440 377 440 304 c 2,21,-1
 440 0 l 1,22,-1
 516 0 l 1,23,-1
 516 298 l 2,24,25
 516 336 516 336 527.5 366 c 128,-1,26
 539 396 539 396 558.5 416.5 c 128,-1,27
 578 437 578 437 604 447.5 c 128,-1,28
 630 458 630 458 659 458 c 0,29,30
 722 458 722 458 757.5 417.5 c 128,-1,31
 793 377 793 377 793 302 c 2,32,-1
 793 0 l 1,33,-1
 870 0 l 1,34,-1
 870 320 l 2,35,36
 870 417 870 417 819 472.5 c 128,-1,37
 768 528 768 528 678 528 c 0,38,39
 644 528 644 528 616.5 520 c 128,-1,40
 589 512 589 512 567 498 c 128,-1,41
 545 484 545 484 527.5 465 c 128,-1,42
 510 446 510 446 496 425 c 1,0,1
EndSplineSet
EndChar

StartChar: n
Encoding: 110 110 81
Width: 616
Flags: W
LayerCount: 2
Fore
SplineSet
163 296 m 2,0,1
 163 332 163 332 174.5 362 c 128,-1,2
 186 392 186 392 207 413.5 c 128,-1,3
 228 435 228 435 256.5 446.5 c 128,-1,4
 285 458 285 458 318 458 c 0,5,6
 387 458 387 458 424 416 c 128,-1,7
 461 374 461 374 461 302 c 2,8,-1
 461 0 l 1,9,-1
 538 0 l 1,10,-1
 538 321 l 2,11,12
 538 367 538 367 524.5 405 c 128,-1,13
 511 443 511 443 485.5 470.5 c 128,-1,14
 460 498 460 498 423.5 513 c 128,-1,15
 387 528 387 528 340 528 c 0,16,17
 273 528 273 528 231 498.5 c 128,-1,18
 189 469 189 469 163 427 c 1,19,-1
 163 517 l 1,20,-1
 86 517 l 1,21,-1
 86 0 l 1,22,-1
 163 0 l 1,23,-1
 163 296 l 2,0,1
EndSplineSet
EndChar

StartChar: o
Encoding: 111 111 82
Width: 646
Flags: W
LayerCount: 2
Fore
SplineSet
593 259 m 256,0,1
 593 314 593 314 573 363 c 128,-1,2
 553 412 553 412 517 448.5 c 128,-1,3
 481 485 481 485 431.5 506.5 c 128,-1,4
 382 528 382 528 324 528 c 0,5,6
 265 528 265 528 215.5 506.5 c 128,-1,7
 166 485 166 485 130 448 c 128,-1,8
 94 411 94 411 74 361.5 c 128,-1,9
 54 312 54 312 54 257 c 256,10,11
 54 202 54 202 74 153 c 128,-1,12
 94 104 94 104 130 67.5 c 128,-1,13
 166 31 166 31 215 9.5 c 128,-1,14
 264 -12 264 -12 322 -12 c 256,15,16
 380 -12 380 -12 430 9.5 c 128,-1,17
 480 31 480 31 516 68 c 128,-1,18
 552 105 552 105 572.5 154.5 c 128,-1,19
 593 204 593 204 593 259 c 256,0,1
514 257 m 256,20,21
 514 215 514 215 500 178.5 c 128,-1,22
 486 142 486 142 461 115 c 128,-1,23
 436 88 436 88 401 72.5 c 128,-1,24
 366 57 366 57 324 57 c 0,25,26
 283 57 283 57 248 73 c 128,-1,27
 213 89 213 89 187.5 116 c 128,-1,28
 162 143 162 143 147.5 180 c 128,-1,29
 133 217 133 217 133 259 c 256,30,31
 133 301 133 301 147 337.5 c 128,-1,32
 161 374 161 374 185.5 401.5 c 128,-1,33
 210 429 210 429 245 444.5 c 128,-1,34
 280 460 280 460 322 460 c 0,35,36
 363 460 363 460 398 444 c 128,-1,37
 433 428 433 428 459 400.5 c 128,-1,38
 485 373 485 373 499.5 336 c 128,-1,39
 514 299 514 299 514 257 c 256,20,21
EndSplineSet
EndChar

StartChar: p
Encoding: 112 112 83
Width: 664
Flags: W
LayerCount: 2
Fore
SplineSet
608 259 m 256,0,1
 608 323 608 323 587 373 c 128,-1,2
 566 423 566 423 531 457.5 c 128,-1,3
 496 492 496 492 451.5 510 c 128,-1,4
 407 528 407 528 361 528 c 0,5,6
 325 528 325 528 295.5 518.5 c 128,-1,7
 266 509 266 509 242 493.5 c 128,-1,8
 218 478 218 478 198.5 457 c 128,-1,9
 179 436 179 436 163 413 c 1,10,-1
 163 517 l 1,11,-1
 86 517 l 1,12,-1
 86 -160 l 1,13,-1
 163 -160 l 1,14,-1
 163 99 l 1,15,16
 178 77 178 77 197.5 57 c 128,-1,17
 217 37 217 37 241 22 c 128,-1,18
 265 7 265 7 295 -2 c 128,-1,19
 325 -11 325 -11 361 -11 c 0,20,21
 408 -11 408 -11 452.5 7.5 c 128,-1,22
 497 26 497 26 531.5 60.5 c 128,-1,23
 566 95 566 95 587 145 c 128,-1,24
 608 195 608 195 608 259 c 256,0,1
529 258 m 0,25,26
 529 211 529 211 514.5 173.5 c 128,-1,27
 500 136 500 136 475.5 110.5 c 128,-1,28
 451 85 451 85 417.5 71.5 c 128,-1,29
 384 58 384 58 347 58 c 0,30,31
 311 58 311 58 277.5 72.5 c 128,-1,32
 244 87 244 87 217.5 113 c 128,-1,33
 191 139 191 139 175.5 176.5 c 128,-1,34
 160 214 160 214 160 259 c 256,35,36
 160 304 160 304 175.5 341 c 128,-1,37
 191 378 191 378 217.5 404 c 128,-1,38
 244 430 244 430 277.5 444.5 c 128,-1,39
 311 459 311 459 347 459 c 0,40,41
 384 459 384 459 417 445 c 128,-1,42
 450 431 450 431 475 404.5 c 128,-1,43
 500 378 500 378 514.5 341 c 128,-1,44
 529 304 529 304 529 258 c 0,25,26
EndSplineSet
EndChar

StartChar: q
Encoding: 113 113 84
Width: 664
Flags: W
LayerCount: 2
Fore
SplineSet
578 -160 m 1,0,-1
 578 517 l 1,1,-1
 501 517 l 1,2,-1
 501 418 l 1,3,4
 486 440 486 440 466.5 460 c 128,-1,5
 447 480 447 480 423 495 c 128,-1,6
 399 510 399 510 369 519 c 128,-1,7
 339 528 339 528 303 528 c 0,8,9
 256 528 256 528 212 509.5 c 128,-1,10
 168 491 168 491 133 456.5 c 128,-1,11
 98 422 98 422 77 372 c 128,-1,12
 56 322 56 322 56 258 c 256,13,14
 56 194 56 194 77 144 c 128,-1,15
 98 94 98 94 133 59.5 c 128,-1,16
 168 25 168 25 212 7 c 128,-1,17
 256 -11 256 -11 303 -11 c 0,18,19
 339 -11 339 -11 368.5 -2 c 128,-1,20
 398 7 398 7 422 23 c 128,-1,21
 446 39 446 39 465.5 60 c 128,-1,22
 485 81 485 81 501 104 c 1,23,-1
 501 -160 l 1,24,-1
 578 -160 l 1,0,-1
504 259 m 256,25,26
 504 214 504 214 488.5 176.5 c 128,-1,27
 473 139 473 139 446.5 113 c 128,-1,28
 420 87 420 87 386.5 72.5 c 128,-1,29
 353 58 353 58 317 58 c 0,30,31
 280 58 280 58 247 72 c 128,-1,32
 214 86 214 86 189 112.5 c 128,-1,33
 164 139 164 139 149.5 176 c 128,-1,34
 135 213 135 213 135 259 c 0,35,36
 135 306 135 306 149.5 343.5 c 128,-1,37
 164 381 164 381 188.5 406.5 c 128,-1,38
 213 432 213 432 246 445.5 c 128,-1,39
 279 459 279 459 317 459 c 0,40,41
 353 459 353 459 386.5 444.5 c 128,-1,42
 420 430 420 430 446.5 404 c 128,-1,43
 473 378 473 378 488.5 341 c 128,-1,44
 504 304 504 304 504 259 c 256,25,26
EndSplineSet
EndChar

StartChar: r
Encoding: 114 114 85
Width: 405
Flags: W
LayerCount: 2
Fore
SplineSet
163 206 m 2,0,1
 163 264 163 264 179 308.5 c 128,-1,2
 195 353 195 353 223 383 c 128,-1,3
 251 413 251 413 288.5 428 c 128,-1,4
 326 443 326 443 368 443 c 2,5,-1
 374 443 l 1,6,-1
 374 526 l 1,7,8
 337 527 337 527 305 517 c 128,-1,9
 273 507 273 507 246 487.5 c 128,-1,10
 219 468 219 468 198 441 c 128,-1,11
 177 414 177 414 163 382 c 1,12,-1
 163 517 l 1,13,-1
 86 517 l 1,14,-1
 86 0 l 1,15,-1
 163 0 l 1,16,-1
 163 206 l 2,0,1
EndSplineSet
EndChar

StartChar: s
Encoding: 115 115 86
Width: 498
Flags: W
LayerCount: 2
Fore
SplineSet
441 145 m 2,0,-1
 441 147 l 2,1,2
 441 182 441 182 426.5 206 c 128,-1,3
 412 230 412 230 388 247 c 128,-1,4
 364 264 364 264 334.5 275 c 128,-1,5
 305 286 305 286 275 295 c 0,6,7
 249 303 249 303 225 311 c 128,-1,8
 201 319 201 319 182.5 329 c 128,-1,9
 164 339 164 339 153 352.5 c 128,-1,10
 142 366 142 366 142 384 c 2,11,-1
 142 386 l 2,12,13
 142 418 142 418 169 439.5 c 128,-1,14
 196 461 196 461 242 461 c 0,15,16
 280 461 280 461 319.5 447.5 c 128,-1,17
 359 434 359 434 395 411 c 1,18,-1
 430 469 l 1,19,20
 390 495 390 495 341 510.5 c 128,-1,21
 292 526 292 526 244 526 c 0,22,23
 206 526 206 526 173.5 515.5 c 128,-1,24
 141 505 141 505 117.5 485.5 c 128,-1,25
 94 466 94 466 81 438.5 c 128,-1,26
 68 411 68 411 68 378 c 2,27,-1
 68 376 l 2,28,29
 68 340 68 340 83.5 316 c 128,-1,30
 99 292 99 292 123.5 276 c 128,-1,31
 148 260 148 260 178.5 249.5 c 128,-1,32
 209 239 209 239 239 230 c 0,33,34
 264 223 264 223 287.5 215 c 128,-1,35
 311 207 311 207 329 196.5 c 128,-1,36
 347 186 347 186 357.5 172 c 128,-1,37
 368 158 368 158 368 139 c 2,38,-1
 368 137 l 2,39,40
 368 99 368 99 338 77 c 128,-1,41
 308 55 308 55 261 55 c 0,42,43
 215 55 215 55 169.5 72 c 128,-1,44
 124 89 124 89 82 121 c 1,45,-1
 43 66 l 1,46,47
 87 31 87 31 144 10.5 c 128,-1,48
 201 -10 201 -10 257 -10 c 0,49,50
 296 -10 296 -10 329.5 0.5 c 128,-1,51
 363 11 363 11 387.5 31 c 128,-1,52
 412 51 412 51 426.5 79.5 c 128,-1,53
 441 108 441 108 441 145 c 2,0,-1
EndSplineSet
EndChar

StartChar: t
Encoding: 116 116 87
Width: 404
Flags: W
LayerCount: 2
Fore
SplineSet
190 449 m 1,0,-1
 354 449 l 1,1,-1
 354 517 l 1,2,-1
 190 517 l 1,3,-1
 190 673 l 1,4,-1
 113 673 l 1,5,-1
 113 517 l 1,6,-1
 41 517 l 1,7,-1
 41 449 l 1,8,-1
 113 449 l 1,9,-1
 113 137 l 2,10,11
 113 98 113 98 124 70 c 128,-1,12
 135 42 135 42 154.5 24.5 c 128,-1,13
 174 7 174 7 201 -1 c 128,-1,14
 228 -9 228 -9 259 -9 c 0,15,16
 287 -9 287 -9 309.5 -3.5 c 128,-1,17
 332 2 332 2 352 13 c 1,18,-1
 352 79 l 1,19,20
 332 69 332 69 314.5 65 c 128,-1,21
 297 61 297 61 277 61 c 0,22,23
 238 61 238 61 214 80 c 128,-1,24
 190 99 190 99 190 147 c 2,25,-1
 190 449 l 1,0,-1
EndSplineSet
EndChar

StartChar: u
Encoding: 117 117 88
Width: 616
Flags: W
LayerCount: 2
Fore
SplineSet
453 221 m 2,0,1
 453 185 453 185 441 155 c 128,-1,2
 429 125 429 125 408.5 103.5 c 128,-1,3
 388 82 388 82 359.5 70.5 c 128,-1,4
 331 59 331 59 298 59 c 0,5,6
 229 59 229 59 192 101 c 128,-1,7
 155 143 155 143 155 215 c 2,8,-1
 155 517 l 1,9,-1
 78 517 l 1,10,-1
 78 196 l 2,11,12
 78 150 78 150 91.5 112 c 128,-1,13
 105 74 105 74 130.5 46.5 c 128,-1,14
 156 19 156 19 192.5 4 c 128,-1,15
 229 -11 229 -11 276 -11 c 0,16,17
 343 -11 343 -11 385 18.5 c 128,-1,18
 427 48 427 48 453 90 c 1,19,-1
 453 0 l 1,20,-1
 529 0 l 1,21,-1
 529 517 l 1,22,-1
 453 517 l 1,23,-1
 453 221 l 2,0,1
EndSplineSet
EndChar

StartChar: v
Encoding: 118 118 89
Width: 587
Flags: W
LayerCount: 2
Fore
SplineSet
294 88 m 1,0,-1
 120 517 l 1,1,-1
 35 517 l 1,2,-1
 259 -4 l 1,3,-1
 327 -4 l 1,4,-1
 552 517 l 1,5,-1
 469 517 l 1,6,-1
 294 88 l 1,0,-1
EndSplineSet
EndChar

StartChar: w
Encoding: 119 119 90
Width: 861
Flags: W
LayerCount: 2
Fore
SplineSet
463 519 m 1,0,-1
 399 519 l 1,1,-1
 260 102 l 1,2,-1
 124 517 l 1,3,-1
 42 517 l 1,4,-1
 223 -4 l 1,5,-1
 291 -4 l 1,6,-1
 431 404 l 1,7,-1
 570 -4 l 1,8,-1
 637 -4 l 1,9,-1
 819 517 l 1,10,-1
 739 517 l 1,11,-1
 603 102 l 1,12,-1
 463 519 l 1,0,-1
EndSplineSet
EndChar

StartChar: x
Encoding: 120 120 91
Width: 574
Flags: W
LayerCount: 2
Fore
SplineSet
331 265 m 1,0,-1
 527 517 l 1,1,-1
 441 517 l 1,2,-1
 288 317 l 1,3,-1
 135 517 l 1,4,-1
 47 517 l 1,5,-1
 242 263 l 1,6,-1
 39 0 l 1,7,-1
 125 0 l 1,8,-1
 286 211 l 1,9,-1
 446 0 l 1,10,-1
 535 0 l 1,11,-1
 331 265 l 1,0,-1
EndSplineSet
EndChar

StartChar: y
Encoding: 121 121 92
Width: 591
Flags: W
LayerCount: 2
Fore
SplineSet
555 517 m 1,0,-1
 473 517 l 1,1,-1
 307 86 l 1,2,-1
 119 517 l 1,3,-1
 34 517 l 1,4,-1
 269 2 l 1,5,6
 246 -53 246 -53 222 -74 c 128,-1,7
 198 -95 198 -95 163 -95 c 0,8,9
 138 -95 138 -95 119.5 -90.5 c 128,-1,10
 101 -86 101 -86 82 -76 c 1,11,-1
 56 -137 l 1,12,13
 82 -150 82 -150 108 -156.5 c 128,-1,14
 134 -163 134 -163 166 -163 c 0,15,16
 224 -163 224 -163 264.5 -130 c 128,-1,17
 305 -97 305 -97 338 -17 c 2,18,-1
 555 517 l 1,0,-1
EndSplineSet
EndChar

StartChar: z
Encoding: 122 122 93
Width: 556
Flags: W
LayerCount: 2
Fore
SplineSet
399 452 m 1,0,-1
 56 49 l 1,1,-1
 56 0 l 1,2,-1
 504 0 l 1,3,-1
 504 65 l 1,4,-1
 160 65 l 1,5,-1
 504 468 l 1,6,-1
 504 517 l 1,7,-1
 68 517 l 1,8,-1
 68 452 l 1,9,-1
 399 452 l 1,0,-1
EndSplineSet
EndChar

StartChar: braceleft
Encoding: 123 123 94
Width: 483
Flags: W
LayerCount: 2
Fore
SplineSet
428 664 m 1,0,-1
 416 715 l 1,1,2
 348 703 348 703 306 684.5 c 128,-1,3
 264 666 264 666 240 641 c 128,-1,4
 216 616 216 616 207.5 584 c 128,-1,5
 199 552 199 552 199 513 c 0,6,7
 199 507 199 507 199 497 c 256,8,9
 199 487 199 487 199.5 475.5 c 128,-1,10
 200 464 200 464 200 453 c 0,11,12
 200 443 200 443 200 437 c 0,13,14
 200 378 200 378 174.5 347.5 c 128,-1,15
 149 317 149 317 82 317 c 2,16,-1
 56 317 l 1,17,-1
 56 257 l 1,18,-1
 82 257 l 2,19,20
 149 257 149 257 174.5 226 c 128,-1,21
 200 195 200 195 200 137 c 0,22,23
 200 131 200 131 200 120 c 256,24,25
 200 109 200 109 199.5 98 c 128,-1,26
 199 87 199 87 199 77 c 256,27,28
 199 67 199 67 199 61 c 0,29,30
 199 22 199 22 207.5 -10 c 128,-1,31
 216 -42 216 -42 240 -67 c 128,-1,32
 264 -92 264 -92 306 -110.5 c 128,-1,33
 348 -129 348 -129 416 -141 c 1,34,-1
 428 -90 l 1,35,36
 375 -77 375 -77 344.5 -62.5 c 128,-1,37
 314 -48 314 -48 297.5 -29.5 c 128,-1,38
 281 -11 281 -11 276.5 13 c 128,-1,39
 272 37 272 37 272 71 c 0,40,41
 272 86 272 86 272.5 108 c 128,-1,42
 273 130 273 130 273 146 c 0,43,44
 273 177 273 177 266 200 c 128,-1,45
 259 223 259 223 246 239.5 c 128,-1,46
 233 256 233 256 213.5 267.5 c 128,-1,47
 194 279 194 279 169 287 c 1,48,49
 217 302 217 302 245 333.5 c 128,-1,50
 273 365 273 365 273 428 c 0,51,52
 273 444 273 444 272.5 466 c 128,-1,53
 272 488 272 488 272 503 c 0,54,55
 272 537 272 537 276.5 561 c 128,-1,56
 281 585 281 585 297.5 603.5 c 128,-1,57
 314 622 314 622 344.5 636 c 128,-1,58
 375 650 375 650 428 664 c 1,0,-1
EndSplineSet
EndChar

StartChar: bar
Encoding: 124 124 95
Width: 303
Flags: W
LayerCount: 2
Fore
SplineSet
184 -128 m 1,0,-1
 184 798 l 1,1,-1
 119 798 l 1,2,-1
 119 -128 l 1,3,-1
 184 -128 l 1,0,-1
EndSplineSet
EndChar

StartChar: braceright
Encoding: 125 125 96
Width: 483
Flags: W
LayerCount: 2
Fore
SplineSet
54 -90 m 1,0,-1
 67 -141 l 1,1,2
 134 -129 134 -129 176.5 -110.5 c 128,-1,3
 219 -92 219 -92 243 -67 c 128,-1,4
 267 -42 267 -42 275.5 -10 c 128,-1,5
 284 22 284 22 284 61 c 0,6,7
 284 67 284 67 284 77 c 256,8,9
 284 87 284 87 283.5 98 c 128,-1,10
 283 109 283 109 283 120 c 256,11,12
 283 131 283 131 283 137 c 0,13,14
 283 196 283 196 308 226.5 c 128,-1,15
 333 257 333 257 400 257 c 2,16,-1
 426 257 l 1,17,-1
 426 317 l 1,18,-1
 400 317 l 2,19,20
 333 317 333 317 308 347.5 c 128,-1,21
 283 378 283 378 283 437 c 0,22,23
 283 443 283 443 283 453 c 0,24,25
 283 464 283 464 283.5 475.5 c 128,-1,26
 284 487 284 487 284 497 c 256,27,28
 284 507 284 507 284 513 c 0,29,30
 284 552 284 552 275.5 584 c 128,-1,31
 267 616 267 616 243 641 c 128,-1,32
 219 666 219 666 176.5 684.5 c 128,-1,33
 134 703 134 703 67 715 c 1,34,-1
 54 664 l 1,35,36
 107 650 107 650 138 636 c 128,-1,37
 169 622 169 622 185.5 603.5 c 128,-1,38
 202 585 202 585 206.5 561 c 128,-1,39
 211 537 211 537 211 503 c 0,40,41
 211 488 211 488 210.5 466 c 128,-1,42
 210 444 210 444 210 428 c 0,43,44
 210 365 210 365 237 334 c 128,-1,45
 264 303 264 303 314 287 c 1,46,47
 266 272 266 272 238 240.5 c 128,-1,48
 210 209 210 209 210 146 c 0,49,50
 210 130 210 130 210.5 108 c 128,-1,51
 211 86 211 86 211 71 c 0,52,53
 211 37 211 37 206.5 13 c 128,-1,54
 202 -11 202 -11 185.5 -29.5 c 128,-1,55
 169 -48 169 -48 138 -62.5 c 128,-1,56
 107 -77 107 -77 54 -90 c 1,0,-1
EndSplineSet
EndChar

StartChar: asciitilde
Encoding: 126 126 97
Width: 473
Flags: W
LayerCount: 2
Fore
SplineSet
400 352 m 1,0,-1
 354 365 l 1,1,2
 343 337 343 337 332.5 326 c 128,-1,3
 322 315 322 315 302 315 c 0,4,5
 289 315 289 315 272.5 321.5 c 128,-1,6
 256 328 256 328 238.5 335.5 c 128,-1,7
 221 343 221 343 202.5 349.5 c 128,-1,8
 184 356 184 356 168 356 c 0,9,10
 132 356 132 356 110 331.5 c 128,-1,11
 88 307 88 307 73 250 c 1,12,-1
 120 237 l 1,13,14
 131 265 131 265 141.5 276 c 128,-1,15
 152 287 152 287 172 287 c 0,16,17
 185 287 185 287 201 280.5 c 128,-1,18
 217 274 217 274 235 266.5 c 128,-1,19
 253 259 253 259 271 252.5 c 128,-1,20
 289 246 289 246 306 246 c 0,21,22
 342 246 342 246 363.5 270.5 c 128,-1,23
 385 295 385 295 400 352 c 1,0,-1
EndSplineSet
EndChar

StartChar: Aring
Encoding: 197 197 99
Width: 790
Flags: W
LayerCount: 2
Fore
SplineSet
346 680 m 1,0,-1
 39 0 l 1,1,-1
 120 0 l 1,2,-1
 203 185 l 1,3,-1
 584 185 l 1,4,-1
 666 0 l 1,5,-1
 751 0 l 1,6,-1
 444 680 l 1,7,8
 468 693 468 693 483.5 715.5 c 128,-1,9
 499 738 499 738 499 767 c 0,10,11
 499 788 499 788 490.5 806 c 128,-1,12
 482 824 482 824 467.5 837.5 c 128,-1,13
 453 851 453 851 434.5 859 c 128,-1,14
 416 867 416 867 395 867 c 256,15,16
 374 867 374 867 355.5 859 c 128,-1,17
 337 851 337 851 322.5 837.5 c 128,-1,18
 308 824 308 824 299.5 806 c 128,-1,19
 291 788 291 788 291 767 c 0,20,21
 291 738 291 738 306.5 715.5 c 128,-1,22
 322 693 322 693 346 680 c 1,0,-1
457 767 m 256,23,24
 457 741 457 741 439 723 c 128,-1,25
 421 705 421 705 395 705 c 256,26,27
 369 705 369 705 351 723 c 128,-1,28
 333 741 333 741 333 767 c 256,29,30
 333 793 333 793 351 811 c 128,-1,31
 369 829 369 829 395 829 c 256,32,33
 421 829 421 829 439 811 c 128,-1,34
 457 793 457 793 457 767 c 256,23,24
553 256 m 1,35,-1
 234 256 l 1,36,-1
 394 613 l 1,37,-1
 553 256 l 1,35,-1
EndSplineSet
EndChar

StartChar: Ccedilla
Encoding: 199 199 100
Width: 738
Flags: W
LayerCount: 2
Fore
SplineSet
371 -9 m 1,0,-1
 294 -121 l 1,1,-1
 369 -155 l 1,2,-1
 435 -12 l 1,3,4
 479 -10 479 -10 516 -0.5 c 128,-1,5
 553 9 553 9 585 25 c 128,-1,6
 617 41 617 41 645 62.5 c 128,-1,7
 673 84 673 84 699 111 c 1,8,-1
 647 162 l 1,9,10
 597 114 597 114 545 87.5 c 128,-1,11
 493 61 493 61 421 61 c 0,12,13
 363 61 363 61 313.5 83.5 c 128,-1,14
 264 106 264 106 227.5 145 c 128,-1,15
 191 184 191 184 170.5 237 c 128,-1,16
 150 290 150 290 150 351 c 256,17,18
 150 412 150 412 170.5 464.5 c 128,-1,19
 191 517 191 517 227.5 556 c 128,-1,20
 264 595 264 595 313.5 617 c 128,-1,21
 363 639 363 639 421 639 c 0,22,23
 493 639 493 639 544.5 612 c 128,-1,24
 596 585 596 585 641 543 c 1,25,-1
 695 601 l 1,26,27
 669 626 669 626 641 646.5 c 128,-1,28
 613 667 613 667 580 681.5 c 128,-1,29
 547 696 547 696 508.5 704 c 128,-1,30
 470 712 470 712 422 712 c 0,31,32
 345 712 345 712 280 683.5 c 128,-1,33
 215 655 215 655 168 605.5 c 128,-1,34
 121 556 121 556 94.5 490 c 128,-1,35
 68 424 68 424 68 349 c 0,36,37
 68 279 68 279 90.5 217.5 c 128,-1,38
 113 156 113 156 153 108.5 c 128,-1,39
 193 61 193 61 249 30.5 c 128,-1,40
 305 0 305 0 371 -9 c 1,0,-1
EndSplineSet
EndChar

StartChar: ccedilla
Encoding: 231 231 111
Width: 571
Flags: W
LayerCount: 2
Fore
SplineSet
271 -7 m 1,0,-1
 193 -121 l 1,1,-1
 268 -155 l 1,2,-1
 334 -12 l 1,3,4
 401 -8 401 -8 446.5 19 c 128,-1,5
 492 46 492 46 530 88 c 1,6,-1
 481 134 l 1,7,8
 450 101 450 101 411.5 79 c 128,-1,9
 373 57 373 57 323 57 c 0,10,11
 282 57 282 57 247.5 72.5 c 128,-1,12
 213 88 213 88 187.5 115.5 c 128,-1,13
 162 143 162 143 147.5 180 c 128,-1,14
 133 217 133 217 133 259 c 256,15,16
 133 301 133 301 147 337.5 c 128,-1,17
 161 374 161 374 186 401.5 c 128,-1,18
 211 429 211 429 245 444.5 c 128,-1,19
 279 460 279 460 318 460 c 0,20,21
 371 460 371 460 407.5 437 c 128,-1,22
 444 414 444 414 475 382 c 1,23,-1
 526 436 l 1,24,25
 508 455 508 455 487 472 c 128,-1,26
 466 489 466 489 441 501.5 c 128,-1,27
 416 514 416 514 386 521 c 128,-1,28
 356 528 356 528 319 528 c 0,29,30
 262 528 262 528 213.5 506.5 c 128,-1,31
 165 485 165 485 129.5 448 c 128,-1,32
 94 411 94 411 74 361.5 c 128,-1,33
 54 312 54 312 54 257 c 0,34,35
 54 208 54 208 70 163.5 c 128,-1,36
 86 119 86 119 115 84 c 128,-1,37
 144 49 144 49 184 25 c 128,-1,38
 224 1 224 1 271 -7 c 1,0,-1
EndSplineSet
EndChar

StartChar: dagger
Encoding: 8224 8224 130
Width: 410
Flags: W
LayerCount: 2
Fore
SplineSet
226 520 m 1,0,-1
 350 512 l 1,1,-1
 350 567 l 1,2,-1
 227 559 l 1,3,-1
 236 700 l 1,4,-1
 174 700 l 1,5,-1
 183 559 l 1,6,-1
 60 567 l 1,7,-1
 60 512 l 1,8,-1
 184 520 l 1,9,-1
 178 238 l 1,10,-1
 232 238 l 1,11,-1
 226 520 l 1,0,-1
EndSplineSet
EndChar

StartChar: degree
Encoding: 176 176 131
Width: 458
Flags: W
LayerCount: 2
Fore
SplineSet
386 553 m 256,0,1
 386 584 386 584 373 611.5 c 128,-1,2
 360 639 360 639 338 660 c 128,-1,3
 316 681 316 681 288 693.5 c 128,-1,4
 260 706 260 706 229 706 c 256,5,6
 198 706 198 706 169.5 693.5 c 128,-1,7
 141 681 141 681 119.5 660 c 128,-1,8
 98 639 98 639 85 611.5 c 128,-1,9
 72 584 72 584 72 553 c 256,10,11
 72 522 72 522 85 494.5 c 128,-1,12
 98 467 98 467 119.5 446 c 128,-1,13
 141 425 141 425 169.5 412.5 c 128,-1,14
 198 400 198 400 229 400 c 256,15,16
 260 400 260 400 288 412.5 c 128,-1,17
 316 425 316 425 338 446 c 128,-1,18
 360 467 360 467 373 494.5 c 128,-1,19
 386 522 386 522 386 553 c 256,0,1
328 553 m 256,20,21
 328 533 328 533 320.5 515 c 128,-1,22
 313 497 313 497 300 483 c 128,-1,23
 287 469 287 469 268.5 460.5 c 128,-1,24
 250 452 250 452 229 452 c 256,25,26
 208 452 208 452 189.5 460.5 c 128,-1,27
 171 469 171 469 158 483 c 128,-1,28
 145 497 145 497 137.5 515 c 128,-1,29
 130 533 130 533 130 553 c 256,30,31
 130 573 130 573 137.5 591 c 128,-1,32
 145 609 145 609 158 623 c 128,-1,33
 171 637 171 637 189.5 645.5 c 128,-1,34
 208 654 208 654 229 654 c 256,35,36
 250 654 250 654 268.5 645.5 c 128,-1,37
 287 637 287 637 300 623 c 128,-1,38
 313 609 313 609 320.5 591 c 128,-1,39
 328 573 328 573 328 553 c 256,20,21
EndSplineSet
EndChar

StartChar: cent
Encoding: 162 162 132
Width: 581
Flags: W
LayerCount: 2
Fore
SplineSet
533 186 m 1,0,-1
 485 231 l 1,1,2
 455 199 455 199 417 177 c 128,-1,3
 379 155 379 155 331 154 c 0,4,5
 324 154 324 154 318 154.5 c 128,-1,6
 312 155 312 155 306 156 c 1,7,-1
 381 547 l 1,8,9
 412 538 412 538 435 520 c 128,-1,10
 458 502 458 502 480 480 c 1,11,-1
 530 532 l 1,12,13
 504 561 504 561 472.5 583 c 128,-1,14
 441 605 441 605 398 616 c 1,15,-1
 416 706 l 1,16,-1
 351 706 l 1,17,-1
 336 625 l 1,18,-1
 323 625 l 2,19,20
 267 625 267 625 218.5 603.5 c 128,-1,21
 170 582 170 582 134.5 545 c 128,-1,22
 99 508 99 508 78.5 458.5 c 128,-1,23
 58 409 58 409 58 354 c 0,24,25
 58 310 58 310 71 270.5 c 128,-1,26
 84 231 84 231 107 197.5 c 128,-1,27
 130 164 130 164 162.5 139 c 128,-1,28
 195 114 195 114 234 100 c 1,29,-1
 212 -6 l 1,30,-1
 277 -6 l 1,31,-1
 295 87 l 1,32,33
 303 85 303 85 309 85 c 0,34,35
 316 85 316 85 324 85 c 0,36,37
 395 85 395 85 444.5 113 c 128,-1,38
 494 141 494 141 533 186 c 1,0,-1
325 556 m 1,39,-1
 251 170 l 1,40,41
 200 193 200 193 168 243 c 128,-1,42
 136 293 136 293 136 356 c 0,43,44
 136 398 136 398 150 434 c 128,-1,45
 164 470 164 470 188.5 497 c 128,-1,46
 213 524 213 524 246.5 540 c 128,-1,47
 280 556 280 556 319 556 c 2,48,-1
 325 556 l 1,39,-1
EndSplineSet
EndChar

StartChar: sterling
Encoding: 163 163 133
Width: 644
Flags: W
LayerCount: 2
Fore
SplineSet
151 364 m 1,0,-1
 67 364 l 1,1,-1
 67 295 l 1,2,-1
 151 295 l 1,3,-1
 151 67 l 1,4,-1
 67 46 l 1,5,-1
 67 0 l 1,6,-1
 585 0 l 1,7,-1
 585 70 l 1,8,-1
 230 70 l 1,9,-1
 230 295 l 1,10,-1
 509 295 l 1,11,-1
 509 364 l 1,12,-1
 230 364 l 1,13,-1
 230 472 l 2,14,15
 230 548 230 548 266.5 592.5 c 128,-1,16
 303 637 303 637 371 637 c 0,17,18
 426 637 426 637 461 614 c 128,-1,19
 496 591 496 591 525 554 c 1,20,-1
 586 602 l 1,21,22
 551 648 551 648 501 679 c 128,-1,23
 451 710 451 710 372 710 c 0,24,25
 319 710 319 710 278 693 c 128,-1,26
 237 676 237 676 209 644.5 c 128,-1,27
 181 613 181 613 166 569 c 128,-1,28
 151 525 151 525 151 472 c 2,29,-1
 151 364 l 1,0,-1
EndSplineSet
EndChar

StartChar: section
Encoding: 167 167 134
Width: 632
Flags: W
LayerCount: 2
Fore
SplineSet
570 341 m 0,0,1
 570 367 570 367 559 387.5 c 128,-1,2
 548 408 548 408 523 425 c 128,-1,3
 498 442 498 442 458.5 456 c 128,-1,4
 419 470 419 470 362 484 c 0,5,6
 315 495 315 495 283.5 505.5 c 128,-1,7
 252 516 252 516 233.5 527.5 c 128,-1,8
 215 539 215 539 207 551 c 128,-1,9
 199 563 199 563 199 577 c 0,10,11
 199 606 199 606 224 625 c 128,-1,12
 249 644 249 644 302 644 c 0,13,14
 357 644 357 644 402.5 622.5 c 128,-1,15
 448 601 448 601 483 567 c 1,16,-1
 533 615 l 1,17,18
 491 658 491 658 432.5 684 c 128,-1,19
 374 710 374 710 304 710 c 0,20,21
 219 710 219 710 169.5 673.5 c 128,-1,22
 120 637 120 637 120 576 c 0,23,24
 120 543 120 543 140 517 c 128,-1,25
 160 491 160 491 194 474 c 1,26,27
 134 464 134 464 98 434.5 c 128,-1,28
 62 405 62 405 62 359 c 0,29,30
 62 333 62 333 73 312.5 c 128,-1,31
 84 292 84 292 109 275 c 128,-1,32
 134 258 134 258 173.5 243.5 c 128,-1,33
 213 229 213 229 270 216 c 0,34,35
 317 205 317 205 348.5 194.5 c 128,-1,36
 380 184 380 184 398.5 172.5 c 128,-1,37
 417 161 417 161 425 149 c 128,-1,38
 433 137 433 137 433 123 c 0,39,40
 433 94 433 94 408 75 c 128,-1,41
 383 56 383 56 330 56 c 0,42,43
 275 56 275 56 229.5 77.5 c 128,-1,44
 184 99 184 99 149 133 c 1,45,-1
 99 85 l 1,46,47
 141 42 141 42 199.5 16 c 128,-1,48
 258 -10 258 -10 328 -10 c 0,49,50
 413 -10 413 -10 462.5 26.5 c 128,-1,51
 512 63 512 63 512 124 c 0,52,53
 512 157 512 157 492 183 c 128,-1,54
 472 209 472 209 438 226 c 1,55,56
 498 236 498 236 534 265.5 c 128,-1,57
 570 295 570 295 570 341 c 0,0,1
496 333 m 0,58,59
 496 304 496 304 466.5 283.5 c 128,-1,60
 437 263 437 263 387 263 c 0,61,62
 367 263 367 263 341 266.5 c 128,-1,63
 315 270 315 270 278 279 c 0,64,65
 237 289 237 289 209.5 299.5 c 128,-1,66
 182 310 182 310 165.5 320.5 c 128,-1,67
 149 331 149 331 142.5 342.5 c 128,-1,68
 136 354 136 354 136 367 c 0,69,70
 136 396 136 396 165.5 416.5 c 128,-1,71
 195 437 195 437 245 437 c 0,72,73
 265 437 265 437 290.5 433.5 c 128,-1,74
 316 430 316 430 354 421 c 0,75,76
 395 411 395 411 422.5 400.5 c 128,-1,77
 450 390 450 390 466.5 379.5 c 128,-1,78
 483 369 483 369 489.5 357.5 c 128,-1,79
 496 346 496 346 496 333 c 0,58,59
EndSplineSet
EndChar

StartChar: bullet
Encoding: 8226 8226 135
Width: 478
Flags: W
LayerCount: 2
Fore
SplineSet
370 352 m 256,0,1
 370 379 370 379 359.5 403 c 128,-1,2
 349 427 349 427 331.5 444.5 c 128,-1,3
 314 462 314 462 290 472.5 c 128,-1,4
 266 483 266 483 239 483 c 256,5,6
 212 483 212 483 188 472.5 c 128,-1,7
 164 462 164 462 146.5 444.5 c 128,-1,8
 129 427 129 427 118.5 403 c 128,-1,9
 108 379 108 379 108 352 c 256,10,11
 108 325 108 325 118.5 301 c 128,-1,12
 129 277 129 277 146.5 259.5 c 128,-1,13
 164 242 164 242 188 231.5 c 128,-1,14
 212 221 212 221 239 221 c 256,15,16
 266 221 266 221 290 231.5 c 128,-1,17
 314 242 314 242 331.5 259.5 c 128,-1,18
 349 277 349 277 359.5 301 c 128,-1,19
 370 325 370 325 370 352 c 256,0,1
EndSplineSet
EndChar

StartChar: paragraph
Encoding: 182 182 136
Width: 510
Flags: W
LayerCount: 2
Fore
SplineSet
312 700 m 2,0,1
 253 700 253 700 204.5 685 c 128,-1,2
 156 670 156 670 121.5 642 c 128,-1,3
 87 614 87 614 67.5 573.5 c 128,-1,4
 48 533 48 533 48 482 c 0,5,6
 48 429 48 429 69.5 388.5 c 128,-1,7
 91 348 91 348 128.5 320 c 128,-1,8
 166 292 166 292 217 278 c 128,-1,9
 268 264 268 264 327 264 c 2,10,-1
 338 264 l 1,11,-1
 338 0 l 1,12,-1
 418 0 l 1,13,-1
 418 700 l 1,14,-1
 312 700 l 2,0,1
EndSplineSet
EndChar

StartChar: germandbls
Encoding: 223 223 137
Width: 620
Flags: W
LayerCount: 2
Fore
SplineSet
519 556 m 0,0,1
 519 594 519 594 504.5 627 c 128,-1,2
 490 660 490 660 463 684.5 c 128,-1,3
 436 709 436 709 398 723 c 128,-1,4
 360 737 360 737 313 737 c 0,5,6
 261 737 261 737 219 720 c 128,-1,7
 177 703 177 703 147.5 672 c 128,-1,8
 118 641 118 641 102 597.5 c 128,-1,9
 86 554 86 554 86 501 c 2,10,-1
 86 0 l 1,11,-1
 163 0 l 1,12,-1
 163 502 l 2,13,14
 163 579 163 579 204 624 c 128,-1,15
 245 669 245 669 309 669 c 0,16,17
 368 669 368 669 404 636.5 c 128,-1,18
 440 604 440 604 440 551 c 0,19,20
 440 520 440 520 428.5 495 c 128,-1,21
 417 470 417 470 397.5 450 c 128,-1,22
 378 430 378 430 350.5 415 c 128,-1,23
 323 400 323 400 292 388 c 1,24,-1
 292 331 l 1,25,26
 380 322 380 322 431.5 288 c 128,-1,27
 483 254 483 254 483 193 c 0,28,29
 483 129 483 129 432 95.5 c 128,-1,30
 381 62 381 62 292 60 c 1,31,-1
 292 -2 l 1,32,33
 354 -3 354 -3 404 10 c 128,-1,34
 454 23 454 23 489 48 c 128,-1,35
 524 73 524 73 543 109.5 c 128,-1,36
 562 146 562 146 562 193 c 0,37,38
 562 232 562 232 547 262 c 128,-1,39
 532 292 532 292 506.5 314 c 128,-1,40
 481 336 481 336 448.5 350 c 128,-1,41
 416 364 416 364 380 372 c 1,42,43
 406 383 406 383 431 400 c 128,-1,44
 456 417 456 417 475.5 439.5 c 128,-1,45
 495 462 495 462 507 491 c 128,-1,46
 519 520 519 520 519 556 c 0,0,1
EndSplineSet
EndChar

StartChar: registered
Encoding: 174 174 138
Width: 830
Flags: W
LayerCount: 2
Fore
SplineSet
777 351 m 256,0,1
 777 425 777 425 749 491 c 128,-1,2
 721 557 721 557 672.5 606 c 128,-1,3
 624 655 624 655 558 683.5 c 128,-1,4
 492 712 492 712 416 712 c 256,5,6
 340 712 340 712 273.5 683 c 128,-1,7
 207 654 207 654 158 604.5 c 128,-1,8
 109 555 109 555 81 489 c 128,-1,9
 53 423 53 423 53 349 c 256,10,11
 53 275 53 275 81 209 c 128,-1,12
 109 143 109 143 157.5 94 c 128,-1,13
 206 45 206 45 272 16.5 c 128,-1,14
 338 -12 338 -12 414 -12 c 256,15,16
 490 -12 490 -12 556.5 17 c 128,-1,17
 623 46 623 46 672 95.5 c 128,-1,18
 721 145 721 145 749 211 c 128,-1,19
 777 277 777 277 777 351 c 256,0,1
744 351 m 256,20,21
 744 283 744 283 719 222.5 c 128,-1,22
 694 162 694 162 649.5 117 c 128,-1,23
 605 72 605 72 544.5 45.5 c 128,-1,24
 484 19 484 19 414 19 c 256,25,26
 344 19 344 19 284 45 c 128,-1,27
 224 71 224 71 180 116 c 128,-1,28
 136 161 136 161 111 221 c 128,-1,29
 86 281 86 281 86 349 c 256,30,31
 86 417 86 417 111 477.5 c 128,-1,32
 136 538 136 538 180.5 583 c 128,-1,33
 225 628 225 628 285 654.5 c 128,-1,34
 345 681 345 681 416 681 c 0,35,36
 486 681 486 681 546 655 c 128,-1,37
 606 629 606 629 650 584 c 128,-1,38
 694 539 694 539 719 479 c 128,-1,39
 744 419 744 419 744 351 c 256,20,21
579 434 m 0,40,41
 579 486 579 486 540 516 c 128,-1,42
 501 546 501 546 439 546 c 2,43,-1
 273 546 l 1,44,-1
 273 175 l 1,45,-1
 328 175 l 1,46,-1
 328 315 l 1,47,-1
 423 315 l 1,48,-1
 530 175 l 1,49,-1
 598 175 l 1,50,-1
 483 324 l 1,51,52
 525 334 525 334 552 361 c 128,-1,53
 579 388 579 388 579 434 c 0,40,41
522 431 m 0,54,55
 522 399 522 399 497.5 381.5 c 128,-1,56
 473 364 473 364 434 364 c 2,57,-1
 328 364 l 1,58,-1
 328 496 l 1,59,-1
 437 496 l 2,60,61
 477 496 477 496 499.5 479 c 128,-1,62
 522 462 522 462 522 431 c 0,54,55
EndSplineSet
EndChar

StartChar: copyright
Encoding: 169 169 139
Width: 830
Flags: W
LayerCount: 2
Fore
SplineSet
777 351 m 256,0,1
 777 425 777 425 749 491 c 128,-1,2
 721 557 721 557 672.5 606 c 128,-1,3
 624 655 624 655 558 683.5 c 128,-1,4
 492 712 492 712 416 712 c 256,5,6
 340 712 340 712 273.5 683 c 128,-1,7
 207 654 207 654 158 604.5 c 128,-1,8
 109 555 109 555 81 489 c 128,-1,9
 53 423 53 423 53 349 c 256,10,11
 53 275 53 275 81 209 c 128,-1,12
 109 143 109 143 157.5 94 c 128,-1,13
 206 45 206 45 272 16.5 c 128,-1,14
 338 -12 338 -12 414 -12 c 256,15,16
 490 -12 490 -12 556.5 17 c 128,-1,17
 623 46 623 46 672 95.5 c 128,-1,18
 721 145 721 145 749 211 c 128,-1,19
 777 277 777 277 777 351 c 256,0,1
744 351 m 256,20,21
 744 283 744 283 719 222.5 c 128,-1,22
 694 162 694 162 649.5 117 c 128,-1,23
 605 72 605 72 544.5 45.5 c 128,-1,24
 484 19 484 19 414 19 c 256,25,26
 344 19 344 19 284 45 c 128,-1,27
 224 71 224 71 180 116 c 128,-1,28
 136 161 136 161 111 221 c 128,-1,29
 86 281 86 281 86 349 c 256,30,31
 86 417 86 417 111 477.5 c 128,-1,32
 136 538 136 538 180.5 583 c 128,-1,33
 225 628 225 628 285 654.5 c 128,-1,34
 345 681 345 681 416 681 c 0,35,36
 486 681 486 681 546 655 c 128,-1,37
 606 629 606 629 650 584 c 128,-1,38
 694 539 694 539 719 479 c 128,-1,39
 744 419 744 419 744 351 c 256,20,21
567 229 m 1,40,-1
 531 264 l 1,41,42
 506 241 506 241 481 227.5 c 128,-1,43
 456 214 456 214 421 214 c 0,44,45
 393 214 393 214 369 225 c 128,-1,46
 345 236 345 236 327 255.5 c 128,-1,47
 309 275 309 275 299 301 c 128,-1,48
 289 327 289 327 289 356 c 256,49,50
 289 385 289 385 298.5 410.5 c 128,-1,51
 308 436 308 436 325.5 455.5 c 128,-1,52
 343 475 343 475 367 486 c 128,-1,53
 391 497 391 497 420 497 c 0,54,55
 453 497 453 497 479.5 482.5 c 128,-1,56
 506 468 506 468 528 447 c 1,57,-1
 565 487 l 1,58,59
 537 513 537 513 504.5 530 c 128,-1,60
 472 547 472 547 421 547 c 0,61,62
 380 547 380 547 345.5 532 c 128,-1,63
 311 517 311 517 286 490.5 c 128,-1,64
 261 464 261 464 247 429 c 128,-1,65
 233 394 233 394 233 355 c 0,66,67
 233 315 233 315 247 280 c 128,-1,68
 261 245 261 245 286 219 c 128,-1,69
 311 193 311 193 345 178 c 128,-1,70
 379 163 379 163 419 163 c 0,71,72
 470 163 470 163 504 181 c 128,-1,73
 538 199 538 199 567 229 c 1,40,-1
EndSplineSet
EndChar

StartChar: trademark
Encoding: 8482 8482 140
Width: 690
Flags: W
LayerCount: 2
Fore
SplineSet
605 628 m 1,0,-1
 605 392 l 1,1,-1
 648 392 l 1,2,-1
 648 700 l 1,3,-1
 602 700 l 1,4,-1
 493 531 l 1,5,-1
 383 700 l 1,6,-1
 336 700 l 1,7,-1
 336 392 l 1,8,-1
 380 392 l 1,9,-1
 380 628 l 1,10,-1
 489 461 l 1,11,-1
 495 461 l 1,12,-1
 605 628 l 1,0,-1
169 658 m 1,13,-1
 268 658 l 1,14,-1
 268 700 l 1,15,-1
 26 700 l 1,16,-1
 26 658 l 1,17,-1
 125 658 l 1,18,-1
 125 392 l 1,19,-1
 169 392 l 1,20,-1
 169 658 l 1,13,-1
EndSplineSet
EndChar

StartChar: acute
Encoding: 180 180 141
Width: 500
Flags: W
LayerCount: 2
Fore
SplineSet
243 595 m 1,0,-1
 356 703 l 1,1,-1
 276 740 l 1,2,-1
 181 595 l 1,3,-1
 243 595 l 1,0,-1
EndSplineSet
EndChar

StartChar: dieresis
Encoding: 168 168 142
Width: 500
Flags: W
LayerCount: 2
Fore
SplineSet
383 595 m 1,0,-1
 383 690 l 1,1,-1
 293 690 l 1,2,-1
 293 595 l 1,3,-1
 383 595 l 1,0,-1
207 595 m 1,4,-1
 207 690 l 1,5,-1
 117 690 l 1,6,-1
 117 595 l 1,7,-1
 207 595 l 1,4,-1
EndSplineSet
EndChar

StartChar: AE
Encoding: 198 198 143
Width: 1045
Flags: W
LayerCount: 2
Fore
SplineSet
209 185 m 1,0,-1
 491 185 l 1,1,-1
 491 0 l 1,2,-1
 985 0 l 1,3,-1
 985 72 l 1,4,-1
 571 72 l 1,5,-1
 571 317 l 1,6,-1
 935 317 l 1,7,-1
 935 389 l 1,8,-1
 571 389 l 1,9,-1
 571 628 l 1,10,-1
 980 628 l 1,11,-1
 980 700 l 1,12,-1
 428 700 l 1,13,-1
 17 0 l 1,14,-1
 100 0 l 1,15,-1
 209 185 l 1,0,-1
467 630 m 1,16,-1
 491 630 l 1,17,-1
 491 256 l 1,18,-1
 249 256 l 1,19,-1
 467 630 l 1,16,-1
EndSplineSet
EndChar

StartChar: Oslash
Encoding: 216 216 144
Width: 850
Flags: W
LayerCount: 2
Fore
SplineSet
782 351 m 0,0,1
 782 421 782 421 758.5 484.5 c 128,-1,2
 735 548 735 548 691 596 c 1,3,-1
 790 705 l 1,4,-1
 707 705 l 1,5,-1
 645 638 l 1,6,7
 601 673 601 673 546 692.5 c 128,-1,8
 491 712 491 712 426 712 c 0,9,10
 346 712 346 712 280 682.5 c 128,-1,11
 214 653 214 653 167 603 c 128,-1,12
 120 553 120 553 94 487.5 c 128,-1,13
 68 422 68 422 68 349 c 0,14,15
 68 279 68 279 91.5 215.5 c 128,-1,16
 115 152 115 152 159 103 c 1,17,-1
 60 -5 l 1,18,-1
 143 -5 l 1,19,-1
 205 62 l 1,20,21
 249 27 249 27 304 7.5 c 128,-1,22
 359 -12 359 -12 424 -12 c 0,23,24
 504 -12 504 -12 570 17.5 c 128,-1,25
 636 47 636 47 683 97 c 128,-1,26
 730 147 730 147 756 212.5 c 128,-1,27
 782 278 782 278 782 351 c 0,0,1
595 580 m 1,28,-1
 212 163 l 1,29,30
 182 201 182 201 165.5 249 c 128,-1,31
 149 297 149 297 149 351 c 0,32,33
 149 411 149 411 169.5 464 c 128,-1,34
 190 517 190 517 226.5 556 c 128,-1,35
 263 595 263 595 313.5 618 c 128,-1,36
 364 641 364 641 424 641 c 0,37,38
 475 641 475 641 517.5 624.5 c 128,-1,39
 560 608 560 608 595 580 c 1,28,-1
701 349 m 0,40,41
 701 289 701 289 680.5 236 c 128,-1,42
 660 183 660 183 623.5 144 c 128,-1,43
 587 105 587 105 536.5 82 c 128,-1,44
 486 59 486 59 426 59 c 0,45,46
 375 59 375 59 332.5 75.5 c 128,-1,47
 290 92 290 92 255 120 c 1,48,-1
 638 537 l 1,49,50
 668 499 668 499 684.5 451 c 128,-1,51
 701 403 701 403 701 349 c 0,40,41
EndSplineSet
EndChar

StartChar: plusminus
Encoding: 177 177 145
Width: 604
Flags: W
LayerCount: 2
Fore
SplineSet
546 191 m 0,0,1
 546 225 546 225 535 251.5 c 128,-1,2
 524 278 524 278 505.5 299 c 128,-1,3
 487 320 487 320 461 334.5 c 128,-1,4
 435 349 435 349 405 359 c 1,5,6
 428 368 428 368 450 382 c 128,-1,7
 472 396 472 396 489 416 c 128,-1,8
 506 436 506 436 516.5 462.5 c 128,-1,9
 527 489 527 489 527 524 c 0,10,11
 527 565 527 565 510 599.5 c 128,-1,12
 493 634 493 634 463 659 c 128,-1,13
 433 684 433 684 391 698 c 128,-1,14
 349 712 349 712 299 712 c 0,15,16
 216 712 216 712 158 676.5 c 128,-1,17
 100 641 100 641 58 582 c 1,18,-1
 116 540 l 1,19,20
 152 588 152 588 195 614 c 128,-1,21
 238 640 238 640 297 640 c 0,22,23
 366 640 366 640 406.5 605.5 c 128,-1,24
 447 571 447 571 447 517 c 0,25,26
 447 487 447 487 434.5 462.5 c 128,-1,27
 422 438 422 438 400 421.5 c 128,-1,28
 378 405 378 405 347.5 396 c 128,-1,29
 317 387 317 387 281 387 c 2,30,-1
 207 387 l 1,31,-1
 207 319 l 1,32,-1
 279 319 l 2,33,34
 368 319 368 319 417 285 c 128,-1,35
 466 251 466 251 466 191 c 0,36,37
 466 161 466 161 454 137 c 128,-1,38
 442 113 442 113 421 95.5 c 128,-1,39
 400 78 400 78 371 69 c 128,-1,40
 342 60 342 60 308 60 c 0,41,42
 241 60 241 60 190 88 c 128,-1,43
 139 116 139 116 101 164 c 1,44,-1
 43 114 l 1,45,46
 87 59 87 59 154 23.5 c 128,-1,47
 221 -12 221 -12 306 -12 c 0,48,49
 360 -12 360 -12 404 3.5 c 128,-1,50
 448 19 448 19 479.5 46.5 c 128,-1,51
 511 74 511 74 528.5 111 c 128,-1,52
 546 148 546 148 546 191 c 0,0,1
EndSplineSet
EndChar

StartChar: yen
Encoding: 165 165 146
Width: 686
Flags: W
LayerCount: 2
Fore
SplineSet
381 266 m 1,0,-1
 586 266 l 1,1,-1
 586 328 l 1,2,-1
 404 328 l 1,3,-1
 659 700 l 1,4,-1
 569 700 l 1,5,-1
 344 358 l 1,6,-1
 121 700 l 1,7,-1
 27 700 l 1,8,-1
 281 328 l 1,9,-1
 100 328 l 1,10,-1
 100 266 l 1,11,-1
 305 266 l 1,12,-1
 305 178 l 1,13,-1
 100 178 l 1,14,-1
 100 116 l 1,15,-1
 305 116 l 1,16,-1
 305 0 l 1,17,-1
 381 0 l 1,18,-1
 381 116 l 1,19,-1
 586 116 l 1,20,-1
 586 178 l 1,21,-1
 381 178 l 1,22,-1
 381 266 l 1,0,-1
EndSplineSet
EndChar

StartChar: mu
Encoding: 181 181 147
AltUni2: 0003bc.ffffffff.0
Width: 850
Flags: W
LayerCount: 2
Fore
SplineSet
782 351 m 0,0,1
 782 424 782 424 756.5 489.5 c 128,-1,2
 731 555 731 555 684 604.5 c 128,-1,3
 637 654 637 654 571.5 683 c 128,-1,4
 506 712 506 712 426 712 c 256,5,6
 346 712 346 712 280 682.5 c 128,-1,7
 214 653 214 653 167 603 c 128,-1,8
 120 553 120 553 94 487.5 c 128,-1,9
 68 422 68 422 68 349 c 256,10,11
 68 276 68 276 93.5 210.5 c 128,-1,12
 119 145 119 145 166 95.5 c 128,-1,13
 213 46 213 46 278.5 17 c 128,-1,14
 344 -12 344 -12 424 -12 c 0,15,16
 507 -12 507 -12 577 22 c 1,17,-1
 709 -101 l 1,18,-1
 825 -101 l 1,19,-1
 825 -95 l 1,20,-1
 653 70 l 1,21,22
 714 121 714 121 748 194 c 128,-1,23
 782 267 782 267 782 351 c 0,0,1
700 349 m 256,24,25
 700 289 700 289 679.5 236.5 c 128,-1,26
 659 184 659 184 623 145 c 128,-1,27
 587 106 587 106 536.5 83.5 c 128,-1,28
 486 61 486 61 426 61 c 256,29,30
 366 61 366 61 315.5 84 c 128,-1,31
 265 107 265 107 228 146 c 128,-1,32
 191 185 191 185 170.5 238 c 128,-1,33
 150 291 150 291 150 351 c 256,34,35
 150 411 150 411 170.5 463.5 c 128,-1,36
 191 516 191 516 227 555 c 128,-1,37
 263 594 263 594 313.5 616.5 c 128,-1,38
 364 639 364 639 424 639 c 256,39,40
 484 639 484 639 534.5 616 c 128,-1,41
 585 593 585 593 622 554 c 128,-1,42
 659 515 659 515 679.5 462 c 128,-1,43
 700 409 700 409 700 349 c 256,24,25
EndSplineSet
EndChar

StartChar: pi
Encoding: 960 960 148
Width: 830
Flags: W
LayerCount: 2
Fore
SplineSet
777 351 m 256,0,1
 777 425 777 425 749 491 c 128,-1,2
 721 557 721 557 672.5 606 c 128,-1,3
 624 655 624 655 558 683.5 c 128,-1,4
 492 712 492 712 416 712 c 256,5,6
 340 712 340 712 273.5 683 c 128,-1,7
 207 654 207 654 158 604.5 c 128,-1,8
 109 555 109 555 81 489 c 128,-1,9
 53 423 53 423 53 349 c 256,10,11
 53 275 53 275 81 209 c 128,-1,12
 109 143 109 143 157.5 94 c 128,-1,13
 206 45 206 45 272 16.5 c 128,-1,14
 338 -12 338 -12 414 -12 c 256,15,16
 490 -12 490 -12 556.5 17 c 128,-1,17
 623 46 623 46 672 95.5 c 128,-1,18
 721 145 721 145 749 211 c 128,-1,19
 777 277 777 277 777 351 c 256,0,1
744 351 m 256,20,21
 744 283 744 283 719 222.5 c 128,-1,22
 694 162 694 162 649.5 117 c 128,-1,23
 605 72 605 72 544.5 45.5 c 128,-1,24
 484 19 484 19 414 19 c 256,25,26
 344 19 344 19 284 45 c 128,-1,27
 224 71 224 71 180 116 c 128,-1,28
 136 161 136 161 111 221 c 128,-1,29
 86 281 86 281 86 349 c 256,30,31
 86 417 86 417 111 477.5 c 128,-1,32
 136 538 136 538 180.5 583 c 128,-1,33
 225 628 225 628 285 654.5 c 128,-1,34
 345 681 345 681 416 681 c 0,35,36
 486 681 486 681 546 655 c 128,-1,37
 606 629 606 629 650 584 c 128,-1,38
 694 539 694 539 719 479 c 128,-1,39
 744 419 744 419 744 351 c 256,20,21
582 422 m 0,40,41
 582 480 582 480 543 511.5 c 128,-1,42
 504 543 504 543 438 543 c 2,43,-1
 292 543 l 1,44,-1
 292 172 l 1,45,-1
 348 172 l 1,46,-1
 348 297 l 1,47,-1
 431 297 l 2,48,49
 461 297 461 297 488.5 304.5 c 128,-1,50
 516 312 516 312 536.5 328 c 128,-1,51
 557 344 557 344 569.5 367 c 128,-1,52
 582 390 582 390 582 422 c 0,40,41
526 421 m 0,53,54
 526 386 526 386 500.5 366.5 c 128,-1,55
 475 347 475 347 432 347 c 2,56,-1
 348 347 l 1,57,-1
 348 493 l 1,58,-1
 433 493 l 2,59,60
 476 493 476 493 501 475.5 c 128,-1,61
 526 458 526 458 526 421 c 0,53,54
EndSplineSet
EndChar

StartChar: ordfeminine
Encoding: 170 170 149
Width: 390
Flags: W
LayerCount: 2
Fore
SplineSet
313 414 m 1,0,-1
 313 587 l 2,1,2
 313 644 313 644 281.5 673.5 c 128,-1,3
 250 703 250 703 191 703 c 0,4,5
 159 703 159 703 135 696 c 128,-1,6
 111 689 111 689 85 678 c 1,7,-1
 100 636 l 1,8,9
 122 646 122 646 142.5 652 c 128,-1,10
 163 658 163 658 186 658 c 0,11,12
 223 658 223 658 243.5 640 c 128,-1,13
 264 622 264 622 264 587 c 2,14,-1
 264 582 l 1,15,16
 247 587 247 587 228.5 590 c 128,-1,17
 210 593 210 593 184 593 c 0,18,19
 129 593 129 593 95 569 c 128,-1,20
 61 545 61 545 61 499 c 0,21,22
 61 476 61 476 70.5 459 c 128,-1,23
 80 442 80 442 95 430.5 c 128,-1,24
 110 419 110 419 129 413.5 c 128,-1,25
 148 408 148 408 168 408 c 0,26,27
 200 408 200 408 223.5 420 c 128,-1,28
 247 432 247 432 264 452 c 1,29,-1
 264 414 l 1,30,-1
 313 414 l 1,0,-1
318 289 m 1,31,-1
 318 336 l 1,32,-1
 58 336 l 1,33,-1
 58 289 l 1,34,-1
 318 289 l 1,31,-1
264 520 m 2,35,36
 264 488 264 488 238 469 c 128,-1,37
 212 450 212 450 177 450 c 0,38,39
 151 450 151 450 132 463 c 128,-1,40
 113 476 113 476 113 501 c 0,41,42
 113 525 113 525 132.5 540 c 128,-1,43
 152 555 152 555 188 555 c 0,44,45
 212 555 212 555 230.5 552 c 128,-1,46
 249 549 249 549 264 544 c 1,47,-1
 264 520 l 2,35,36
EndSplineSet
EndChar

StartChar: ordmasculine
Encoding: 186 186 150
Width: 390
Flags: W
LayerCount: 2
Fore
SplineSet
342 557 m 0,0,1
 342 587 342 587 331 614 c 128,-1,2
 320 641 320 641 300.5 661.5 c 128,-1,3
 281 682 281 682 254 693.5 c 128,-1,4
 227 705 227 705 196 705 c 0,5,6
 164 705 164 705 137 693 c 128,-1,7
 110 681 110 681 90 660.5 c 128,-1,8
 70 640 70 640 59 613 c 128,-1,9
 48 586 48 586 48 555 c 0,10,11
 48 525 48 525 59 498 c 128,-1,12
 70 471 70 471 89.5 450.5 c 128,-1,13
 109 430 109 430 135.5 418.5 c 128,-1,14
 162 407 162 407 194 407 c 256,15,16
 226 407 226 407 253 419 c 128,-1,17
 280 431 280 431 300 451.5 c 128,-1,18
 320 472 320 472 331 499 c 128,-1,19
 342 526 342 526 342 557 c 0,0,1
339 289 m 1,20,-1
 339 336 l 1,21,-1
 51 336 l 1,22,-1
 51 289 l 1,23,-1
 339 289 l 1,20,-1
288 555 m 0,24,25
 288 513 288 513 263 484 c 128,-1,26
 238 455 238 455 196 455 c 0,27,28
 176 455 176 455 158.5 463 c 128,-1,29
 141 471 141 471 128.5 485 c 128,-1,30
 116 499 116 499 109 517.5 c 128,-1,31
 102 536 102 536 102 557 c 0,32,33
 102 599 102 599 127 628 c 128,-1,34
 152 657 152 657 194 657 c 0,35,36
 235 657 235 657 261.5 627.5 c 128,-1,37
 288 598 288 598 288 555 c 0,24,25
EndSplineSet
EndChar

StartChar: ae
Encoding: 230 230 151
Width: 953
Flags: W
LayerCount: 2
Fore
SplineSet
468 92 m 1,0,1
 503 43 503 43 556.5 15.5 c 128,-1,2
 610 -12 610 -12 673 -12 c 0,3,4
 747 -12 747 -12 797.5 14.5 c 128,-1,5
 848 41 848 41 886 85 c 1,6,-1
 838 128 l 1,7,8
 806 95 806 95 767.5 75 c 128,-1,9
 729 55 729 55 675 55 c 0,10,11
 641 55 641 55 610 66.5 c 128,-1,12
 579 78 579 78 554.5 100.5 c 128,-1,13
 530 123 530 123 514 155.5 c 128,-1,14
 498 188 498 188 494 230 c 1,15,-1
 903 230 l 1,16,17
 904 237 904 237 904.5 243 c 128,-1,18
 905 249 905 249 905 254 c 0,19,20
 905 311 905 311 888.5 361 c 128,-1,21
 872 411 872 411 841.5 448 c 128,-1,22
 811 485 811 485 766 506.5 c 128,-1,23
 721 528 721 528 664 528 c 0,24,25
 600 528 600 528 548.5 496.5 c 128,-1,26
 497 465 497 465 466 413 c 1,27,28
 446 469 446 469 398 496.5 c 128,-1,29
 350 524 350 524 276 524 c 0,30,31
 220 524 220 524 178 512.5 c 128,-1,32
 136 501 136 501 93 481 c 1,33,-1
 116 418 l 1,34,35
 152 435 152 435 187.5 445.5 c 128,-1,36
 223 456 223 456 268 456 c 0,37,38
 340 456 340 456 378.5 420.5 c 128,-1,39
 417 385 417 385 417 315 c 2,40,-1
 417 297 l 1,41,42
 382 307 382 307 347 313 c 128,-1,43
 312 319 312 319 264 319 c 256,44,45
 216 319 216 319 176.5 308 c 128,-1,46
 137 297 137 297 108 276 c 128,-1,47
 79 255 79 255 63 223.5 c 128,-1,48
 47 192 47 192 47 151 c 0,49,50
 47 111 47 111 63.5 80.5 c 128,-1,51
 80 50 80 50 107 30 c 128,-1,52
 134 10 134 10 169 -0.5 c 128,-1,53
 204 -11 204 -11 242 -11 c 0,54,55
 314 -11 314 -11 370 19 c 128,-1,56
 426 49 426 49 468 92 c 1,0,1
493 287 m 1,57,58
 497 325 497 325 511 357 c 128,-1,59
 525 389 525 389 547 412.5 c 128,-1,60
 569 436 569 436 598.5 449.5 c 128,-1,61
 628 463 628 463 662 463 c 0,62,63
 700 463 700 463 729.5 448.5 c 128,-1,64
 759 434 759 434 779.5 410 c 128,-1,65
 800 386 800 386 811.5 354 c 128,-1,66
 823 322 823 322 826 287 c 1,67,-1
 493 287 l 1,57,58
416 241 m 1,68,69
 419 188 419 188 437 143 c 1,70,71
 401 102 401 102 354.5 76.5 c 128,-1,72
 308 51 308 51 251 51 c 0,73,74
 225 51 225 51 202 58 c 128,-1,75
 179 65 179 65 162 78.5 c 128,-1,76
 145 92 145 92 135 111 c 128,-1,77
 125 130 125 130 125 155 c 0,78,79
 125 205 125 205 163 233.5 c 128,-1,80
 201 262 201 262 272 262 c 0,81,82
 315 262 315 262 351 255.5 c 128,-1,83
 387 249 387 249 416 241 c 1,68,69
EndSplineSet
EndChar

StartChar: oslash
Encoding: 248 248 152
Width: 646
Flags: W
LayerCount: 2
Fore
SplineSet
593 259 m 0,0,1
 593 311 593 311 576 356.5 c 128,-1,2
 559 402 559 402 528 437 c 1,3,-1
 608 523 l 1,4,-1
 530 523 l 1,5,-1
 485 474 l 1,6,7
 453 500 453 500 412 514 c 128,-1,8
 371 528 371 528 324 528 c 0,9,10
 265 528 265 528 215.5 506.5 c 128,-1,11
 166 485 166 485 130 448 c 128,-1,12
 94 411 94 411 74 361.5 c 128,-1,13
 54 312 54 312 54 257 c 0,14,15
 54 206 54 206 71 161 c 128,-1,16
 88 116 88 116 118 80 c 1,17,-1
 39 -5 l 1,18,-1
 116 -5 l 1,19,-1
 161 41 l 1,20,21
 194 16 194 16 234.5 2 c 128,-1,22
 275 -12 275 -12 322 -12 c 0,23,24
 380 -12 380 -12 430 9.5 c 128,-1,25
 480 31 480 31 516 68 c 128,-1,26
 552 105 552 105 572.5 154.5 c 128,-1,27
 593 204 593 204 593 259 c 0,0,1
438 419 m 1,28,-1
 170 136 l 1,29,30
 131 189 131 189 131 259 c 0,31,32
 131 301 131 301 145 338 c 128,-1,33
 159 375 159 375 184.5 402.5 c 128,-1,34
 210 430 210 430 245 445.5 c 128,-1,35
 280 461 280 461 322 461 c 0,36,37
 390 461 390 461 438 419 c 1,28,-1
515 257 m 0,38,39
 515 215 515 215 501 178 c 128,-1,40
 487 141 487 141 462 113.5 c 128,-1,41
 437 86 437 86 401.5 70.5 c 128,-1,42
 366 55 366 55 324 55 c 0,43,44
 258 55 258 55 208 96 c 1,45,-1
 476 381 l 1,46,47
 515 328 515 328 515 257 c 0,38,39
EndSplineSet
EndChar

StartChar: questiondown
Encoding: 191 191 153
Width: 537
Flags: W
LayerCount: 2
Fore
SplineSet
246 700 m 1,0,-1
 246 595 l 1,1,-1
 338 595 l 1,2,-1
 338 700 l 1,3,-1
 246 700 l 1,0,-1
327 335 m 1,4,-1
 332 340 l 1,5,-1
 316 502 l 1,6,-1
 265 502 l 1,7,-1
 256 394 l 1,8,9
 213 388 213 388 175.5 373 c 128,-1,10
 138 358 138 358 109.5 333 c 128,-1,11
 81 308 81 308 64.5 272.5 c 128,-1,12
 48 237 48 237 48 190 c 0,13,14
 48 147 48 147 64 110.5 c 128,-1,15
 80 74 80 74 109 47.5 c 128,-1,16
 138 21 138 21 179.5 6 c 128,-1,17
 221 -9 221 -9 272 -9 c 0,18,19
 352 -9 352 -9 407.5 23 c 128,-1,20
 463 55 463 55 506 107 c 1,21,-1
 455 156 l 1,22,23
 417 111 417 111 373 86.5 c 128,-1,24
 329 62 329 62 274 62 c 0,25,26
 240 62 240 62 213 72 c 128,-1,27
 186 82 186 82 167 100 c 128,-1,28
 148 118 148 118 138 142 c 128,-1,29
 128 166 128 166 128 193 c 0,30,31
 128 257 128 257 178.5 295 c 128,-1,32
 229 333 229 333 327 335 c 1,4,-1
EndSplineSet
EndChar

StartChar: exclamdown
Encoding: 161 161 154
Width: 271
Flags: W
LayerCount: 2
Fore
SplineSet
90 700 m 1,0,-1
 90 595 l 1,1,-1
 182 595 l 1,2,-1
 182 700 l 1,3,-1
 90 700 l 1,0,-1
181 0 m 1,4,-1
 181 57 l 1,5,-1
 157 502 l 1,6,-1
 114 502 l 1,7,-1
 91 57 l 1,8,-1
 91 0 l 1,9,-1
 181 0 l 1,4,-1
EndSplineSet
EndChar

StartChar: radical
Encoding: 8730 8730 155
Width: 998
Flags: W
LayerCount: 2
Fore
SplineSet
559 515 m 1,0,-1
 559 557 l 2,1,2
 559 667 559 667 649 667 c 0,3,4
 669 667 669 667 686 663.5 c 128,-1,5
 703 660 703 660 723 654 c 1,6,-1
 723 721 l 1,7,8
 705 728 705 728 685 731 c 128,-1,9
 665 734 665 734 638 734 c 0,10,11
 563 734 563 734 523 690 c 128,-1,12
 483 646 483 646 483 561 c 2,13,-1
 483 516 l 1,14,-1
 412 516 l 1,15,-1
 412 449 l 1,16,-1
 483 449 l 1,17,-1
 483 0 l 1,18,-1
 559 0 l 1,19,-1
 559 449 l 1,20,-1
 722 449 l 1,21,-1
 722 515 l 1,22,-1
 559 515 l 1,0,-1
191 515 m 1,23,-1
 191 557 l 2,24,25
 191 667 191 667 281 667 c 0,26,27
 301 667 301 667 318 663.5 c 128,-1,28
 335 660 335 660 356 654 c 1,29,-1
 356 721 l 1,30,31
 337 728 337 728 317.5 731 c 128,-1,32
 298 734 298 734 271 734 c 0,33,34
 196 734 196 734 155.5 690 c 128,-1,35
 115 646 115 646 115 561 c 2,36,-1
 115 516 l 1,37,-1
 44 516 l 1,38,-1
 44 449 l 1,39,-1
 115 449 l 1,40,-1
 115 0 l 1,41,-1
 192 0 l 1,42,-1
 192 449 l 1,43,-1
 355 449 l 1,44,-1
 355 515 l 1,45,-1
 191 515 l 1,23,-1
905 0 m 1,46,-1
 905 730 l 1,47,-1
 828 730 l 1,48,-1
 828 0 l 1,49,-1
 905 0 l 1,46,-1
EndSplineSet
EndChar

StartChar: florin
Encoding: 402 402 156
Width: 514
Flags: W
LayerCount: 2
Fore
SplineSet
478 628 m 1,0,-1
 478 694 l 1,1,2
 460 700 460 700 441.5 702.5 c 128,-1,3
 423 705 423 705 397 705 c 0,4,5
 328 705 328 705 291.5 669.5 c 128,-1,6
 255 634 255 634 241 559 c 2,7,-1
 218 440 l 1,8,-1
 109 440 l 1,9,-1
 109 373 l 1,10,-1
 207 373 l 1,11,-1
 163 137 l 2,12,13
 155 97 155 97 136 79 c 128,-1,14
 117 61 117 61 85 61 c 0,15,16
 60 61 60 61 41 65 c 1,17,-1
 41 -1 l 1,18,19
 52 -3 52 -3 64 -4 c 128,-1,20
 76 -5 76 -5 93 -5 c 0,21,22
 157 -5 157 -5 193 27 c 128,-1,23
 229 59 229 59 242 129 c 2,24,-1
 287 373 l 1,25,-1
 443 373 l 1,26,-1
 443 440 l 1,27,-1
 299 440 l 1,28,-1
 319 548 l 2,29,30
 328 596 328 596 349 617 c 128,-1,31
 370 638 370 638 409 638 c 0,32,33
 425 638 425 638 442.5 635.5 c 128,-1,34
 460 633 460 633 478 628 c 1,0,-1
EndSplineSet
EndChar

StartChar: approxequal
Encoding: 8776 8776 157
Width: 998
Flags: W
LayerCount: 2
Fore
SplineSet
910 630 m 1,0,-1
 910 715 l 1,1,-1
 823 715 l 1,2,-1
 823 630 l 1,3,-1
 910 630 l 1,0,-1
559 515 m 1,4,-1
 559 557 l 2,5,6
 559 667 559 667 649 667 c 0,7,8
 669 667 669 667 686 663.5 c 128,-1,9
 703 660 703 660 723 654 c 1,10,-1
 723 721 l 1,11,12
 705 728 705 728 685 731 c 128,-1,13
 665 734 665 734 638 734 c 0,14,15
 563 734 563 734 523 690 c 128,-1,16
 483 646 483 646 483 561 c 2,17,-1
 483 516 l 1,18,-1
 412 516 l 1,19,-1
 412 449 l 1,20,-1
 483 449 l 1,21,-1
 483 0 l 1,22,-1
 559 0 l 1,23,-1
 559 449 l 1,24,-1
 722 449 l 1,25,-1
 722 515 l 1,26,-1
 559 515 l 1,4,-1
191 515 m 1,27,-1
 191 557 l 2,28,29
 191 667 191 667 281 667 c 0,30,31
 301 667 301 667 318 663.5 c 128,-1,32
 335 660 335 660 356 654 c 1,33,-1
 356 721 l 1,34,35
 337 728 337 728 317.5 731 c 128,-1,36
 298 734 298 734 271 734 c 0,37,38
 196 734 196 734 155.5 690 c 128,-1,39
 115 646 115 646 115 561 c 2,40,-1
 115 516 l 1,41,-1
 44 516 l 1,42,-1
 44 449 l 1,43,-1
 115 449 l 1,44,-1
 115 0 l 1,45,-1
 192 0 l 1,46,-1
 192 449 l 1,47,-1
 355 449 l 1,48,-1
 355 515 l 1,49,-1
 191 515 l 1,27,-1
905 0 m 1,50,-1
 905 517 l 1,51,-1
 828 517 l 1,52,-1
 828 0 l 1,53,-1
 905 0 l 1,50,-1
EndSplineSet
EndChar

StartChar: guillemotleft
Encoding: 171 171 158
Width: 550
Flags: W
LayerCount: 2
Fore
SplineSet
433 476 m 1,0,-1
 271 263 l 1,1,-1
 271 255 l 1,2,-1
 433 41 l 1,3,-1
 491 75 l 1,4,-1
 356 260 l 1,5,-1
 491 443 l 1,6,-1
 433 476 l 1,0,-1
210 476 m 1,7,-1
 48 263 l 1,8,-1
 48 255 l 1,9,-1
 210 41 l 1,10,-1
 269 75 l 1,11,-1
 134 260 l 1,12,-1
 269 443 l 1,13,-1
 210 476 l 1,7,-1
EndSplineSet
EndChar

StartChar: guillemotright
Encoding: 187 187 159
Width: 550
Flags: W
LayerCount: 2
Fore
SplineSet
340 41 m 1,0,-1
 502 255 l 1,1,-1
 502 263 l 1,2,-1
 340 476 l 1,3,-1
 281 442 l 1,4,-1
 416 258 l 1,5,-1
 281 74 l 1,6,-1
 340 41 l 1,0,-1
117 41 m 1,7,-1
 279 255 l 1,8,-1
 279 263 l 1,9,-1
 117 476 l 1,10,-1
 59 442 l 1,11,-1
 194 258 l 1,12,-1
 59 74 l 1,13,-1
 117 41 l 1,7,-1
EndSplineSet
EndChar

StartChar: ellipsis
Encoding: 8230 8230 160
Width: 723
Flags: W
LayerCount: 2
Fore
SplineSet
647 0 m 1,0,-1
 647 103 l 1,1,-1
 557 103 l 1,2,-1
 557 0 l 1,3,-1
 647 0 l 1,0,-1
406 0 m 1,4,-1
 406 103 l 1,5,-1
 317 103 l 1,6,-1
 317 0 l 1,7,-1
 406 0 l 1,4,-1
166 0 m 1,8,-1
 166 103 l 1,9,-1
 77 103 l 1,10,-1
 77 0 l 1,11,-1
 166 0 l 1,8,-1
EndSplineSet
EndChar

StartChar: OE
Encoding: 338 338 165
Width: 1131
Flags: W
LayerCount: 2
Fore
SplineSet
1071 0 m 1,0,-1
 1071 72 l 1,1,-1
 657 72 l 1,2,-1
 657 317 l 1,3,-1
 1021 317 l 1,4,-1
 1021 389 l 1,5,-1
 657 389 l 1,6,-1
 657 628 l 1,7,-1
 1066 628 l 1,8,-1
 1066 700 l 1,9,-1
 440 700 l 2,10,11
 357 700 357 700 289 673 c 128,-1,12
 221 646 221 646 171.5 598.5 c 128,-1,13
 122 551 122 551 95 487 c 128,-1,14
 68 423 68 423 68 349 c 256,15,16
 68 275 68 275 95 211 c 128,-1,17
 122 147 122 147 171.5 100 c 128,-1,18
 221 53 221 53 289 26.5 c 128,-1,19
 357 0 357 0 440 0 c 2,20,-1
 1071 0 l 1,0,-1
578 73 m 1,21,-1
 440 73 l 2,22,23
 374 73 374 73 320 94.5 c 128,-1,24
 266 116 266 116 228.5 153.5 c 128,-1,25
 191 191 191 191 170.5 241.5 c 128,-1,26
 150 292 150 292 150 351 c 0,27,28
 150 409 150 409 170.5 459.5 c 128,-1,29
 191 510 191 510 228.5 547.5 c 128,-1,30
 266 585 266 585 320 606 c 128,-1,31
 374 627 374 627 440 627 c 2,32,-1
 578 627 l 1,33,-1
 578 73 l 1,21,-1
EndSplineSet
EndChar

StartChar: oe
Encoding: 339 339 166
Width: 1049
Flags: W
LayerCount: 2
Fore
SplineSet
548 128 m 1,0,1
 579 62 579 62 638.5 25 c 128,-1,2
 698 -12 698 -12 770 -12 c 0,3,4
 843 -12 843 -12 893.5 14.5 c 128,-1,5
 944 41 944 41 982 85 c 1,6,-1
 934 128 l 1,7,8
 902 95 902 95 863.5 75 c 128,-1,9
 825 55 825 55 771 55 c 0,10,11
 737 55 737 55 706 66.5 c 128,-1,12
 675 78 675 78 650.5 100.5 c 128,-1,13
 626 123 626 123 610 155.5 c 128,-1,14
 594 188 594 188 590 230 c 1,15,-1
 999 230 l 1,16,17
 1000 237 1000 237 1000 243 c 256,18,19
 1000 249 1000 249 1000 254 c 0,20,21
 1000 311 1000 311 984 361 c 128,-1,22
 968 411 968 411 937 448 c 128,-1,23
 906 485 906 485 862 506.5 c 128,-1,24
 818 528 818 528 761 528 c 0,25,26
 689 528 689 528 633.5 490 c 128,-1,27
 578 452 578 452 549 389 c 1,28,29
 517 451 517 451 458 489.5 c 128,-1,30
 399 528 399 528 322 528 c 0,31,32
 265 528 265 528 216 506.5 c 128,-1,33
 167 485 167 485 131 448 c 128,-1,34
 95 411 95 411 74.5 361.5 c 128,-1,35
 54 312 54 312 54 257 c 256,36,37
 54 202 54 202 74.5 153 c 128,-1,38
 95 104 95 104 130.5 67.5 c 128,-1,39
 166 31 166 31 214.5 9.5 c 128,-1,40
 263 -12 263 -12 319 -12 c 0,41,42
 397 -12 397 -12 456.5 27 c 128,-1,43
 516 66 516 66 548 128 c 1,0,1
589 287 m 1,44,45
 593 325 593 325 607 357 c 128,-1,46
 621 389 621 389 643 412.5 c 128,-1,47
 665 436 665 436 694.5 449.5 c 128,-1,48
 724 463 724 463 758 463 c 0,49,50
 796 463 796 463 825.5 448.5 c 128,-1,51
 855 434 855 434 875.5 410 c 128,-1,52
 896 386 896 386 907.5 354 c 128,-1,53
 919 322 919 322 922 287 c 1,54,-1
 589 287 l 1,44,45
511 257 m 256,55,56
 511 215 511 215 497 178.5 c 128,-1,57
 483 142 483 142 458.5 115 c 128,-1,58
 434 88 434 88 399.5 72.5 c 128,-1,59
 365 57 365 57 323 57 c 0,60,61
 282 57 282 57 247.5 73 c 128,-1,62
 213 89 213 89 187.5 116 c 128,-1,63
 162 143 162 143 147.5 180 c 128,-1,64
 133 217 133 217 133 259 c 256,65,66
 133 301 133 301 147 337.5 c 128,-1,67
 161 374 161 374 185.5 401.5 c 128,-1,68
 210 429 210 429 244.5 444.5 c 128,-1,69
 279 460 279 460 321 460 c 0,70,71
 361 460 361 460 396 444 c 128,-1,72
 431 428 431 428 456.5 400.5 c 128,-1,73
 482 373 482 373 496.5 336 c 128,-1,74
 511 299 511 299 511 257 c 256,55,56
EndSplineSet
EndChar

StartChar: endash
Encoding: 8211 8211 167
Width: 528
Flags: W
LayerCount: 2
Fore
SplineSet
463 262 m 1,0,-1
 463 339 l 1,1,-1
 65 339 l 1,2,-1
 65 262 l 1,3,-1
 463 262 l 1,0,-1
EndSplineSet
EndChar

StartChar: emdash
Encoding: 8212 8212 168
Width: 898
Flags: W
LayerCount: 2
Fore
SplineSet
833 262 m 1,0,-1
 833 339 l 1,1,-1
 65 339 l 1,2,-1
 65 262 l 1,3,-1
 833 262 l 1,0,-1
EndSplineSet
EndChar

StartChar: quotedblleft
Encoding: 8220 8220 169
Width: 445
Flags: W
LayerCount: 2
Fore
SplineSet
394 670 m 1,0,-1
 382 705 l 1,1,2
 325 692 325 692 298.5 660.5 c 128,-1,3
 272 629 272 629 272 568 c 2,4,-1
 272 478 l 1,5,-1
 363 478 l 1,6,-1
 363 583 l 1,7,-1
 327 583 l 1,8,9
 325 615 325 615 340.5 635.5 c 128,-1,10
 356 656 356 656 394 670 c 1,0,-1
194 670 m 1,11,-1
 182 705 l 1,12,13
 125 692 125 692 98.5 660.5 c 128,-1,14
 72 629 72 629 72 568 c 2,15,-1
 72 478 l 1,16,-1
 164 478 l 1,17,-1
 164 583 l 1,18,-1
 127 583 l 1,19,20
 125 615 125 615 140.5 635.5 c 128,-1,21
 156 656 156 656 194 670 c 1,11,-1
EndSplineSet
EndChar

StartChar: quotedblright
Encoding: 8221 8221 170
Width: 445
Flags: W
LayerCount: 2
Fore
SplineSet
251 508 m 1,0,-1
 263 473 l 1,1,2
 320 486 320 486 346.5 517.5 c 128,-1,3
 373 549 373 549 373 610 c 2,4,-1
 373 700 l 1,5,-1
 282 700 l 1,6,-1
 282 595 l 1,7,-1
 318 595 l 1,8,9
 321 563 321 563 305 542.5 c 128,-1,10
 289 522 289 522 251 508 c 1,0,-1
51 508 m 1,11,-1
 63 473 l 1,12,13
 120 486 120 486 147 517.5 c 128,-1,14
 174 549 174 549 174 610 c 2,15,-1
 174 700 l 1,16,-1
 82 700 l 1,17,-1
 82 595 l 1,18,-1
 118 595 l 1,19,20
 121 563 121 563 105 542.5 c 128,-1,21
 89 522 89 522 51 508 c 1,11,-1
EndSplineSet
EndChar

StartChar: quoteleft
Encoding: 8216 8216 171
Width: 245
Flags: W
LayerCount: 2
Fore
SplineSet
194 670 m 1,0,-1
 182 705 l 1,1,2
 125 692 125 692 98.5 660.5 c 128,-1,3
 72 629 72 629 72 568 c 2,4,-1
 72 478 l 1,5,-1
 164 478 l 1,6,-1
 164 583 l 1,7,-1
 127 583 l 1,8,9
 125 615 125 615 140.5 635.5 c 128,-1,10
 156 656 156 656 194 670 c 1,0,-1
EndSplineSet
EndChar

StartChar: quoteright
Encoding: 8217 8217 172
Width: 245
Flags: W
LayerCount: 2
Fore
SplineSet
51 508 m 1,0,-1
 63 473 l 1,1,2
 120 486 120 486 147 517.5 c 128,-1,3
 174 549 174 549 174 610 c 2,4,-1
 174 700 l 1,5,-1
 82 700 l 1,6,-1
 82 595 l 1,7,-1
 118 595 l 1,8,9
 121 563 121 563 105 542.5 c 128,-1,10
 89 522 89 522 51 508 c 1,0,-1
EndSplineSet
EndChar

StartChar: currency
Encoding: 164 164 175
Width: 720
Flags: W
LayerCount: 2
Fore
SplineSet
139 408 m 1,0,1
 137 394 137 394 136 379 c 128,-1,2
 135 364 135 364 135 349 c 0,3,4
 135 336 135 336 135 324 c 256,5,6
 135 312 135 312 137 300 c 1,7,-1
 56 300 l 1,8,-1
 56 237 l 1,9,-1
 147 237 l 1,10,11
 160 181 160 181 186 135.5 c 128,-1,12
 212 90 212 90 248.5 57 c 128,-1,13
 285 24 285 24 331 6 c 128,-1,14
 377 -12 377 -12 430 -12 c 0,15,16
 472 -12 472 -12 507 -1 c 128,-1,17
 542 10 542 10 571 29.5 c 128,-1,18
 600 49 600 49 623.5 76 c 128,-1,19
 647 103 647 103 668 134 c 1,20,-1
 611 174 l 1,21,22
 575 121 575 121 533.5 90 c 128,-1,23
 492 59 492 59 433 59 c 0,24,25
 358 59 358 59 304.5 107.5 c 128,-1,26
 251 156 251 156 229 237 c 1,27,-1
 488 237 l 1,28,-1
 488 300 l 1,29,-1
 216 300 l 1,30,31
 215 313 215 313 214.5 325 c 128,-1,32
 214 337 214 337 214 351 c 256,33,34
 214 365 214 365 215 379.5 c 128,-1,35
 216 394 216 394 218 408 c 1,36,-1
 488 408 l 1,37,-1
 488 470 l 1,38,-1
 231 470 l 1,39,40
 254 546 254 546 304.5 593.5 c 128,-1,41
 355 641 355 641 422 641 c 0,42,43
 454 641 454 641 479.5 634 c 128,-1,44
 505 627 505 627 527 613 c 128,-1,45
 549 599 549 599 568 578.5 c 128,-1,46
 587 558 587 558 606 532 c 1,47,-1
 666 575 l 1,48,49
 646 605 646 605 622.5 630 c 128,-1,50
 599 655 599 655 570 673 c 128,-1,51
 541 691 541 691 505 701.5 c 128,-1,52
 469 712 469 712 425 712 c 0,53,54
 374 712 374 712 330 694 c 128,-1,55
 286 676 286 676 251 643.5 c 128,-1,56
 216 611 216 611 190 566.5 c 128,-1,57
 164 522 164 522 150 470 c 1,58,-1
 56 470 l 1,59,-1
 56 408 l 1,60,-1
 139 408 l 1,0,1
EndSplineSet
EndChar

StartChar: guilsinglleft
Encoding: 8249 8249 176
Width: 328
Flags: W
LayerCount: 2
Fore
SplineSet
210 476 m 1,0,-1
 48 263 l 1,1,-1
 48 255 l 1,2,-1
 210 41 l 1,3,-1
 269 75 l 1,4,-1
 134 260 l 1,5,-1
 269 443 l 1,6,-1
 210 476 l 1,0,-1
EndSplineSet
EndChar

StartChar: guilsinglright
Encoding: 8250 8250 177
Width: 328
Flags: W
LayerCount: 2
Fore
SplineSet
117 41 m 1,0,-1
 279 255 l 1,1,-1
 279 263 l 1,2,-1
 117 476 l 1,3,-1
 59 442 l 1,4,-1
 194 258 l 1,5,-1
 59 74 l 1,6,-1
 117 41 l 1,0,-1
EndSplineSet
EndChar

StartChar: fi
Encoding: 64257 64257 178
Width: 631
Flags: W
LayerCount: 2
Fore
SplineSet
543 630 m 1,0,-1
 543 715 l 1,1,-1
 455 715 l 1,2,-1
 455 630 l 1,3,-1
 543 630 l 1,0,-1
191 515 m 1,4,-1
 191 557 l 2,5,6
 191 667 191 667 281 667 c 0,7,8
 301 667 301 667 318 663.5 c 128,-1,9
 335 660 335 660 356 654 c 1,10,-1
 356 721 l 1,11,12
 337 728 337 728 317.5 731 c 128,-1,13
 298 734 298 734 271 734 c 0,14,15
 196 734 196 734 155.5 690 c 128,-1,16
 115 646 115 646 115 561 c 2,17,-1
 115 516 l 1,18,-1
 44 516 l 1,19,-1
 44 449 l 1,20,-1
 115 449 l 1,21,-1
 115 0 l 1,22,-1
 192 0 l 1,23,-1
 192 449 l 1,24,-1
 355 449 l 1,25,-1
 355 515 l 1,26,-1
 191 515 l 1,4,-1
537 0 m 1,27,-1
 537 517 l 1,28,-1
 461 517 l 1,29,-1
 461 0 l 1,30,-1
 537 0 l 1,27,-1
EndSplineSet
EndChar

StartChar: fl
Encoding: 64258 64258 179
Width: 631
Flags: W
LayerCount: 2
Fore
SplineSet
191 515 m 1,0,-1
 191 557 l 2,1,2
 191 667 191 667 281 667 c 0,3,4
 301 667 301 667 318 663.5 c 128,-1,5
 335 660 335 660 356 654 c 1,6,-1
 356 721 l 1,7,8
 337 728 337 728 317.5 731 c 128,-1,9
 298 734 298 734 271 734 c 0,10,11
 196 734 196 734 155.5 690 c 128,-1,12
 115 646 115 646 115 561 c 2,13,-1
 115 516 l 1,14,-1
 44 516 l 1,15,-1
 44 449 l 1,16,-1
 115 449 l 1,17,-1
 115 0 l 1,18,-1
 192 0 l 1,19,-1
 192 449 l 1,20,-1
 355 449 l 1,21,-1
 355 515 l 1,22,-1
 191 515 l 1,0,-1
537 0 m 1,23,-1
 537 730 l 1,24,-1
 461 730 l 1,25,-1
 461 0 l 1,26,-1
 537 0 l 1,23,-1
EndSplineSet
EndChar

StartChar: daggerdbl
Encoding: 8225 8225 180
Width: 430
Flags: W
LayerCount: 2
Fore
SplineSet
360 133 m 1,0,-1
 360 188 l 1,1,-1
 236 180 l 1,2,-1
 242 350 l 1,3,-1
 236 520 l 1,4,-1
 360 512 l 1,5,-1
 360 567 l 1,6,-1
 237 559 l 1,7,-1
 246 700 l 1,8,-1
 184 700 l 1,9,-1
 193 559 l 1,10,-1
 70 567 l 1,11,-1
 70 512 l 1,12,-1
 194 520 l 1,13,-1
 188 350 l 1,14,-1
 194 180 l 1,15,-1
 70 188 l 1,16,-1
 70 133 l 1,17,-1
 193 141 l 1,18,-1
 184 0 l 1,19,-1
 246 0 l 1,20,-1
 237 141 l 1,21,-1
 360 133 l 1,0,-1
EndSplineSet
EndChar

StartChar: periodcentered
Encoding: 183 183 181
Width: 245
Flags: W
LayerCount: 2
Fore
SplineSet
169 248 m 1,0,-1
 169 353 l 1,1,-1
 77 353 l 1,2,-1
 77 248 l 1,3,-1
 169 248 l 1,0,-1
EndSplineSet
EndChar

StartChar: quotesinglbase
Encoding: 8218 8218 182
Width: 245
Flags: W
LayerCount: 2
Fore
SplineSet
46 -87 m 1,0,-1
 58 -122 l 1,1,2
 115 -109 115 -109 142 -77.5 c 128,-1,3
 169 -46 169 -46 169 15 c 2,4,-1
 169 105 l 1,5,-1
 77 105 l 1,6,-1
 77 0 l 1,7,-1
 113 0 l 1,8,9
 116 -32 116 -32 100 -52.5 c 128,-1,10
 84 -73 84 -73 46 -87 c 1,0,-1
EndSplineSet
EndChar

StartChar: quotedblbase
Encoding: 8222 8222 183
Width: 445
Flags: W
LayerCount: 2
Fore
SplineSet
246 -87 m 1,0,-1
 258 -122 l 1,1,2
 315 -109 315 -109 341.5 -77.5 c 128,-1,3
 368 -46 368 -46 368 15 c 2,4,-1
 368 105 l 1,5,-1
 277 105 l 1,6,-1
 277 0 l 1,7,-1
 313 0 l 1,8,9
 316 -32 316 -32 300 -52.5 c 128,-1,10
 284 -73 284 -73 246 -87 c 1,0,-1
46 -87 m 1,11,-1
 58 -122 l 1,12,13
 115 -109 115 -109 142 -77.5 c 128,-1,14
 169 -46 169 -46 169 15 c 2,15,-1
 169 105 l 1,16,-1
 77 105 l 1,17,-1
 77 0 l 1,18,-1
 113 0 l 1,19,20
 116 -32 116 -32 100 -52.5 c 128,-1,21
 84 -73 84 -73 46 -87 c 1,11,-1
EndSplineSet
EndChar

StartChar: perthousand
Encoding: 8240 8240 184
Width: 1211
Flags: W
LayerCount: 2
Fore
SplineSet
369 530 m 256,0,1
 369 566 369 566 357.5 598 c 128,-1,2
 346 630 346 630 325.5 654.5 c 128,-1,3
 305 679 305 679 276 693.5 c 128,-1,4
 247 708 247 708 212 708 c 0,5,6
 176 708 176 708 146.5 693.5 c 128,-1,7
 117 679 117 679 96 654 c 128,-1,8
 75 629 75 629 63.5 596.5 c 128,-1,9
 52 564 52 564 52 528 c 256,10,11
 52 492 52 492 63.5 460 c 128,-1,12
 75 428 75 428 95.5 403.5 c 128,-1,13
 116 379 116 379 145 364.5 c 128,-1,14
 174 350 174 350 210 350 c 256,15,16
 246 350 246 350 275 364.5 c 128,-1,17
 304 379 304 379 325 404 c 128,-1,18
 346 429 346 429 357.5 461.5 c 128,-1,19
 369 494 369 494 369 530 c 256,0,1
638 700 m 1,20,-1
 124 0 l 1,21,-1
 196 0 l 1,22,-1
 709 700 l 1,23,-1
 638 700 l 1,20,-1
1158 172 m 256,24,25
 1158 208 1158 208 1147 240 c 128,-1,26
 1136 272 1136 272 1115.5 296.5 c 128,-1,27
 1095 321 1095 321 1066 335.5 c 128,-1,28
 1037 350 1037 350 1001 350 c 256,29,30
 965 350 965 350 936 335.5 c 128,-1,31
 907 321 907 321 886 296 c 128,-1,32
 865 271 865 271 853.5 238.5 c 128,-1,33
 842 206 842 206 842 170 c 256,34,35
 842 134 842 134 853.5 102 c 128,-1,36
 865 70 865 70 885.5 45.5 c 128,-1,37
 906 21 906 21 935 6.5 c 128,-1,38
 964 -8 964 -8 999 -8 c 0,39,40
 1035 -8 1035 -8 1064.5 6.5 c 128,-1,41
 1094 21 1094 21 1114.5 46 c 128,-1,42
 1135 71 1135 71 1146.5 103.5 c 128,-1,43
 1158 136 1158 136 1158 172 c 256,24,25
781 172 m 256,44,45
 781 208 781 208 770 240 c 128,-1,46
 759 272 759 272 738.5 296.5 c 128,-1,47
 718 321 718 321 689 335.5 c 128,-1,48
 660 350 660 350 624 350 c 256,49,50
 588 350 588 350 559 335.5 c 128,-1,51
 530 321 530 321 509 296 c 128,-1,52
 488 271 488 271 476.5 238.5 c 128,-1,53
 465 206 465 206 465 170 c 256,54,55
 465 134 465 134 476.5 102 c 128,-1,56
 488 70 488 70 508.5 45.5 c 128,-1,57
 529 21 529 21 558 6.5 c 128,-1,58
 587 -8 587 -8 622 -8 c 0,59,60
 658 -8 658 -8 687.5 6.5 c 128,-1,61
 717 21 717 21 737.5 46 c 128,-1,62
 758 71 758 71 769.5 103.5 c 128,-1,63
 781 136 781 136 781 172 c 256,44,45
303 528 m 0,64,65
 303 502 303 502 296.5 480 c 128,-1,66
 290 458 290 458 278 441.5 c 128,-1,67
 266 425 266 425 249 415.5 c 128,-1,68
 232 406 232 406 212 406 c 256,69,70
 192 406 192 406 175.5 415.5 c 128,-1,71
 159 425 159 425 146 441.5 c 128,-1,72
 133 458 133 458 126 480.5 c 128,-1,73
 119 503 119 503 119 530 c 0,74,75
 119 555 119 555 125.5 577.5 c 128,-1,76
 132 600 132 600 144 616.5 c 128,-1,77
 156 633 156 633 172.5 642.5 c 128,-1,78
 189 652 189 652 210 652 c 0,79,80
 229 652 229 652 246 642.5 c 128,-1,81
 263 633 263 633 275.5 616.5 c 128,-1,82
 288 600 288 600 295.5 577.5 c 128,-1,83
 303 555 303 555 303 528 c 0,64,65
1092 170 m 0,84,85
 1092 144 1092 144 1085.5 122 c 128,-1,86
 1079 100 1079 100 1067 83.5 c 128,-1,87
 1055 67 1055 67 1038.5 57.5 c 128,-1,88
 1022 48 1022 48 1001 48 c 0,89,90
 981 48 981 48 964.5 57.5 c 128,-1,91
 948 67 948 67 935 83.5 c 128,-1,92
 922 100 922 100 915 122.5 c 128,-1,93
 908 145 908 145 908 172 c 0,94,95
 908 197 908 197 914.5 219.5 c 128,-1,96
 921 242 921 242 933 258.5 c 128,-1,97
 945 275 945 275 962 284.5 c 128,-1,98
 979 294 979 294 999 294 c 0,99,100
 1018 294 1018 294 1035 284.5 c 128,-1,101
 1052 275 1052 275 1065 258.5 c 128,-1,102
 1078 242 1078 242 1085 219.5 c 128,-1,103
 1092 197 1092 197 1092 170 c 0,84,85
715 170 m 0,104,105
 715 144 715 144 708.5 122 c 128,-1,106
 702 100 702 100 690 83.5 c 128,-1,107
 678 67 678 67 661.5 57.5 c 128,-1,108
 645 48 645 48 624 48 c 0,109,110
 604 48 604 48 587.5 57.5 c 128,-1,111
 571 67 571 67 558 83.5 c 128,-1,112
 545 100 545 100 538 122.5 c 128,-1,113
 531 145 531 145 531 172 c 0,114,115
 531 197 531 197 537.5 219.5 c 128,-1,116
 544 242 544 242 556 258.5 c 128,-1,117
 568 275 568 275 585 284.5 c 128,-1,118
 602 294 602 294 622 294 c 0,119,120
 641 294 641 294 658 284.5 c 128,-1,121
 675 275 675 275 688 258.5 c 128,-1,122
 701 242 701 242 708 219.5 c 128,-1,123
 715 197 715 197 715 170 c 0,104,105
EndSplineSet
EndChar

StartChar: apple
Encoding: 63743 63743 196
Width: 967
Flags: W
LayerCount: 2
Fore
SplineSet
868 0 m 1,0,-1
 868 750 l 1,1,-1
 101 750 l 1,2,-1
 101 0 l 1,3,-1
 868 0 l 1,0,-1
859 -104 m 1,4,-1
 853 -70 l 1,5,-1
 852 -70 l 1,6,-1
 839 -96 l 1,7,-1
 826 -70 l 1,8,-1
 825 -70 l 1,9,-1
 819 -104 l 1,10,-1
 825 -104 l 1,11,-1
 828 -84 l 1,12,-1
 838 -105 l 1,13,-1
 840 -105 l 1,14,-1
 850 -84 l 1,15,-1
 853 -104 l 1,16,-1
 859 -104 l 1,4,-1
806 -87 m 0,17,18
 806 -80 806 -80 801.5 -75 c 128,-1,19
 797 -70 797 -70 790 -70 c 0,20,21
 782 -70 782 -70 777 -75 c 128,-1,22
 772 -80 772 -80 772 -88 c 0,23,24
 772 -95 772 -95 776.5 -100 c 128,-1,25
 781 -105 781 -105 789 -105 c 256,26,27
 797 -105 797 -105 801.5 -100 c 128,-1,28
 806 -95 806 -95 806 -87 c 0,17,18
758 -96 m 1,29,30
 752 -100 752 -100 748 -100 c 0,31,32
 735 -100 735 -100 735 -87 c 0,33,34
 735 -82 735 -82 738.5 -78.5 c 128,-1,35
 742 -75 742 -75 747 -75 c 0,36,37
 753 -75 753 -75 756 -78 c 2,38,-1
 758 -73 l 1,39,40
 753 -70 753 -70 747 -70 c 0,41,42
 739 -70 739 -70 734 -75 c 128,-1,43
 729 -80 729 -80 729 -88 c 0,44,45
 729 -105 729 -105 747 -105 c 0,46,47
 754 -105 754 -105 757 -102 c 2,48,-1
 758 -96 l 1,29,30
702 -71 m 1,49,-1
 695 -71 l 1,50,-1
 686 -85 l 1,51,-1
 675 -70 l 1,52,-1
 669 -71 l 1,53,-1
 683 -90 l 1,54,-1
 683 -104 l 1,55,-1
 689 -104 l 1,56,-1
 689 -90 l 1,57,-1
 702 -71 l 1,49,-1
656 -104 m 1,58,-1
 656 -71 l 1,59,-1
 650 -71 l 1,60,-1
 650 -84 l 1,61,-1
 634 -84 l 1,62,-1
 634 -71 l 1,63,-1
 628 -71 l 1,64,-1
 628 -104 l 1,65,-1
 634 -104 l 1,66,-1
 634 -89 l 1,67,-1
 650 -89 l 1,68,-1
 650 -104 l 1,69,-1
 656 -104 l 1,58,-1
612 -82 m 0,70,71
 612 -77 612 -77 607.5 -73 c 128,-1,72
 603 -69 603 -69 589 -71 c 1,73,-1
 589 -104 l 1,74,-1
 595 -104 l 1,75,-1
 595 -94 l 1,76,77
 612 -94 612 -94 612 -82 c 0,70,71
576 -104 m 1,78,-1
 560 -70 l 1,79,-1
 558 -70 l 1,80,-1
 543 -104 l 1,81,-1
 549 -104 l 1,82,-1
 552 -96 l 1,83,-1
 566 -96 l 1,84,-1
 570 -104 l 1,85,-1
 576 -104 l 1,78,-1
534 -104 m 1,86,-1
 524 -91 l 1,87,88
 531 -88 531 -88 531 -81 c 0,89,90
 531 -76 531 -76 526.5 -72.5 c 128,-1,91
 522 -69 522 -69 508 -71 c 1,92,-1
 508 -104 l 1,93,-1
 514 -104 l 1,94,-1
 514 -93 l 1,95,-1
 519 -93 l 1,96,-1
 527 -104 l 1,97,-1
 534 -104 l 1,86,-1
491 -101 m 1,98,-1
 491 -86 l 1,99,-1
 476 -86 l 1,100,-1
 476 -91 l 1,101,-1
 485 -91 l 1,102,-1
 485 -98 l 1,103,104
 481 -100 481 -100 479 -100 c 0,105,106
 466 -100 466 -100 466 -88 c 0,107,108
 466 -75 466 -75 478 -75 c 0,109,110
 485 -75 485 -75 489 -79 c 1,111,-1
 491 -74 l 1,112,113
 485 -70 485 -70 479 -70 c 0,114,115
 471 -70 471 -70 465.5 -75 c 128,-1,116
 460 -80 460 -80 460 -88 c 256,117,118
 460 -96 460 -96 465 -100.5 c 128,-1,119
 470 -105 470 -105 478 -105 c 0,120,121
 485 -105 485 -105 491 -101 c 1,98,-1
447 -87 m 0,122,123
 447 -80 447 -80 442.5 -75 c 128,-1,124
 438 -70 438 -70 431 -70 c 0,125,126
 423 -70 423 -70 418 -75 c 128,-1,127
 413 -80 413 -80 413 -88 c 0,128,129
 413 -95 413 -95 417.5 -100 c 128,-1,130
 422 -105 422 -105 430 -105 c 256,131,132
 438 -105 438 -105 442.5 -100 c 128,-1,133
 447 -95 447 -95 447 -87 c 0,122,123
400 -82 m 0,134,135
 400 -77 400 -77 395.5 -73 c 128,-1,136
 391 -69 391 -69 377 -71 c 1,137,-1
 377 -104 l 1,138,-1
 383 -104 l 1,139,-1
 383 -94 l 1,140,141
 400 -94 400 -94 400 -82 c 0,134,135
364 -71 m 1,142,-1
 357 -71 l 1,143,-1
 348 -85 l 1,144,-1
 337 -70 l 1,145,-1
 331 -71 l 1,146,-1
 345 -90 l 1,147,-1
 345 -104 l 1,148,-1
 351 -104 l 1,149,-1
 351 -90 l 1,150,-1
 364 -71 l 1,142,-1
323 -71 m 1,151,-1
 293 -71 l 1,152,-1
 293 -76 l 1,153,-1
 305 -76 l 1,154,-1
 305 -104 l 1,155,-1
 311 -104 l 1,156,-1
 311 -76 l 1,157,-1
 323 -76 l 1,158,-1
 323 -71 l 1,151,-1
267 -71 m 1,159,-1
 261 -71 l 1,160,-1
 254 -93 l 1,161,-1
 244 -70 l 1,162,-1
 243 -70 l 1,163,-1
 233 -93 l 1,164,-1
 226 -70 l 1,165,-1
 220 -71 l 1,166,-1
 232 -105 l 1,167,-1
 233 -105 l 1,168,-1
 243 -82 l 1,169,-1
 254 -105 l 1,170,-1
 255 -105 l 1,171,-1
 267 -71 l 1,159,-1
211 -71 m 1,172,-1
 205 -71 l 1,173,-1
 198 -93 l 1,174,-1
 188 -70 l 1,175,-1
 187 -70 l 1,176,-1
 177 -93 l 1,177,-1
 170 -70 l 1,178,-1
 164 -71 l 1,179,-1
 176 -105 l 1,180,-1
 177 -105 l 1,181,-1
 187 -82 l 1,182,-1
 198 -105 l 1,183,-1
 199 -105 l 1,184,-1
 211 -71 l 1,172,-1
155 -71 m 1,185,-1
 149 -71 l 1,186,-1
 142 -93 l 1,187,-1
 132 -70 l 1,188,-1
 131 -70 l 1,189,-1
 121 -93 l 1,190,-1
 114 -70 l 1,191,-1
 108 -71 l 1,192,-1
 120 -105 l 1,193,-1
 121 -105 l 1,194,-1
 131 -82 l 1,195,-1
 142 -105 l 1,196,-1
 143 -105 l 1,197,-1
 155 -71 l 1,185,-1
716 -101 m 256,198,199
 716 -97 716 -97 712 -97 c 256,200,201
 708 -97 708 -97 708 -101 c 256,202,203
 708 -105 708 -105 712 -105 c 256,204,205
 716 -105 716 -105 716 -101 c 256,198,199
284 -101 m 256,206,207
 284 -97 284 -97 280 -97 c 256,208,209
 276 -97 276 -97 276 -101 c 256,210,211
 276 -105 276 -105 280 -105 c 256,212,213
 284 -105 284 -105 284 -101 c 256,206,207
559 686 m 1,214,-1
 557 686 l 1,215,216
 557 686 557 686 554.5 690.5 c 128,-1,217
 552 695 552 695 547 695 c 0,218,219
 544 695 544 695 544 692 c 2,220,-1
 544 669 l 2,221,222
 544 664 544 664 546 664 c 0,223,224
 549 664 549 664 549 664 c 1,225,-1
 549 662 l 1,226,-1
 532 662 l 1,227,-1
 532 664 l 1,228,229
 532 664 532 664 534 664 c 0,230,231
 537 664 537 664 537 669 c 2,232,-1
 537 692 l 2,233,234
 537 695 537 695 534 695 c 0,235,236
 529 695 529 695 526.5 690.5 c 128,-1,237
 524 686 524 686 524 686 c 1,238,-1
 522 686 l 1,239,240
 522 686 522 686 522.5 690.5 c 128,-1,241
 523 695 523 695 523 698 c 1,242,243
 526 697 526 697 541 697 c 256,244,245
 556 697 556 697 558 698 c 1,246,247
 559 695 559 695 559 690 c 0,248,249
 559 686 559 686 559 686 c 1,214,-1
504 662 m 1,250,-1
 486 662 l 1,251,-1
 486 664 l 1,252,253
 486 664 486 664 488 664 c 0,254,255
 491 664 491 664 491 669 c 2,256,-1
 491 679 l 1,257,-1
 474 679 l 1,258,-1
 474 669 l 2,259,260
 474 665 474 665 476.5 664.5 c 128,-1,261
 479 664 479 664 479 664 c 1,262,-1
 479 662 l 1,263,-1
 462 662 l 1,264,-1
 462 664 l 1,265,266
 462 664 462 664 464.5 664.5 c 128,-1,267
 467 665 467 665 467 669 c 2,268,-1
 467 690 l 2,269,270
 467 695 467 695 464 695 c 0,271,272
 462 695 462 695 462 695 c 1,273,-1
 462 697 l 1,274,-1
 479 697 l 1,275,-1
 479 696 l 1,276,-1
 479 695 l 1,277,278
 479 695 479 695 476 695 c 0,279,280
 474 695 474 695 474 690 c 2,281,-1
 474 681 l 1,282,-1
 491 681 l 1,283,-1
 491 690 l 2,284,285
 491 695 491 695 488 695 c 0,286,287
 486 695 486 695 486 695 c 1,288,-1
 486 696 l 1,289,-1
 486 697 l 1,290,-1
 504 697 l 1,291,-1
 504 695 l 1,292,293
 504 695 504 695 501 695 c 256,294,295
 498 695 498 695 498 690 c 2,296,-1
 498 669 l 2,297,298
 498 664 498 664 501 664 c 256,299,300
 504 664 504 664 504 664 c 1,301,-1
 504 662 l 1,250,-1
439 664 m 1,302,-1
 439 662 l 1,303,-1
 409 662 l 1,304,-1
 407 673 l 1,305,-1
 409 674 l 1,306,307
 409 674 409 674 411.5 669.5 c 128,-1,308
 414 665 414 665 419 665 c 2,309,-1
 423 665 l 2,310,311
 427 665 427 665 427 668 c 2,312,-1
 427 679 l 1,313,-1
 423 679 l 2,314,315
 418 679 418 679 417.5 676 c 128,-1,316
 417 673 417 673 417 673 c 1,317,-1
 415 673 l 1,318,-1
 415 686 l 1,319,-1
 417 686 l 1,320,321
 417 686 417 686 417.5 683.5 c 128,-1,322
 418 681 418 681 423 681 c 2,323,-1
 427 681 l 1,324,-1
 427 691 l 2,325,326
 427 694 427 694 423 694 c 2,327,-1
 419 694 l 2,328,329
 414 694 414 694 412 690 c 128,-1,330
 410 686 410 686 410 686 c 1,331,-1
 408 687 l 1,332,-1
 410 697 l 1,333,-1
 439 697 l 1,334,-1
 439 695 l 1,335,336
 439 695 439 695 436 695 c 0,337,338
 434 695 434 695 434 690 c 2,339,-1
 434 669 l 2,340,341
 434 664 434 664 436 664 c 0,342,343
 439 664 439 664 439 664 c 1,302,-1
827 618 m 1,344,-1
 142 618 l 1,345,-1
 142 624 l 1,346,-1
 827 624 l 1,347,-1
 827 618 l 1,344,-1
696 540 m 0,348,349
 696 528 696 528 688 523 c 128,-1,350
 680 518 680 518 673 518 c 0,351,352
 659 518 659 518 647.5 529 c 128,-1,353
 636 540 636 540 636 556 c 0,354,355
 636 568 636 568 644 573 c 128,-1,356
 652 578 652 578 659 578 c 0,357,358
 673 578 673 578 684.5 566.5 c 128,-1,359
 696 555 696 555 696 540 c 0,348,349
589 537 m 0,360,361
 589 529 589 529 583 523.5 c 128,-1,362
 577 518 577 518 564 518 c 0,363,364
 548 518 548 518 548 531 c 0,365,366
 548 541 548 541 557 541 c 0,367,368
 564 541 564 541 564 536 c 256,369,370
 564 531 564 531 560 531 c 0,371,372
 558 531 558 531 557 532 c 128,-1,373
 556 533 556 533 555 533 c 0,374,375
 552 533 552 533 552 530 c 0,376,377
 552 521 552 521 564 521 c 256,378,379
 576 521 576 521 576 535 c 0,380,381
 576 545 576 545 570 550 c 1,382,383
 565 545 565 545 559 545 c 0,384,385
 551 545 551 545 551 551 c 0,386,387
 551 559 551 559 567 557 c 0,388,389
 569 559 569 559 569 563 c 0,390,391
 569 575 569 575 559 575 c 0,392,393
 552 575 552 575 552 570 c 0,394,395
 552 568 552 568 553.5 567.5 c 128,-1,396
 555 567 555 567 555 564 c 256,397,398
 555 561 555 561 551 561 c 0,399,400
 546 561 546 561 546 567 c 0,401,402
 546 578 546 578 559 578 c 0,403,404
 570 578 570 578 575 573 c 128,-1,405
 580 568 580 568 580 563 c 0,406,407
 580 557 580 557 575 554 c 1,408,409
 589 549 589 549 589 537 c 0,360,361
295 537 m 0,410,411
 295 529 295 529 289 523.5 c 128,-1,412
 283 518 283 518 270 518 c 0,413,414
 254 518 254 518 254 531 c 0,415,416
 254 541 254 541 263 541 c 0,417,418
 270 541 270 541 270 536 c 256,419,420
 270 531 270 531 266 531 c 0,421,422
 264 531 264 531 263 532 c 128,-1,423
 262 533 262 533 261 533 c 0,424,425
 258 533 258 533 258 530 c 0,426,427
 258 521 258 521 270 521 c 256,428,429
 282 521 282 521 282 535 c 0,430,431
 282 545 282 545 276 550 c 1,432,433
 271 545 271 545 265 545 c 0,434,435
 257 545 257 545 257 551 c 0,436,437
 257 559 257 559 273 557 c 0,438,439
 275 559 275 559 275 563 c 0,440,441
 275 575 275 575 265 575 c 0,442,443
 258 575 258 575 258 570 c 0,444,445
 258 568 258 568 259.5 567.5 c 128,-1,446
 261 567 261 567 261 564 c 256,447,448
 261 561 261 561 257 561 c 0,449,450
 252 561 252 561 252 567 c 0,451,452
 252 578 252 578 265 578 c 0,453,454
 276 578 276 578 281 573 c 128,-1,455
 286 568 286 568 286 563 c 0,456,457
 286 557 286 557 281 554 c 1,458,459
 295 549 295 549 295 537 c 0,410,411
820 522 m 1,460,-1
 821 519 l 1,461,-1
 792 519 l 1,462,-1
 791 522 l 1,463,464
 791 522 791 522 795.5 522.5 c 128,-1,465
 800 523 800 523 798 530 c 2,466,-1
 795 546 l 1,467,-1
 771 546 l 1,468,-1
 774 530 l 2,469,470
 776 523 776 523 780 522.5 c 128,-1,471
 784 522 784 522 784 522 c 1,472,-1
 785 519 l 1,473,-1
 756 519 l 1,474,-1
 755 522 l 1,475,476
 755 522 755 522 759.5 522.5 c 128,-1,477
 764 523 764 523 762 530 c 2,478,-1
 755 565 l 2,479,480
 753 572 753 572 749 572.5 c 128,-1,481
 745 573 745 573 745 573 c 1,482,-1
 744 576 l 1,483,-1
 773 576 l 1,484,-1
 774 573 l 1,485,486
 774 573 774 573 769.5 572.5 c 128,-1,487
 765 572 765 572 767 565 c 2,488,-1
 770 550 l 1,489,-1
 794 550 l 1,490,-1
 791 565 l 2,491,492
 789 572 789 572 785.5 572.5 c 128,-1,493
 782 573 782 573 782 573 c 1,494,-1
 781 576 l 1,495,-1
 809 576 l 1,496,-1
 810 573 l 1,497,498
 810 573 810 573 805.5 572.5 c 128,-1,499
 801 572 801 572 803 565 c 2,500,-1
 810 530 l 2,501,502
 812 523 812 523 816 522.5 c 128,-1,503
 820 522 820 522 820 522 c 1,460,-1
498 519 m 1,504,-1
 469 519 l 1,505,-1
 468 522 l 1,506,507
 468 522 468 522 472.5 522.5 c 128,-1,508
 477 523 477 523 475 530 c 2,509,-1
 472 547 l 1,510,-1
 468 547 l 2,511,512
 461 547 461 547 460.5 541.5 c 128,-1,513
 460 536 460 536 460 536 c 1,514,-1
 457 536 l 1,515,-1
 452 559 l 1,516,-1
 455 559 l 1,517,518
 455 559 455 559 457.5 554.5 c 128,-1,519
 460 550 460 550 467 550 c 2,520,-1
 471 550 l 1,521,-1
 468 566 l 2,522,523
 467 572 467 572 462 572 c 2,524,-1
 458 572 l 2,525,526
 447 572 447 572 446 565.5 c 128,-1,527
 445 559 445 559 445 559 c 1,528,-1
 441 559 l 1,529,530
 441 559 441 559 441.5 566 c 128,-1,531
 442 573 442 573 441 576 c 2,532,-1
 486 576 l 1,533,-1
 487 573 l 1,534,535
 487 573 487 573 482.5 572.5 c 128,-1,536
 478 572 478 572 480 565 c 2,537,-1
 487 530 l 2,538,539
 489 523 489 523 493 522.5 c 128,-1,540
 497 522 497 522 497 522 c 1,541,-1
 498 519 l 1,504,-1
202 522 m 1,542,-1
 203 519 l 1,543,-1
 174 519 l 1,544,-1
 173 522 l 1,545,546
 173 522 173 522 177.5 522.5 c 128,-1,547
 182 523 182 523 180 530 c 2,548,-1
 177 545 l 2,549,550
 173 545 173 545 172 542 c 2,551,-1
 160 519 l 1,552,-1
 141 519 l 1,553,-1
 140 522 l 1,554,555
 140 522 140 522 145 522.5 c 128,-1,556
 150 523 150 523 154 530 c 2,557,-1
 163 546 l 1,558,559
 155 547 155 547 149.5 551 c 128,-1,560
 144 555 144 555 144 561 c 0,561,562
 144 576 144 576 164 576 c 2,563,-1
 191 576 l 1,564,-1
 192 573 l 1,565,566
 192 573 192 573 187.5 572.5 c 128,-1,567
 183 572 183 572 185 565 c 2,568,-1
 192 530 l 2,569,570
 194 523 194 523 198 522.5 c 128,-1,571
 202 522 202 522 202 522 c 1,542,-1
400 521 m 0,572,573
 400 518 400 518 396 518 c 0,574,575
 387 518 387 518 384 525 c 1,576,577
 376 525 376 525 374 518.5 c 128,-1,578
 372 512 372 512 359 512 c 0,579,580
 354 512 354 512 349 515.5 c 128,-1,581
 344 519 344 519 344 524 c 0,582,583
 344 531 344 531 349 531 c 256,584,585
 354 531 354 531 354 526 c 0,586,587
 354 524 354 524 353 523.5 c 128,-1,588
 352 523 352 523 352 521 c 0,589,590
 352 517 352 517 357 517 c 256,591,592
 362 517 362 517 365.5 523.5 c 128,-1,593
 369 530 369 530 380 530 c 1,594,595
 374 536 374 536 371.5 543.5 c 128,-1,596
 369 551 369 551 368 558 c 128,-1,597
 367 565 367 565 365.5 570 c 128,-1,598
 364 575 364 575 359 575 c 256,599,600
 354 575 354 575 354 569 c 256,601,602
 354 563 354 563 350 563 c 0,603,604
 345 563 345 563 345 568 c 0,605,606
 345 571 345 571 349 574.5 c 128,-1,607
 353 578 353 578 358 578 c 0,608,609
 370 578 370 578 374.5 571.5 c 128,-1,610
 379 565 379 565 380.5 556.5 c 128,-1,611
 382 548 382 548 382.5 540.5 c 128,-1,612
 383 533 383 533 387 530 c 0,613,614
 394 529 394 529 397 526 c 128,-1,615
 400 523 400 523 400 521 c 0,572,573
827 475 m 1,616,-1
 142 475 l 1,617,-1
 142 481 l 1,618,-1
 827 481 l 1,619,-1
 827 475 l 1,616,-1
827 378 m 1,620,-1
 791 378 l 1,621,-1
 791 406 l 1,622,-1
 780 406 l 1,623,-1
 780 341 l 1,624,-1
 794 341 l 1,625,-1
 794 308 l 1,626,-1
 713 308 l 1,627,-1
 713 341 l 1,628,-1
 727 341 l 1,629,-1
 727 406 l 1,630,-1
 716 406 l 1,631,-1
 716 378 l 1,632,-1
 680 378 l 1,633,-1
 680 440 l 1,634,-1
 827 440 l 1,635,-1
 827 378 l 1,620,-1
648 406 m 1,636,-1
 634 406 l 1,637,-1
 597 361 l 1,638,-1
 597 341 l 1,639,-1
 612 341 l 1,640,-1
 612 308 l 1,641,-1
 531 308 l 1,642,-1
 531 341 l 1,643,-1
 545 341 l 1,644,-1
 545 360 l 1,645,-1
 508 406 l 1,646,-1
 496 406 l 1,647,-1
 496 440 l 1,648,-1
 558 440 l 1,649,-1
 558 406 l 1,650,-1
 548 406 l 1,651,-1
 563 383 l 1,652,-1
 578 406 l 1,653,-1
 567 406 l 1,654,-1
 567 440 l 1,655,-1
 648 440 l 1,656,-1
 648 406 l 1,636,-1
458 308 m 1,657,-1
 377 308 l 1,658,-1
 377 341 l 1,659,-1
 392 341 l 1,660,-1
 392 360 l 1,661,-1
 362 360 l 2,662,663
 340 360 340 360 327.5 371.5 c 128,-1,664
 315 383 315 383 315 400 c 256,665,666
 315 417 315 417 327.5 428.5 c 128,-1,667
 340 440 340 440 362 440 c 2,668,-1
 458 440 l 1,669,-1
 458 406 l 1,670,-1
 444 406 l 1,671,-1
 444 341 l 1,672,-1
 458 341 l 1,673,-1
 458 308 l 1,657,-1
283 308 m 1,674,-1
 142 308 l 1,675,-1
 142 369 l 1,676,-1
 183 369 l 1,677,-1
 183 341 l 1,678,-1
 216 341 l 1,679,-1
 216 362 l 1,680,-1
 192 362 l 1,681,-1
 192 386 l 1,682,-1
 216 386 l 1,683,-1
 216 406 l 1,684,-1
 183 406 l 1,685,-1
 183 378 l 1,686,-1
 142 378 l 1,687,-1
 142 440 l 1,688,-1
 283 440 l 1,689,-1
 283 406 l 1,690,-1
 269 406 l 1,691,-1
 269 341 l 1,692,-1
 283 341 l 1,693,-1
 283 308 l 1,674,-1
827 271 m 1,694,-1
 142 271 l 1,695,-1
 142 277 l 1,696,-1
 827 277 l 1,697,-1
 827 271 l 1,694,-1
728 192 m 0,698,699
 728 180 728 180 720 175 c 128,-1,700
 712 170 712 170 705 170 c 0,701,702
 691 170 691 170 679.5 181 c 128,-1,703
 668 192 668 192 668 208 c 0,704,705
 668 220 668 220 676 225 c 128,-1,706
 684 230 684 230 691 230 c 0,707,708
 705 230 705 230 716.5 218.5 c 128,-1,709
 728 207 728 207 728 192 c 0,698,699
203 217 m 1,710,-1
 201 215 l 2,711,712
 199 217 199 217 196.5 219.5 c 128,-1,713
 194 222 194 222 189 222 c 0,714,715
 180 222 180 222 180 209 c 0,716,717
 180 201 180 201 185 184 c 0,718,719
 187 176 187 176 191 175.5 c 128,-1,720
 195 175 195 175 195 175 c 1,721,-1
 196 171 l 1,722,-1
 168 171 l 1,723,-1
 167 175 l 1,724,725
 167 175 167 175 171.5 176 c 128,-1,726
 176 177 176 177 173 190 c 0,727,728
 170 202 170 202 164.5 212.5 c 128,-1,729
 159 223 159 223 149 223 c 0,730,731
 141 223 141 223 141 217 c 1,732,-1
 138 218 l 1,733,734
 138 224 138 224 141.5 227 c 128,-1,735
 145 230 145 230 150 230 c 0,736,737
 158 230 158 230 163 223.5 c 128,-1,738
 168 217 168 217 171 207 c 1,739,740
 170 230 170 230 185 230 c 0,741,742
 193 230 193 230 196.5 226 c 128,-1,743
 200 222 200 222 203 217 c 1,710,-1
823 171 m 1,744,-1
 794 171 l 1,745,-1
 793 174 l 1,746,747
 793 174 793 174 797.5 174.5 c 128,-1,748
 802 175 802 175 800 182 c 2,749,-1
 797 199 l 1,750,-1
 793 199 l 2,751,752
 786 199 786 199 785.5 193.5 c 128,-1,753
 785 188 785 188 785 188 c 1,754,-1
 782 188 l 1,755,-1
 777 211 l 1,756,-1
 780 211 l 1,757,758
 780 211 780 211 782.5 206.5 c 128,-1,759
 785 202 785 202 792 202 c 2,760,-1
 796 202 l 1,761,-1
 793 218 l 2,762,763
 792 224 792 224 787 224 c 2,764,-1
 783 224 l 2,765,766
 772 224 772 224 771 217.5 c 128,-1,767
 770 211 770 211 770 211 c 1,768,-1
 766 211 l 1,769,770
 766 211 766 211 766.5 218 c 128,-1,771
 767 225 767 225 766 228 c 2,772,-1
 811 228 l 1,773,-1
 812 225 l 1,774,775
 812 225 812 225 807.5 224.5 c 128,-1,776
 803 224 803 224 805 217 c 2,777,-1
 812 182 l 2,778,779
 814 175 814 175 818 174.5 c 128,-1,780
 822 174 822 174 822 174 c 1,781,-1
 823 171 l 1,744,-1
621 225 m 1,782,783
 621 225 621 225 616 224.5 c 128,-1,784
 611 224 611 224 613 216 c 2,785,-1
 618 194 l 2,786,787
 620 186 620 186 618 178 c 128,-1,788
 616 170 616 170 599 170 c 0,789,790
 585 170 585 170 579 179.5 c 128,-1,791
 573 189 573 189 571 197 c 2,792,-1
 567 216 l 2,793,794
 565 224 565 224 560.5 224.5 c 128,-1,795
 556 225 556 225 556 225 c 1,796,-1
 555 228 l 1,797,-1
 579 228 l 1,798,-1
 579 225 l 1,799,800
 579 225 579 225 574.5 224.5 c 128,-1,801
 570 224 570 224 572 216 c 2,802,-1
 576 197 l 2,803,804
 578 188 578 188 583 181.5 c 128,-1,805
 588 175 588 175 596 175 c 0,806,807
 607 175 607 175 608 180 c 128,-1,808
 609 185 609 185 607 195 c 2,809,-1
 602 216 l 2,810,811
 600 224 600 224 596 224.5 c 128,-1,812
 592 225 592 225 592 225 c 1,813,-1
 591 228 l 1,814,-1
 620 228 l 1,815,-1
 621 225 l 1,782,783
522 174 m 1,816,-1
 523 171 l 1,817,-1
 502 171 l 1,818,-1
 501 174 l 1,819,820
 501 174 501 174 505 175 c 128,-1,821
 509 176 509 176 507 184 c 2,822,-1
 501 214 l 1,823,-1
 471 170 l 1,824,-1
 468 171 l 1,825,-1
 460 216 l 2,826,827
 458 223 458 223 454.5 224 c 128,-1,828
 451 225 451 225 451 225 c 1,829,-1
 450 228 l 1,830,-1
 471 228 l 1,831,-1
 472 225 l 1,832,833
 472 225 472 225 467.5 224 c 128,-1,834
 463 223 463 223 465 216 c 2,835,-1
 470 186 l 1,836,-1
 499 228 l 1,837,-1
 513 228 l 1,838,-1
 514 225 l 1,839,840
 514 225 514 225 509 224.5 c 128,-1,841
 504 224 504 224 506 216 c 2,842,-1
 513 184 l 2,843,844
 515 176 515 176 518.5 175 c 128,-1,845
 522 174 522 174 522 174 c 1,816,-1
414 171 m 1,846,-1
 382 171 l 2,847,848
 369 171 369 171 358 180.5 c 128,-1,849
 347 190 347 190 347 206 c 0,850,851
 347 217 347 217 355 222.5 c 128,-1,852
 363 228 363 228 372 228 c 2,853,-1
 402 228 l 1,854,-1
 403 225 l 1,855,856
 392 224 392 224 395 215 c 2,857,-1
 403 184 l 2,858,859
 405 176 405 176 409 175.5 c 128,-1,860
 413 175 413 175 413 175 c 1,861,-1
 414 171 l 1,846,-1
306 174 m 1,862,-1
 307 171 l 1,863,-1
 278 171 l 1,864,-1
 277 174 l 1,865,866
 277 174 277 174 281.5 174.5 c 128,-1,867
 286 175 286 175 284 182 c 2,868,-1
 281 197 l 2,869,870
 277 197 277 197 276 194 c 2,871,-1
 264 171 l 1,872,-1
 245 171 l 1,873,-1
 244 174 l 1,874,875
 244 174 244 174 249 174.5 c 128,-1,876
 254 175 254 175 258 182 c 2,877,-1
 267 198 l 1,878,879
 259 199 259 199 253.5 203 c 128,-1,880
 248 207 248 207 248 213 c 0,881,882
 248 228 248 228 268 228 c 2,883,-1
 295 228 l 1,884,-1
 296 225 l 1,885,886
 296 225 296 225 291.5 224.5 c 128,-1,887
 287 224 287 224 289 217 c 2,888,-1
 296 182 l 2,889,890
 298 175 298 175 302 174.5 c 128,-1,891
 306 174 306 174 306 174 c 1,862,-1
827 127 m 1,892,-1
 142 127 l 1,893,-1
 142 133 l 1,894,-1
 827 133 l 1,895,-1
 827 127 l 1,892,-1
694 46 m 1,896,-1
 680 46 l 1,897,-1
 680 48 l 1,898,899
 680 48 680 48 682.5 49 c 128,-1,900
 685 50 685 50 685 53 c 2,901,-1
 685 73 l 1,902,-1
 660 45 l 1,903,-1
 657 45 l 1,904,-1
 657 73 l 2,905,906
 657 77 657 77 654 78 c 128,-1,907
 651 79 651 79 651 79 c 1,908,-1
 651 81 l 1,909,-1
 666 81 l 1,910,-1
 666 79 l 1,911,912
 666 79 666 79 663 78 c 128,-1,913
 660 77 660 77 660 73 c 2,914,-1
 660 55 l 1,915,-1
 684 81 l 1,916,-1
 694 81 l 1,917,-1
 694 79 l 1,918,919
 694 79 694 79 691 77 c 128,-1,920
 688 75 688 75 688 73 c 2,921,-1
 688 53 l 2,922,923
 688 50 688 50 691 49 c 128,-1,924
 694 48 694 48 694 48 c 1,925,-1
 694 46 l 1,896,-1
633 48 m 1,926,-1
 633 46 l 1,927,-1
 603 46 l 1,928,-1
 601 57 l 1,929,-1
 603 58 l 1,930,931
 603 58 603 58 605.5 53.5 c 128,-1,932
 608 49 608 49 613 49 c 2,933,-1
 617 49 l 2,934,935
 621 49 621 49 621 52 c 2,936,-1
 621 63 l 1,937,-1
 617 63 l 2,938,939
 612 63 612 63 611.5 60 c 128,-1,940
 611 57 611 57 611 57 c 1,941,-1
 609 57 l 1,942,-1
 609 70 l 1,943,-1
 611 70 l 1,944,945
 611 70 611 70 611.5 67.5 c 128,-1,946
 612 65 612 65 617 65 c 2,947,-1
 621 65 l 1,948,-1
 621 75 l 2,949,950
 621 78 621 78 617 78 c 2,951,-1
 613 78 l 2,952,953
 608 78 608 78 606 74 c 128,-1,954
 604 70 604 70 604 70 c 1,955,-1
 602 71 l 1,956,-1
 604 81 l 1,957,-1
 633 81 l 1,958,-1
 633 79 l 1,959,960
 633 79 633 79 630 79 c 0,961,962
 628 79 628 79 628 74 c 2,963,-1
 628 53 l 2,964,965
 628 48 628 48 630 48 c 0,966,967
 633 48 633 48 633 48 c 1,926,-1
583 81 m 1,968,-1
 583 79 l 1,969,970
 583 79 583 79 580.5 78.5 c 128,-1,971
 578 78 578 78 576 73 c 2,972,-1
 564 46 l 1,973,-1
 563 46 l 1,974,-1
 554 62 l 1,975,-1
 546 46 l 2,976,977
 546 45 546 45 545.5 45.5 c 128,-1,978
 545 46 545 46 545 46 c 1,979,-1
 544 46 l 1,980,-1
 531 73 l 2,981,982
 529 77 529 77 527 78 c 128,-1,983
 525 79 525 79 525 79 c 1,984,-1
 525 81 l 1,985,-1
 538 81 l 1,986,-1
 538 79 l 1,987,988
 538 79 538 79 536 78 c 128,-1,989
 534 77 534 77 536 73 c 2,990,-1
 544 55 l 1,991,-1
 551 68 l 1,992,-1
 548 73 l 2,993,994
 545 78 545 78 543 78.5 c 128,-1,995
 541 79 541 79 541 79 c 1,996,-1
 540 81 l 1,997,-1
 566 81 l 1,998,-1
 566 79 l 1,999,1000
 566 79 566 79 564 77.5 c 128,-1,1001
 562 76 562 76 560 73 c 2,1002,-1
 556 65 l 1,1003,-1
 561 55 l 1,1004,-1
 570 74 l 2,1005,1006
 572 77 572 77 570 78 c 128,-1,1007
 568 79 568 79 568 79 c 1,1008,-1
 568 81 l 1,1009,-1
 583 81 l 1,968,-1
480 79 m 1,1010,1011
 480 79 480 79 477.5 78.5 c 128,-1,1012
 475 78 475 78 473 74 c 2,1013,-1
 465 62 l 1,1014,-1
 465 54 l 2,1015,1016
 465 49 465 49 467.5 48.5 c 128,-1,1017
 470 48 470 48 470 48 c 1,1018,-1
 470 46 l 1,1019,-1
 453 46 l 1,1020,-1
 453 48 l 1,1021,1022
 453 48 453 48 455.5 48.5 c 128,-1,1023
 458 49 458 49 458 54 c 2,1024,-1
 458 62 l 1,1025,-1
 450 74 l 2,1026,1027
 448 78 448 78 445 78.5 c 128,-1,1028
 442 79 442 79 442 79 c 1,1029,-1
 442 81 l 1,1030,-1
 457 81 l 1,1031,-1
 457 79 l 1,1032,1033
 457 79 457 79 454.5 78.5 c 128,-1,1034
 452 78 452 78 454 74 c 2,1035,-1
 460 65 l 1,1036,-1
 466 74 l 2,1037,1038
 468 78 468 78 466.5 78.5 c 128,-1,1039
 465 79 465 79 465 79 c 1,1040,-1
 465 81 l 1,1041,-1
 480 81 l 1,1042,-1
 480 79 l 1,1010,1011
425 64 m 256,1043,1044
 425 56 425 56 420 50.5 c 128,-1,1045
 415 45 415 45 405 45 c 256,1046,1047
 395 45 395 45 390 50.5 c 128,-1,1048
 385 56 385 56 385 64 c 256,1049,1050
 385 72 385 72 390 77 c 128,-1,1051
 395 82 395 82 405 82 c 256,1052,1053
 415 82 415 82 420 77 c 128,-1,1054
 425 72 425 72 425 64 c 256,1043,1044
364 46 m 1,1055,-1
 347 46 l 1,1056,-1
 347 48 l 1,1057,1058
 347 48 347 48 349.5 48.5 c 128,-1,1059
 352 49 352 49 352 53 c 2,1060,-1
 352 62 l 1,1061,1062
 348 62 348 62 345 58 c 2,1063,-1
 338 46 l 1,1064,-1
 327 46 l 1,1065,-1
 327 48 l 1,1066,1067
 327 48 327 48 329.5 48.5 c 128,-1,1068
 332 49 332 49 335 53 c 2,1069,-1
 342 63 l 1,1070,1071
 333 67 333 67 333 72 c 0,1072,1073
 333 81 333 81 346 81 c 2,1074,-1
 364 81 l 1,1075,-1
 364 79 l 1,1076,1077
 364 79 364 79 361.5 78.5 c 128,-1,1078
 359 78 359 78 359 73 c 2,1079,-1
 359 53 l 2,1080,1081
 359 49 359 49 361.5 48.5 c 128,-1,1082
 364 48 364 48 364 48 c 1,1083,-1
 364 46 l 1,1055,-1
309 46 m 1,1084,-1
 291 46 l 1,1085,-1
 291 48 l 1,1086,1087
 291 48 291 48 294 48.5 c 128,-1,1088
 297 49 297 49 297 54 c 2,1089,-1
 297 63 l 2,1090,1091
 295 63 295 63 293 61 c 2,1092,-1
 285 53 l 2,1093,1094
 282 49 282 49 284.5 48.5 c 128,-1,1095
 287 48 287 48 287 48 c 1,1096,-1
 287 46 l 1,1097,-1
 270 46 l 1,1098,-1
 270 48 l 1,1099,1100
 270 48 270 48 272.5 49.5 c 128,-1,1101
 275 51 275 51 277 53 c 2,1102,-1
 290 66 l 1,1103,-1
 280 75 l 2,1104,1105
 278 77 278 77 275 78 c 128,-1,1106
 272 79 272 79 272 79 c 1,1107,-1
 272 81 l 1,1108,-1
 286 81 l 1,1109,-1
 286 79 l 1,1110,1111
 286 79 286 79 284.5 78 c 128,-1,1112
 283 77 283 77 285 75 c 2,1113,-1
 293 67 l 2,1114,1115
 295 65 295 65 297 65 c 2,1116,-1
 297 74 l 2,1117,1118
 297 78 297 78 294 78.5 c 128,-1,1119
 291 79 291 79 291 79 c 1,1120,-1
 291 81 l 1,1121,-1
 309 81 l 1,1122,-1
 309 79 l 1,1123,1124
 309 79 309 79 306 78.5 c 128,-1,1125
 303 78 303 78 303 74 c 2,1126,-1
 303 54 l 2,1127,1128
 303 50 303 50 306 49 c 128,-1,1129
 309 48 309 48 309 48 c 1,1130,-1
 309 46 l 1,1084,-1
606 -83 m 0,1131,1132
 606 -89 606 -89 595 -89 c 1,1133,-1
 595 -76 l 1,1134,1135
 606 -75 606 -75 606 -83 c 0,1131,1132
525 -82 m 0,1136,1137
 525 -89 525 -89 514 -88 c 1,1138,-1
 514 -76 l 1,1139,1140
 525 -74 525 -74 525 -82 c 0,1136,1137
394 -83 m 0,1141,1142
 394 -89 394 -89 383 -89 c 1,1143,-1
 383 -76 l 1,1144,1145
 394 -75 394 -75 394 -83 c 0,1141,1142
564 -92 m 1,1146,-1
 554 -92 l 1,1147,-1
 559 -80 l 1,1148,-1
 564 -92 l 1,1146,-1
800 -88 m 0,1149,1150
 800 -100 800 -100 789 -100 c 256,1151,1152
 778 -100 778 -100 778 -87 c 0,1153,1154
 778 -75 778 -75 789 -75 c 256,1155,1156
 800 -75 800 -75 800 -88 c 0,1149,1150
441 -88 m 0,1157,1158
 441 -100 441 -100 430 -100 c 256,1159,1160
 419 -100 419 -100 419 -87 c 0,1161,1162
 419 -75 419 -75 430 -75 c 256,1163,1164
 441 -75 441 -75 441 -88 c 0,1157,1158
176 548 m 1,1165,-1
 173 567 l 2,1166,1167
 172 572 172 572 164 572 c 256,1168,1169
 156 572 156 572 156 563 c 0,1170,1171
 156 558 156 558 159.5 553 c 128,-1,1172
 163 548 163 548 171 548 c 2,1173,-1
 176 548 l 1,1165,-1
566 553 m 1,1174,1175
 564 554 564 554 559 554 c 0,1176,1177
 555 554 555 554 555 551 c 0,1178,1179
 555 549 555 549 559 549 c 256,1180,1181
 563 549 563 549 566 553 c 1,1174,1175
272 553 m 1,1182,1183
 270 554 270 554 265 554 c 0,1184,1185
 261 554 261 554 261 551 c 0,1186,1187
 261 549 261 549 265 549 c 256,1188,1189
 269 549 269 549 272 553 c 1,1182,1183
684 535 m 0,1190,1191
 684 551 684 551 676 562.5 c 128,-1,1192
 668 574 668 574 659 574 c 0,1193,1194
 648 574 648 574 648 560 c 0,1195,1196
 648 545 648 545 656 533.5 c 128,-1,1197
 664 522 664 522 673 522 c 0,1198,1199
 684 522 684 522 684 535 c 0,1190,1191
392 384 m 1,1200,-1
 392 406 l 1,1201,-1
 381 406 l 2,1202,1203
 368 406 368 406 368 395 c 256,1204,1205
 368 384 368 384 381 384 c 2,1206,-1
 392 384 l 1,1200,-1
280 200 m 1,1207,-1
 277 219 l 2,1208,1209
 276 224 276 224 268 224 c 256,1210,1211
 260 224 260 224 260 215 c 0,1212,1213
 260 210 260 210 263.5 205 c 128,-1,1214
 267 200 267 200 275 200 c 2,1215,-1
 280 200 l 1,1207,-1
716 187 m 0,1216,1217
 716 203 716 203 708 214.5 c 128,-1,1218
 700 226 700 226 691 226 c 0,1219,1220
 680 226 680 226 680 212 c 0,1221,1222
 680 197 680 197 688 185.5 c 128,-1,1223
 696 174 696 174 705 174 c 0,1224,1225
 716 174 716 174 716 187 c 0,1216,1217
393 182 m 2,1226,-1
 384 217 l 2,1227,1228
 382 222 382 222 381.5 222.5 c 128,-1,1229
 381 223 381 223 378 224 c 2,1230,-1
 372 224 l 2,1231,1232
 358 224 358 224 358 207 c 0,1233,1234
 358 195 358 195 365.5 185 c 128,-1,1235
 373 175 373 175 384 175 c 2,1236,-1
 389 175 l 2,1237,1238
 393 175 393 175 393 182 c 2,1226,-1
553 79 m 0,1239,1240
 548 79 548 79 553 70 c 1,1241,1242
 557 79 557 79 553 79 c 0,1239,1240
352 64 m 1,1243,-1
 352 74 l 2,1244,1245
 352 78 352 78 348 78 c 0,1246,1247
 341 78 341 78 341 72 c 0,1248,1249
 341 64 341 64 349 64 c 2,1250,-1
 352 64 l 1,1243,-1
417 64 m 0,1251,1252
 417 80 417 80 405 80 c 256,1253,1254
 393 80 393 80 393 64 c 0,1255,1256
 393 57 393 57 396 52 c 128,-1,1257
 399 47 399 47 405 47 c 0,1258,1259
 412 47 412 47 414.5 52 c 128,-1,1260
 417 57 417 57 417 64 c 0,1251,1252
EndSplineSet
EndChar

StartChar: dotlessi
Encoding: 305 305 201
Width: 263
Flags: W
LayerCount: 2
Fore
SplineSet
170 0 m 1,0,-1
 170 517 l 1,1,-1
 93 517 l 1,2,-1
 93 0 l 1,3,-1
 170 0 l 1,0,-1
EndSplineSet
EndChar

StartChar: circumflex
Encoding: 710 710 202
Width: 500
Flags: W
LayerCount: 2
Fore
SplineSet
249 662 m 1,0,-1
 324 595 l 1,1,-1
 390 595 l 1,2,-1
 284 726 l 1,3,-1
 216 726 l 1,4,-1
 110 595 l 1,5,-1
 174 595 l 1,6,-1
 249 662 l 1,0,-1
EndSplineSet
EndChar

StartChar: tilde
Encoding: 732 732 203
Width: 500
Flags: W
LayerCount: 2
Fore
SplineSet
414 700 m 1,0,-1
 367 713 l 1,1,2
 356 686 356 686 345.5 675 c 128,-1,3
 335 664 335 664 315 664 c 0,4,5
 302 664 302 664 286 670 c 128,-1,6
 270 676 270 676 252 683.5 c 128,-1,7
 234 691 234 691 216 697.5 c 128,-1,8
 198 704 198 704 181 704 c 0,9,10
 145 704 145 704 123 680 c 128,-1,11
 101 656 101 656 86 599 c 1,12,-1
 133 586 l 1,13,14
 144 613 144 613 154.5 624 c 128,-1,15
 165 635 165 635 185 635 c 0,16,17
 198 635 198 635 214 628.5 c 128,-1,18
 230 622 230 622 248 614.5 c 128,-1,19
 266 607 266 607 284 601 c 128,-1,20
 302 595 302 595 319 595 c 0,21,22
 355 595 355 595 377 619 c 128,-1,23
 399 643 399 643 414 700 c 1,0,-1
EndSplineSet
EndChar

StartChar: macron
Encoding: 175 175 204
AltUni2: 0002c9.ffffffff.0
Width: 500
Flags: W
LayerCount: 2
Fore
SplineSet
408 600 m 1,0,-1
 408 667 l 1,1,-1
 92 667 l 1,2,-1
 92 600 l 1,3,-1
 408 600 l 1,0,-1
EndSplineSet
EndChar

StartChar: breve
Encoding: 728 728 205
Width: 500
Flags: W
LayerCount: 2
Fore
SplineSet
398 726 m 1,0,-1
 342 726 l 1,1,2
 333 694 333 694 310.5 675.5 c 128,-1,3
 288 657 288 657 250 657 c 256,4,5
 212 657 212 657 189.5 675.5 c 128,-1,6
 167 694 167 694 158 726 c 1,7,-1
 102 726 l 1,8,9
 107 663 107 663 147 628 c 128,-1,10
 187 593 187 593 250 593 c 256,11,12
 313 593 313 593 353 628 c 128,-1,13
 393 663 393 663 398 726 c 1,0,-1
EndSplineSet
EndChar

StartChar: dotaccent
Encoding: 729 729 206
Width: 500
Flags: W
LayerCount: 2
Fore
SplineSet
297 595 m 1,0,-1
 297 691 l 1,1,-1
 203 691 l 1,2,-1
 203 595 l 1,3,-1
 297 595 l 1,0,-1
EndSplineSet
EndChar

StartChar: ring
Encoding: 730 730 207
Width: 500
Flags: W
LayerCount: 2
Fore
SplineSet
354 693 m 256,0,1
 354 714 354 714 345.5 732 c 128,-1,2
 337 750 337 750 322.5 763.5 c 128,-1,3
 308 777 308 777 289.5 785 c 128,-1,4
 271 793 271 793 250 793 c 256,5,6
 229 793 229 793 210.5 785 c 128,-1,7
 192 777 192 777 177.5 763.5 c 128,-1,8
 163 750 163 750 154.5 732 c 128,-1,9
 146 714 146 714 146 693 c 256,10,11
 146 672 146 672 154.5 654 c 128,-1,12
 163 636 163 636 177.5 622.5 c 128,-1,13
 192 609 192 609 210.5 601 c 128,-1,14
 229 593 229 593 250 593 c 256,15,16
 271 593 271 593 289.5 601 c 128,-1,17
 308 609 308 609 322.5 622.5 c 128,-1,18
 337 636 337 636 345.5 654 c 128,-1,19
 354 672 354 672 354 693 c 256,0,1
312 693 m 256,20,21
 312 667 312 667 294 649 c 128,-1,22
 276 631 276 631 250 631 c 256,23,24
 224 631 224 631 206 649 c 128,-1,25
 188 667 188 667 188 693 c 256,26,27
 188 719 188 719 206 737 c 128,-1,28
 224 755 224 755 250 755 c 256,29,30
 276 755 276 755 294 737 c 128,-1,31
 312 719 312 719 312 693 c 256,20,21
EndSplineSet
EndChar

StartChar: cedilla
Encoding: 184 184 208
Width: 500
Flags: W
LayerCount: 2
Fore
SplineSet
240 10 m 1,0,-1
 150 -121 l 1,1,-1
 225 -155 l 1,2,-1
 301 10 l 1,3,-1
 240 10 l 1,0,-1
EndSplineSet
EndChar

StartChar: hungarumlaut
Encoding: 733 733 209
Width: 500
Flags: W
LayerCount: 2
Fore
SplineSet
309 595 m 1,0,-1
 418 703 l 1,1,-1
 343 740 l 1,2,-1
 248 595 l 1,3,-1
 309 595 l 1,0,-1
146 595 m 1,4,-1
 254 703 l 1,5,-1
 179 740 l 1,6,-1
 84 595 l 1,7,-1
 146 595 l 1,4,-1
EndSplineSet
EndChar

StartChar: ogonek
Encoding: 731 731 210
Width: 500
Flags: W
LayerCount: 2
Fore
SplineSet
257 10 m 1,0,-1
 197 10 l 1,1,2
 191 -4 191 -4 187 -21 c 128,-1,3
 183 -38 183 -38 183 -56 c 0,4,5
 183 -107 183 -107 227.5 -138 c 128,-1,6
 272 -169 272 -169 360 -164 c 1,7,-1
 360 -123 l 1,8,9
 303 -120 303 -120 277 -99.5 c 128,-1,10
 251 -79 251 -79 251 -41 c 0,11,12
 251 -16 251 -16 257 10 c 1,0,-1
EndSplineSet
EndChar

StartChar: caron
Encoding: 711 711 211
Width: 500
Flags: W
LayerCount: 2
Fore
SplineSet
251 659 m 1,0,-1
 176 726 l 1,1,-1
 110 726 l 1,2,-1
 216 595 l 1,3,-1
 284 595 l 1,4,-1
 390 726 l 1,5,-1
 326 726 l 1,6,-1
 251 659 l 1,0,-1
EndSplineSet
EndChar

StartChar: lslash
Encoding: 322 322 212
Width: 323
Flags: W
LayerCount: 2
Fore
SplineSet
200 343 m 1,0,-1
 276 367 l 1,1,-1
 276 442 l 1,2,-1
 200 418 l 1,3,-1
 200 730 l 1,4,-1
 124 730 l 1,5,-1
 124 395 l 1,6,-1
 48 372 l 1,7,-1
 48 297 l 1,8,-1
 124 321 l 1,9,-1
 124 0 l 1,10,-1
 200 0 l 1,11,-1
 200 343 l 1,0,-1
EndSplineSet
EndChar

StartChar: Thorn
Encoding: 222 222 217
Width: 673
Flags: W
LayerCount: 2
Fore
SplineSet
623 357 m 0,0,1
 623 409 623 409 604.5 450.5 c 128,-1,2
 586 492 586 492 551.5 520.5 c 128,-1,3
 517 549 517 549 468.5 564.5 c 128,-1,4
 420 580 420 580 361 580 c 2,5,-1
 178 580 l 1,6,-1
 178 700 l 1,7,-1
 99 700 l 1,8,-1
 99 0 l 1,9,-1
 178 0 l 1,10,-1
 178 126 l 1,11,-1
 348 126 l 2,12,13
 404 126 404 126 454 140.5 c 128,-1,14
 504 155 504 155 541.5 184.5 c 128,-1,15
 579 214 579 214 601 257 c 128,-1,16
 623 300 623 300 623 357 c 0,0,1
543 354 m 0,17,18
 543 319 543 319 529.5 290.5 c 128,-1,19
 516 262 516 262 490.5 241.5 c 128,-1,20
 465 221 465 221 429.5 209.5 c 128,-1,21
 394 198 394 198 351 198 c 2,22,-1
 178 198 l 1,23,-1
 178 507 l 1,24,-1
 355 507 l 2,25,26
 440 507 440 507 491.5 468.5 c 128,-1,27
 543 430 543 430 543 354 c 0,17,18
EndSplineSet
EndChar

StartChar: thorn
Encoding: 254 254 218
Width: 664
Flags: W
LayerCount: 2
Fore
SplineSet
608 259 m 256,0,1
 608 323 608 323 587 373 c 128,-1,2
 566 423 566 423 531 457.5 c 128,-1,3
 496 492 496 492 451.5 510 c 128,-1,4
 407 528 407 528 361 528 c 0,5,6
 325 528 325 528 295.5 518.5 c 128,-1,7
 266 509 266 509 242 493.5 c 128,-1,8
 218 478 218 478 198.5 457 c 128,-1,9
 179 436 179 436 163 413 c 1,10,-1
 163 730 l 1,11,-1
 86 730 l 1,12,-1
 86 -160 l 1,13,-1
 163 -160 l 1,14,-1
 163 99 l 1,15,16
 178 77 178 77 197.5 57 c 128,-1,17
 217 37 217 37 241 22 c 128,-1,18
 265 7 265 7 295 -2 c 128,-1,19
 325 -11 325 -11 361 -11 c 0,20,21
 408 -11 408 -11 452.5 7.5 c 128,-1,22
 497 26 497 26 531.5 60.5 c 128,-1,23
 566 95 566 95 587 145 c 128,-1,24
 608 195 608 195 608 259 c 256,0,1
529 258 m 0,25,26
 529 211 529 211 514.5 173.5 c 128,-1,27
 500 136 500 136 475.5 110.5 c 128,-1,28
 451 85 451 85 417.5 71.5 c 128,-1,29
 384 58 384 58 347 58 c 0,30,31
 311 58 311 58 277.5 72.5 c 128,-1,32
 244 87 244 87 217.5 113 c 128,-1,33
 191 139 191 139 175.5 176.5 c 128,-1,34
 160 214 160 214 160 259 c 256,35,36
 160 304 160 304 175.5 341 c 128,-1,37
 191 378 191 378 217.5 404 c 128,-1,38
 244 430 244 430 277.5 444.5 c 128,-1,39
 311 459 311 459 347 459 c 0,40,41
 384 459 384 459 417 445 c 128,-1,42
 450 431 450 431 475 404.5 c 128,-1,43
 500 378 500 378 514.5 341 c 128,-1,44
 529 304 529 304 529 258 c 0,25,26
EndSplineSet
EndChar

StartChar: Lslash
Encoding: 321 321 221
Width: 649
Flags: W
LayerCount: 2
Fore
SplineSet
602 0 m 1,0,-1
 602 73 l 1,1,-1
 207 73 l 1,2,-1
 207 326 l 1,3,-1
 423 391 l 1,4,-1
 423 465 l 1,5,-1
 207 399 l 1,6,-1
 207 700 l 1,7,-1
 129 700 l 1,8,-1
 129 375 l 1,9,-1
 54 352 l 1,10,-1
 54 279 l 1,11,-1
 129 301 l 1,12,-1
 129 0 l 1,13,-1
 602 0 l 1,0,-1
EndSplineSet
EndChar

StartChar: Omega
Encoding: 937 937 222
Width: 735
Flags: W
LayerCount: 2
Fore
SplineSet
559 515 m 1,0,-1
 559 557 l 2,1,2
 559 667 559 667 649 667 c 0,3,4
 669 667 669 667 686 663.5 c 128,-1,5
 703 660 703 660 723 654 c 1,6,-1
 723 721 l 1,7,8
 705 728 705 728 685 731 c 128,-1,9
 665 734 665 734 638 734 c 0,10,11
 563 734 563 734 523 690 c 128,-1,12
 483 646 483 646 483 561 c 2,13,-1
 483 516 l 1,14,-1
 412 516 l 1,15,-1
 412 449 l 1,16,-1
 483 449 l 1,17,-1
 483 0 l 1,18,-1
 559 0 l 1,19,-1
 559 449 l 1,20,-1
 722 449 l 1,21,-1
 722 515 l 1,22,-1
 559 515 l 1,0,-1
191 515 m 1,23,-1
 191 557 l 2,24,25
 191 667 191 667 281 667 c 0,26,27
 301 667 301 667 318 663.5 c 128,-1,28
 335 660 335 660 356 654 c 1,29,-1
 356 721 l 1,30,31
 337 728 337 728 317.5 731 c 128,-1,32
 298 734 298 734 271 734 c 0,33,34
 196 734 196 734 155.5 690 c 128,-1,35
 115 646 115 646 115 561 c 2,36,-1
 115 516 l 1,37,-1
 44 516 l 1,38,-1
 44 449 l 1,39,-1
 115 449 l 1,40,-1
 115 0 l 1,41,-1
 192 0 l 1,42,-1
 192 449 l 1,43,-1
 355 449 l 1,44,-1
 355 515 l 1,45,-1
 191 515 l 1,23,-1
EndSplineSet
EndChar

StartChar: fraction
Encoding: 8725 8725 223
Width: 429
Flags: W
LayerCount: 2
Fore
SplineSet
399 758 m 1,0,-1
 -68 -98 l 1,1,-1
 8 -98 l 1,2,-1
 475 758 l 1,3,-1
 399 758 l 1,0,-1
EndSplineSet
EndChar

StartChar: Eth
Encoding: 208 208 224
Width: 812
Flags: W
LayerCount: 2
Fore
SplineSet
129 316 m 1,0,-1
 129 0 l 1,1,-1
 372 0 l 2,2,3
 454 0 454 0 522.5 27 c 128,-1,4
 591 54 591 54 640.5 101 c 128,-1,5
 690 148 690 148 717 212.5 c 128,-1,6
 744 277 744 277 744 351 c 256,7,8
 744 425 744 425 717 489 c 128,-1,9
 690 553 690 553 640.5 600 c 128,-1,10
 591 647 591 647 522.5 673.5 c 128,-1,11
 454 700 454 700 372 700 c 2,12,-1
 129 700 l 1,13,-1
 129 388 l 1,14,-1
 54 388 l 1,15,-1
 54 316 l 1,16,-1
 129 316 l 1,0,-1
208 388 m 1,17,-1
 208 627 l 1,18,-1
 372 627 l 2,19,20
 438 627 438 627 492 605.5 c 128,-1,21
 546 584 546 584 583.5 546.5 c 128,-1,22
 621 509 621 509 641.5 458 c 128,-1,23
 662 407 662 407 662 349 c 0,24,25
 662 290 662 290 641.5 240 c 128,-1,26
 621 190 621 190 583.5 152.5 c 128,-1,27
 546 115 546 115 492 94 c 128,-1,28
 438 73 438 73 372 73 c 2,29,-1
 208 73 l 1,30,-1
 208 316 l 1,31,-1
 418 316 l 1,32,-1
 418 388 l 1,33,-1
 208 388 l 1,17,-1
EndSplineSet
EndChar

StartChar: eth
Encoding: 240 240 225
Width: 633
Flags: W
LayerCount: 2
Fore
SplineSet
322 615 m 1,0,-1
 453 431 l 1,1,2
 420 454 420 454 382.5 470 c 128,-1,3
 345 486 345 486 291 486 c 0,4,5
 243 486 243 486 200 468.5 c 128,-1,6
 157 451 157 451 124.5 419.5 c 128,-1,7
 92 388 92 388 73 344 c 128,-1,8
 54 300 54 300 54 246 c 0,9,10
 54 193 54 193 73.5 146 c 128,-1,11
 93 99 93 99 127.5 64 c 128,-1,12
 162 29 162 29 209 8.5 c 128,-1,13
 256 -12 256 -12 312 -12 c 0,14,15
 373 -12 373 -12 422.5 9.5 c 128,-1,16
 472 31 472 31 506.5 67 c 128,-1,17
 541 103 541 103 559.5 151 c 128,-1,18
 578 199 578 199 578 252 c 0,19,20
 578 287 578 287 572 318.5 c 128,-1,21
 566 350 566 350 554.5 379 c 128,-1,22
 543 408 543 408 527 437 c 128,-1,23
 511 466 511 466 490 496 c 2,24,-1
 389 645 l 1,25,-1
 491 692 l 1,26,-1
 456 739 l 1,27,-1
 357 691 l 1,28,-1
 331 730 l 1,29,-1
 239 730 l 1,30,-1
 289 660 l 1,31,-1
 158 599 l 1,32,-1
 194 552 l 1,33,-1
 322 615 l 1,0,-1
499 244 m 0,34,35
 499 206 499 206 486 172 c 128,-1,36
 473 138 473 138 449 112 c 128,-1,37
 425 86 425 86 391.5 71 c 128,-1,38
 358 56 358 56 317 56 c 256,39,40
 276 56 276 56 242.5 71.5 c 128,-1,41
 209 87 209 87 184 113 c 128,-1,42
 159 139 159 139 145.5 172.5 c 128,-1,43
 132 206 132 206 132 243 c 0,44,45
 132 281 132 281 144.5 314.5 c 128,-1,46
 157 348 157 348 180 372.5 c 128,-1,47
 203 397 203 397 235.5 411 c 128,-1,48
 268 425 268 425 309 425 c 256,49,50
 350 425 350 425 384.5 410.5 c 128,-1,51
 419 396 419 396 444.5 371.5 c 128,-1,52
 470 347 470 347 484.5 314 c 128,-1,53
 499 281 499 281 499 244 c 0,34,35
EndSplineSet
EndChar
